# This file is brought to you by Roblox Corporation
# Generated by Roblox Studio

mtllib Bandages.mtl

g Bandages1

v -0.209599 0.221651 -0.52003 
v -0.328044 -0.221651 -0.470968 
v -0.328044 0.221651 -0.470968 
v -0.209599 -0.221651 -0.52003 
v 0.209599 0.221651 0.509933 
v 0.328044 -0.221651 0.460871 
v 0.328044 0.221651 0.460871 
v 0.209599 -0.221651 0.509933 
v -0.0911538 0.221651 -0.470968 
v -0.209599 -0.221651 -0.52003 
v -0.209599 0.221651 -0.52003 
v -0.0911538 -0.221651 -0.470968 
v 0.328044 0.221651 0.460871 
v 0.377106 -0.221651 0.342426 
v 0.377106 0.221651 0.342426 
v 0.328044 -0.221651 0.460871 
v -0.328044 0.221651 -0.470968 
v -0.377106 -0.221651 -0.352523 
v -0.377106 0.221651 -0.352523 
v -0.328044 -0.221651 -0.470968 
v -0.183296 0.0100435 0.465476 
v -0.23691 0.00061731 0.438914 
v -0.186795 0.000617281 0.463743 
v -0.151357 -0.0389305 0.4813 
v -0.240409 0.0100435 0.437181 
v -0.272347 -0.0389305 0.421358 
v -0.280794 -0.035026 0.417173 
v -0.142911 -0.035026 0.485484 
v -0.142911 -0.0987639 0.485484 
v -0.151357 -0.0948595 0.4813 
v -0.240409 -0.143833 0.437181 
v -0.186795 -0.134407 0.463743 
v -0.23691 -0.134407 0.438914 
v -0.272347 -0.0948594 0.421358 
v -0.183296 -0.143833 0.465476 
v -0.151357 -0.0948595 0.4813 
v -0.142911 -0.0987639 0.485484 
v -0.280794 -0.0987639 0.417173 
v -0.272347 -0.0389305 0.421358 
v -0.280794 -0.035026 0.417173 
v -0.154413 0.087861 0.479786 
v -0.269292 0.087861 0.422872 
v -0.183296 0.0100435 0.465476 
v -0.240409 0.0100435 0.437181 
v -0.280794 -0.035026 0.417173 
v -0.350523 -0.00279291 0.382627 
v -0.142911 -0.035026 0.485484 
v -0.0731818 -0.00279297 0.52003 
v -0.0731818 -0.130997 0.52003 
v -0.142911 -0.0987639 0.485484 
v -0.240409 -0.143833 0.437181 
v -0.154413 -0.221651 0.479786 
v -0.183296 -0.143833 0.465476 
v -0.142911 -0.0987639 0.485484 
v -0.0731818 -0.130997 0.52003 
v -0.269292 -0.221651 0.422872 
v -0.280794 -0.0987639 0.417173 
v -0.350523 -0.130997 0.382627 
v -0.350523 -0.00279291 0.382627 
v -0.280794 -0.035026 0.417173 
v -0.157927 0.221651 -0.300852 
v -0.209599 -0.221651 -0.279449 
v -0.209599 0.221651 -0.279449 
v -0.157927 -0.221651 -0.300852 
v 0.0911539 0.221651 0.460871 
v 0.209599 -0.221651 0.509933 
v 0.209599 0.221651 0.509933 
v 0.0911539 -0.221651 0.460871 
v 0.328044 0.221651 0.223981 
v 0.377106 -0.221651 0.342426 
v 0.328044 -0.221651 0.223981 
v 0.377106 0.221651 0.342426 
v 0.157927 0.221651 0.290754 
v 0.209599 -0.221651 0.269351 
v 0.209599 0.221651 0.269351 
v 0.157927 -0.221651 0.290754 
v -0.209599 0.221651 -0.279449 
v -0.261271 -0.221651 -0.300852 
v -0.261271 0.221651 -0.300852 
v -0.209599 -0.221651 -0.279449 
v 0.157927 0.221651 0.290754 
v 0.136524 -0.221651 0.342426 
v 0.157927 -0.221651 0.290754 
v 0.136524 0.221651 0.342426 
v -0.157927 0.221651 -0.300852 
v -0.136524 -0.221651 -0.352523 
v -0.157927 -0.221651 -0.300852 
v -0.136524 0.221651 -0.352523 
v -0.136524 0.221651 -0.352523 
v -0.150713 0.221651 -0.293637 
v -0.126321 0.221651 -0.352523 
v -0.157927 0.221651 -0.300852 
v -0.209599 0.221651 -0.269246 
v -0.209599 0.221651 -0.279449 
v -0.261271 0.221651 -0.300852 
v -0.268485 0.221651 -0.293637 
v -0.282674 0.221651 -0.352523 
v -0.292877 0.221651 -0.352523 
v -0.209599 0.221651 -0.435801 
v -0.261271 0.221651 -0.404195 
v -0.209599 0.221651 -0.425598 
v -0.157927 0.221651 -0.404195 
v -0.268485 0.221651 -0.411409 
v -0.282674 0.221651 -0.352523 
v -0.292877 0.221651 -0.352523 
v -0.150713 0.221651 -0.411409 
v -0.136524 0.221651 -0.352523 
v -0.126321 0.221651 -0.352523 
v -0.0911538 0.221651 -0.234078 
v -0.209599 0.221651 -0.269246 
v -0.209599 0.221651 -0.185017 
v -0.328044 0.221651 -0.234078 
v -0.150713 0.221651 -0.293637 
v -0.0420923 0.221651 -0.352523 
v -0.126321 0.221651 -0.352523 
v -0.268485 0.221651 -0.293637 
v -0.377106 0.221651 -0.352523 
v -0.292877 0.221651 -0.352523 
v -0.328044 0.221651 -0.470968 
v -0.292877 0.221651 -0.352523 
v -0.268485 0.221651 -0.411409 
v -0.377106 0.221651 -0.352523 
v -0.209599 0.221651 -0.435801 
v -0.209599 0.221651 -0.52003 
v -0.0911538 0.221651 -0.470968 
v -0.150713 0.221651 -0.411409 
v -0.0420923 0.221651 -0.352523 
v -0.126321 0.221651 -0.352523 
v 0.282674 0.221651 0.342426 
v 0.268485 0.221651 0.401312 
v 0.292877 0.221651 0.342426 
v 0.261271 0.221651 0.394098 
v 0.209599 0.221651 0.425704 
v 0.209599 0.221651 0.415501 
v 0.157927 0.221651 0.394098 
v 0.150713 0.221651 0.401312 
v 0.136524 0.221651 0.342426 
v 0.126321 0.221651 0.342426 
v 0.150713 0.221651 0.28354 
v 0.209599 0.221651 0.269351 
v 0.209599 0.221651 0.259148 
v 0.157927 0.221651 0.290754 
v 0.136524 0.221651 0.342426 
v 0.126321 0.221651 0.342426 
v 0.261271 0.221651 0.290754 
v 0.268485 0.221651 0.28354 
v 0.282674 0.221651 0.342426 
v 0.292877 0.221651 0.342426 
v 0.328044 0.221651 0.460871 
v 0.209599 0.221651 0.425704 
v 0.209599 0.221651 0.509933 
v 0.0911539 0.221651 0.460871 
v 0.268485 0.221651 0.401312 
v 0.377106 0.221651 0.342426 
v 0.292877 0.221651 0.342426 
v 0.150713 0.221651 0.401312 
v 0.0420923 0.221651 0.342426 
v 0.126321 0.221651 0.342426 
v 0.0911539 0.221651 0.223981 
v 0.209599 0.221651 0.259148 
v 0.209599 0.221651 0.174919 
v 0.328044 0.221651 0.223981 
v 0.150713 0.221651 0.28354 
v 0.126321 0.221651 0.342426 
v 0.0420923 0.221651 0.342426 
v 0.268485 0.221651 0.28354 
v 0.377106 0.221651 0.342426 
v 0.292877 0.221651 0.342426 
v 0.0423833 -0.221651 0.0825608 
v -0.154413 -0.221651 0.479786 
v -0.269292 -0.221651 0.422872 
v -0.0724952 -0.221651 0.0256467 
v -0.209599 -0.221651 -0.269246 
v -0.261271 -0.221651 -0.300852 
v -0.209599 -0.221651 -0.279449 
v -0.157927 -0.221651 -0.300852 
v -0.268485 -0.221651 -0.293637 
v -0.282674 -0.221651 -0.352523 
v -0.292877 -0.221651 -0.352523 
v -0.150713 -0.221651 -0.293637 
v -0.136524 -0.221651 -0.352523 
v -0.126321 -0.221651 -0.352523 
v -0.150713 -0.221651 -0.41141 
v -0.136524 -0.221651 -0.352523 
v -0.157927 -0.221651 -0.404195 
v -0.126321 -0.221651 -0.352523 
v -0.209599 -0.221651 -0.435801 
v -0.209599 -0.221651 -0.425598 
v -0.261271 -0.221651 -0.404195 
v -0.268485 -0.221651 -0.41141 
v -0.282674 -0.221651 -0.352523 
v -0.292877 -0.221651 -0.352523 
v -0.209599 -0.221651 -0.269246 
v -0.0911538 -0.221651 -0.234078 
v -0.209599 -0.221651 -0.185017 
v -0.328044 -0.221651 -0.234078 
v -0.150713 -0.221651 -0.293637 
v -0.0420923 -0.221651 -0.352523 
v -0.126321 -0.221651 -0.352523 
v -0.268485 -0.221651 -0.293637 
v -0.377106 -0.221651 -0.352523 
v -0.292877 -0.221651 -0.352523 
v -0.292877 -0.221651 -0.352523 
v -0.377106 -0.221651 -0.352523 
v -0.268485 -0.221651 -0.41141 
v -0.328044 -0.221651 -0.470968 
v -0.209599 -0.221651 -0.435801 
v -0.209599 -0.221651 -0.52003 
v -0.0911538 -0.221651 -0.470968 
v -0.150713 -0.221651 -0.41141 
v -0.0420923 -0.221651 -0.352523 
v -0.126321 -0.221651 -0.352523 
v 0.209599 -0.221651 0.425704 
v 0.157927 -0.221651 0.394098 
v 0.209599 -0.221651 0.415501 
v 0.261271 -0.221651 0.394098 
v 0.150713 -0.221651 0.401312 
v 0.136524 -0.221651 0.342426 
v 0.126321 -0.221651 0.342426 
v 0.268485 -0.221651 0.401312 
v 0.282674 -0.221651 0.342426 
v 0.292876 -0.221651 0.342426 
v 0.268485 -0.221651 0.28354 
v 0.282674 -0.221651 0.342426 
v 0.261271 -0.221651 0.290754 
v 0.292876 -0.221651 0.342426 
v 0.209599 -0.221651 0.259148 
v 0.209599 -0.221651 0.269351 
v 0.157927 -0.221651 0.290754 
v 0.150713 -0.221651 0.28354 
v 0.136524 -0.221651 0.342426 
v 0.126321 -0.221651 0.342426 
v 0.209599 -0.221651 0.509933 
v 0.0911539 -0.221651 0.460871 
v 0.209599 -0.221651 0.425704 
v 0.328044 -0.221651 0.460871 
v 0.150713 -0.221651 0.401312 
v 0.0420923 -0.221651 0.342426 
v 0.126321 -0.221651 0.342426 
v 0.268485 -0.221651 0.401312 
v 0.377106 -0.221651 0.342426 
v 0.292876 -0.221651 0.342426 
v 0.126321 -0.221651 0.342426 
v 0.0420923 -0.221651 0.342426 
v 0.150713 -0.221651 0.28354 
v 0.0911539 -0.221651 0.223981 
v 0.209599 -0.221651 0.259148 
v 0.209599 -0.221651 0.174919 
v 0.328044 -0.221651 0.223981 
v 0.268485 -0.221651 0.28354 
v 0.377106 -0.221651 0.342426 
v 0.292876 -0.221651 0.342426 
v -0.0731818 -0.130997 0.52003 
v 0.0423833 -0.221651 0.0825608 
v 0.123615 -0.130997 0.122805 
v -0.154413 -0.221651 0.479786 
v -0.0724952 -0.221651 0.0256467 
v -0.269292 -0.221651 0.422872 
v -0.350523 -0.130997 0.382627 
v -0.153726 -0.130997 -0.0145976 
v 0.123615 -0.00279287 0.122805 
v -0.0731818 -0.00279297 0.52003 
v -0.0731818 -0.130997 0.52003 
v 0.123615 -0.130997 0.122805 
v -0.0420923 0.221651 -0.352523 
v -0.0911538 -0.221651 -0.470968 
v -0.0911538 0.221651 -0.470968 
v -0.0420923 -0.221651 -0.352523 
v -0.328044 0.221651 -0.234078 
v -0.377106 -0.221651 -0.352523 
v -0.328044 -0.221651 -0.234078 
v -0.377106 0.221651 -0.352523 
v -0.153726 -0.00279281 -0.0145975 
v -0.350523 -0.130997 0.382627 
v -0.350523 -0.00279291 0.382627 
v -0.153726 -0.130997 -0.0145976 
v 0.0423834 0.0878611 0.0825609 
v -0.154413 0.087861 0.479786 
v -0.0731818 -0.00279297 0.52003 
v 0.123615 -0.00279287 0.122805 
v -0.350523 -0.00279291 0.382627 
v -0.0724951 0.0878611 0.0256468 
v -0.153726 -0.00279281 -0.0145975 
v -0.269292 0.087861 0.422872 
v -0.269292 0.087861 0.422872 
v 0.0423834 0.0878611 0.0825609 
v -0.0724951 0.0878611 0.0256468 
v -0.154413 0.087861 0.479786 
v 0.209599 0.221651 0.269351 
v 0.261271 -0.221651 0.290754 
v 0.261271 0.221651 0.290754 
v 0.209599 -0.221651 0.269351 
v 0.136524 0.221651 0.342426 
v 0.157927 -0.221651 0.394098 
v 0.136524 -0.221651 0.342426 
v 0.157927 0.221651 0.394098 
v 0.0454391 -0.0389304 0.0840748 
v 0.0100019 0.00061743 0.0665183 
v 0.0135006 0.0100436 0.0682515 
v 0.0538856 -0.0350259 0.0882594 
v 0.0538856 -0.0987638 0.0882594 
v 0.0454391 -0.0948594 0.0840748 
v -0.0436124 0.0100437 0.0399561 
v -0.0401137 0.00061743 0.0416894 
v -0.0755509 -0.0389303 0.0241329 
v -0.0839974 -0.0350259 0.0199483 
v -0.0755509 -0.0948593 0.0241329 
v -0.0839974 -0.0350259 0.0199483 
v -0.0755509 -0.0389303 0.0241329 
v -0.0839973 -0.0987638 0.0199482 
v -0.0436124 -0.143833 0.0399561 
v -0.0401138 -0.134407 0.0416895 
v 0.010002 -0.134407 0.0665182 
v 0.0135006 -0.143833 0.0682515 
v 0.0454391 -0.0948594 0.0840748 
v 0.0538856 -0.0987638 0.0882594 
v 0.123615 -0.00279287 0.122805 
v 0.0538856 -0.0350259 0.0882594 
v 0.0423834 0.0878611 0.0825609 
v 0.123615 -0.130997 0.122805 
v 0.0538856 -0.0987638 0.0882594 
v 0.0135006 0.0100436 0.0682515 
v -0.0724951 0.0878611 0.0256468 
v -0.0436124 0.0100437 0.0399561 
v -0.0839974 -0.0350259 0.0199483 
v -0.153726 -0.00279281 -0.0145975 
v -0.153726 -0.130997 -0.0145976 
v -0.0839974 -0.0350259 0.0199483 
v -0.0839973 -0.0987638 0.0199482 
v -0.153726 -0.00279281 -0.0145975 
v -0.0724952 -0.221651 0.0256467 
v -0.0436124 -0.143833 0.0399561 
v 0.0423833 -0.221651 0.0825608 
v 0.0135006 -0.143833 0.0682515 
v 0.0538856 -0.0987638 0.0882594 
v 0.123615 -0.130997 0.122805 
v 0.0911539 0.221651 0.460871 
v 0.0420923 -0.221651 0.342426 
v 0.0911539 -0.221651 0.460871 
v 0.0420923 0.221651 0.342426 
v 0.209599 0.221651 0.174919 
v 0.328044 -0.221651 0.223981 
v 0.209599 -0.221651 0.174919 
v 0.328044 0.221651 0.223981 
v 0.0100019 0.00061743 0.0665183 
v -0.186795 0.000617281 0.463743 
v -0.23691 0.00061731 0.438914 
v -0.0401137 0.00061743 0.0416894 
v -0.23691 0.00061731 0.438914 
v -0.0755509 -0.0389303 0.0241329 
v -0.0401137 0.00061743 0.0416894 
v -0.272347 -0.0389305 0.421358 
v -0.151357 -0.0389305 0.4813 
v 0.0100019 0.00061743 0.0665183 
v 0.0454391 -0.0389304 0.0840748 
v -0.186795 0.000617281 0.463743 
v -0.272347 -0.0389305 0.421358 
v -0.0755509 -0.0948593 0.0241329 
v -0.0755509 -0.0389303 0.0241329 
v -0.272347 -0.0948594 0.421358 
v -0.282674 0.221651 -0.352523 
v -0.261271 -0.221651 -0.300852 
v -0.282674 -0.221651 -0.352523 
v -0.261271 0.221651 -0.300852 
v -0.136524 0.221651 -0.352523 
v -0.157927 -0.221651 -0.404195 
v -0.136524 -0.221651 -0.352523 
v -0.157927 0.221651 -0.404195 
v 0.0454391 -0.0389304 0.0840748 
v -0.151357 -0.0948595 0.4813 
v -0.151357 -0.0389305 0.4813 
v 0.0454391 -0.0948594 0.0840748 
v -0.0755509 -0.0948593 0.0241329 
v -0.272347 -0.0948594 0.421358 
v -0.23691 -0.134407 0.438914 
v -0.0401138 -0.134407 0.0416895 
v 0.010002 -0.134407 0.0665182 
v -0.186795 -0.134407 0.463743 
v -0.151357 -0.0948595 0.4813 
v 0.0454391 -0.0948594 0.0840748 
v -0.23691 -0.134407 0.438914 
v 0.010002 -0.134407 0.0665182 
v -0.0401138 -0.134407 0.0416895 
v -0.186795 -0.134407 0.463743 
v -0.0911538 0.221651 -0.234078 
v -0.0420923 -0.221651 -0.352523 
v -0.0420923 0.221651 -0.352523 
v -0.0911538 -0.221651 -0.234078 
v 0.0911539 0.221651 0.223981 
v 0.0420923 -0.221651 0.342426 
v 0.0420923 0.221651 0.342426 
v 0.0911539 -0.221651 0.223981 
v -0.209599 0.221651 -0.185017 
v -0.328044 -0.221651 -0.234078 
v -0.209599 -0.221651 -0.185017 
v -0.328044 0.221651 -0.234078 
v 0.0911539 0.221651 0.223981 
v 0.209599 -0.221651 0.174919 
v 0.0911539 -0.221651 0.223981 
v 0.209599 0.221651 0.174919 
v 0.282674 0.221651 0.342426 
v 0.261271 -0.221651 0.290754 
v 0.282674 -0.221651 0.342426 
v 0.261271 0.221651 0.290754 
v 0.209599 0.221651 0.415501 
v 0.157927 -0.221651 0.394098 
v 0.157927 0.221651 0.394098 
v 0.209599 -0.221651 0.415501 
v -0.209599 0.221651 -0.185017 
v -0.0911538 -0.221651 -0.234078 
v -0.0911538 0.221651 -0.234078 
v -0.209599 -0.221651 -0.185017 
v -0.261271 0.221651 -0.404195 
v -0.282674 -0.221651 -0.352523 
v -0.261271 -0.221651 -0.404195 
v -0.282674 0.221651 -0.352523 
v 0.261271 0.221651 0.394098 
v 0.282674 -0.221651 0.342426 
v 0.261271 -0.221651 0.394098 
v 0.282674 0.221651 0.342426 
v -0.209599 0.221651 -0.425598 
v -0.157927 -0.221651 -0.404195 
v -0.157927 0.221651 -0.404195 
v -0.209599 -0.221651 -0.425598 
v 0.261271 0.221651 0.394098 
v 0.209599 -0.221651 0.415501 
v 0.209599 0.221651 0.415501 
v 0.261271 -0.221651 0.394098 
v -0.261271 0.221651 -0.404195 
v -0.209599 -0.221651 -0.425598 
v -0.209599 0.221651 -0.425598 
v -0.261271 -0.221651 -0.404195 

vn -0.385827 0 -0.92126 
vn -0.385827 0 -0.92126 
vn -0.385827 0 -0.92126 
vn -0.385827 0 -0.92126 
vn 0.385827 0 0.92126 
vn 0.385827 0 0.92126 
vn 0.385827 0 0.92126 
vn 0.385827 0 0.92126 
vn 0.385827 0 -0.92126 
vn 0.385827 0 -0.92126 
vn 0.385827 0 -0.92126 
vn 0.385827 0 -0.92126 
vn 0.92126 0 0.385827 
vn 0.92126 0 0.385827 
vn 0.92126 0 0.385827 
vn 0.92126 0 0.385827 
vn -0.92126 0 -0.385827 
vn -0.92126 0 -0.385827 
vn -0.92126 0 -0.385827 
vn -0.92126 0 -0.385827 
vn -0.440945 0 0.897638 
vn -0.440945 0 0.897638 
vn -0.440945 0 0.897638 
vn -0.440945 0 0.897638 
vn -0.440945 0 0.897638 
vn -0.440945 0 0.897638 
vn -0.440945 0 0.897638 
vn -0.440945 0 0.897638 
vn -0.440945 0 0.897638 
vn -0.440945 0 0.897638 
vn -0.440945 0 0.897638 
vn -0.440945 0 0.897638 
vn -0.440945 0 0.897638 
vn -0.440945 0 0.897638 
vn -0.440945 0 0.897638 
vn -0.440945 0 0.897638 
vn -0.440945 0 0.897638 
vn -0.440945 0 0.897638 
vn -0.440945 0 0.897638 
vn -0.440945 0 0.897638 
vn -0.440945 0 0.897638 
vn -0.440945 0 0.897638 
vn -0.440945 0 0.897638 
vn -0.440945 0 0.897638 
vn -0.440945 0 0.897638 
vn -0.440945 0 0.897638 
vn -0.440945 0 0.897638 
vn -0.440945 0 0.897638 
vn -0.440945 0 0.897638 
vn -0.440945 0 0.897638 
vn -0.440945 0 0.897638 
vn -0.440945 0 0.897638 
vn -0.440945 0 0.897638 
vn -0.440945 0 0.897638 
vn -0.440945 0 0.897638 
vn -0.440945 0 0.897638 
vn -0.440945 0 0.897638 
vn -0.440945 0 0.897638 
vn -0.440945 0 0.897638 
vn -0.440945 0 0.897638 
vn -0.385827 0 -0.92126 
vn -0.385827 0 -0.92126 
vn -0.385827 0 -0.92126 
vn -0.385827 0 -0.92126 
vn -0.385827 0 0.92126 
vn -0.385827 0 0.92126 
vn -0.385827 0 0.92126 
vn -0.385827 0 0.92126 
vn 0.92126 0 -0.385827 
vn 0.92126 0 -0.385827 
vn 0.92126 0 -0.385827 
vn 0.92126 0 -0.385827 
vn 0.385827 0 0.92126 
vn 0.385827 0 0.92126 
vn 0.385827 0 0.92126 
vn 0.385827 0 0.92126 
vn 0.385827 0 -0.92126 
vn 0.385827 0 -0.92126 
vn 0.385827 0 -0.92126 
vn 0.385827 0 -0.92126 
vn 0.92126 0 0.385827 
vn 0.92126 0 0.385827 
vn 0.92126 0 0.385827 
vn 0.92126 0 0.385827 
vn -0.92126 0 -0.385827 
vn -0.92126 0 -0.385827 
vn -0.92126 0 -0.385827 
vn -0.92126 0 -0.385827 
vn 0 1 0 
vn 0 1 0 
vn 0 1 0 
vn 0 1 0 
vn 0 1 0 
vn 0 1 0 
vn 0 1 0 
vn 0 1 0 
vn 0 1 0 
vn 0 1 0 
vn 0 1 0 
vn 0 1 0 
vn 0 1 0 
vn 0 1 0 
vn 0 1 0 
vn 0 1 0 
vn 0 1 0 
vn 0 1 0 
vn 0 1 0 
vn 0 1 0 
vn 0 1 0 
vn 0 1 0 
vn 0 1 0 
vn 0 1 0 
vn 0 1 0 
vn 0 1 0 
vn 0 1 0 
vn 0 1 0 
vn 0 1 0 
vn 0 1 0 
vn 0 1 0 
vn 0 1 0 
vn 0 1 0 
vn 0 1 0 
vn 0 1 0 
vn 0 1 0 
vn 0 1 0 
vn 0 1 0 
vn 0 1 0 
vn 0 1 0 
vn 0 1 0 
vn 0 1 0 
vn 0 1 0 
vn 0 1 0 
vn 0 1 0 
vn 0 1 0 
vn 0 1 0 
vn 0 1 0 
vn 0 1 0 
vn 0 1 0 
vn 0 1 0 
vn 0 1 0 
vn 0 1 0 
vn 0 1 0 
vn 0 1 0 
vn 0 1 0 
vn 0 1 0 
vn 0 1 0 
vn 0 1 0 
vn 0 1 0 
vn 0 1 0 
vn 0 1 0 
vn 0 1 0 
vn 0 1 0 
vn 0 1 0 
vn 0 1 0 
vn 0 1 0 
vn 0 1 0 
vn 0 1 0 
vn 0 1 0 
vn 0 1 0 
vn 0 1 0 
vn 0 1 0 
vn 0 1 0 
vn 0 1 0 
vn 0 1 0 
vn 0 1 0 
vn 0 1 0 
vn 0 1 0 
vn 0 1 0 
vn 0 -1 0 
vn 0 -1 0 
vn 0 -1 0 
vn 0 -1 0 
vn 0 -1 0 
vn 0 -1 0 
vn 0 -1 0 
vn 0 -1 0 
vn 0 -1 0 
vn 0 -1 0 
vn 0 -1 0 
vn 0 -1 0 
vn 0 -1 0 
vn 0 -1 0 
vn 0 -1 0 
vn 0 -1 0 
vn 0 -1 0 
vn 0 -1 0 
vn 0 -1 0 
vn 0 -1 0 
vn 0 -1 0 
vn 0 -1 0 
vn 0 -1 0 
vn 0 -1 0 
vn 0 -1 0 
vn 0 -1 0 
vn 0 -1 0 
vn 0 -1 0 
vn 0 -1 0 
vn 0 -1 0 
vn 0 -1 0 
vn 0 -1 0 
vn 0 -1 0 
vn 0 -1 0 
vn 0 -1 0 
vn 0 -1 0 
vn 0 -1 0 
vn 0 -1 0 
vn 0 -1 0 
vn 0 -1 0 
vn 0 -1 0 
vn 0 -1 0 
vn 0 -1 0 
vn 0 -1 0 
vn 0 -1 0 
vn 0 -1 0 
vn 0 -1 0 
vn 0 -1 0 
vn 0 -1 0 
vn 0 -1 0 
vn 0 -1 0 
vn 0 -1 0 
vn 0 -1 0 
vn 0 -1 0 
vn 0 -1 0 
vn 0 -1 0 
vn 0 -1 0 
vn 0 -1 0 
vn 0 -1 0 
vn 0 -1 0 
vn 0 -1 0 
vn 0 -1 0 
vn 0 -1 0 
vn 0 -1 0 
vn 0 -1 0 
vn 0 -1 0 
vn 0 -1 0 
vn 0 -1 0 
vn 0 -1 0 
vn 0 -1 0 
vn 0 -1 0 
vn 0 -1 0 
vn 0 -1 0 
vn 0 -1 0 
vn 0 -1 0 
vn 0 -1 0 
vn 0 -1 0 
vn 0 -1 0 
vn 0 -1 0 
vn 0 -1 0 
vn 0 -1 0 
vn 0 -1 0 
vn 0 -1 0 
vn 0 -1 0 
vn 0.629921 -0.708661 0.314961 
vn 0.629921 -0.708661 0.314961 
vn 0.629921 -0.708661 0.314961 
vn 0.629921 -0.708661 0.314961 
vn -0.629921 -0.708661 -0.314961 
vn -0.629921 -0.708661 -0.314961 
vn -0.629921 -0.708661 -0.314961 
vn -0.629921 -0.708661 -0.314961 
vn 0.897638 0 0.440945 
vn 0.897638 0 0.440945 
vn 0.897638 0 0.440945 
vn 0.897638 0 0.440945 
vn 0.92126 0 -0.385827 
vn 0.92126 0 -0.385827 
vn 0.92126 0 -0.385827 
vn 0.92126 0 -0.385827 
vn -0.92126 0 0.385827 
vn -0.92126 0 0.385827 
vn -0.92126 0 0.385827 
vn -0.92126 0 0.385827 
vn -0.897638 0 -0.440945 
vn -0.897638 0 -0.440945 
vn -0.897638 0 -0.440945 
vn -0.897638 0 -0.440945 
vn 0.629921 0.708661 0.314961 
vn 0.629921 0.708661 0.314961 
vn 0.629921 0.708661 0.314961 
vn 0.629921 0.708661 0.314961 
vn -0.629921 0.708661 -0.314961 
vn -0.629921 0.708661 -0.314961 
vn -0.629921 0.708661 -0.314961 
vn -0.629921 0.708661 -0.314961 
vn 0 1 0 
vn 0 1 0 
vn 0 1 0 
vn 0 1 0 
vn -0.385827 0 0.92126 
vn -0.385827 0 0.92126 
vn -0.385827 0 0.92126 
vn -0.385827 0 0.92126 
vn 0.92126 0 -0.385827 
vn 0.92126 0 -0.385827 
vn 0.92126 0 -0.385827 
vn 0.92126 0 -0.385827 
vn 0.440945 0 -0.897638 
vn 0.440945 0 -0.897638 
vn 0.440945 0 -0.897638 
vn 0.440945 0 -0.897638 
vn 0.440945 0 -0.897638 
vn 0.440945 0 -0.897638 
vn 0.440945 0 -0.897638 
vn 0.440945 0 -0.897638 
vn 0.440945 0 -0.897638 
vn 0.440945 0 -0.897638 
vn 0.440945 0 -0.897638 
vn 0.440945 0 -0.897638 
vn 0.440945 0 -0.897638 
vn 0.440945 0 -0.897638 
vn 0.440945 0 -0.897638 
vn 0.440945 0 -0.897638 
vn 0.440945 0 -0.897638 
vn 0.440945 0 -0.897638 
vn 0.440945 0 -0.897638 
vn 0.440945 0 -0.897638 
vn 0.440945 0 -0.897638 
vn 0.440945 0 -0.897638 
vn 0.440945 0 -0.897638 
vn 0.440945 0 -0.897638 
vn 0.440945 0 -0.897638 
vn 0.440945 0 -0.897638 
vn 0.440945 0 -0.897638 
vn 0.440945 0 -0.897638 
vn 0.440945 0 -0.897638 
vn 0.440945 0 -0.897638 
vn 0.440945 0 -0.897638 
vn 0.440945 0 -0.897638 
vn 0.440945 0 -0.897638 
vn 0.440945 0 -0.897638 
vn 0.440945 0 -0.897638 
vn 0.440945 0 -0.897638 
vn 0.440945 0 -0.897638 
vn 0.440945 0 -0.897638 
vn 0.440945 0 -0.897638 
vn 0.440945 0 -0.897638 
vn -0.92126 0 0.385827 
vn -0.92126 0 0.385827 
vn -0.92126 0 0.385827 
vn -0.92126 0 0.385827 
vn 0.385827 0 -0.92126 
vn 0.385827 0 -0.92126 
vn 0.385827 0 -0.92126 
vn 0.385827 0 -0.92126 
vn 0 -1 0 
vn 0 -1 0 
vn 0 -1 0 
vn 0 -1 0 
vn 0.629921 -0.708661 0.314961 
vn 0.629921 -0.708661 0.314961 
vn 0.629921 -0.708661 0.314961 
vn 0.629921 -0.708661 0.314961 
vn -0.629921 -0.708661 -0.314961 
vn -0.629921 -0.708661 -0.314961 
vn -0.629921 -0.708661 -0.314961 
vn -0.629921 -0.708661 -0.314961 
vn 0.897638 0 0.440945 
vn 0.897638 0 0.440945 
vn 0.897638 0 0.440945 
vn 0.897638 0 0.440945 
vn 0.92126 0 -0.385827 
vn 0.92126 0 -0.385827 
vn 0.92126 0 -0.385827 
vn 0.92126 0 -0.385827 
vn -0.92126 0 0.385827 
vn -0.92126 0 0.385827 
vn -0.92126 0 0.385827 
vn -0.92126 0 0.385827 
vn -0.897638 0 -0.440945 
vn -0.897638 0 -0.440945 
vn -0.897638 0 -0.440945 
vn -0.897638 0 -0.440945 
vn 0.629921 0.708661 0.314961 
vn 0.629921 0.708661 0.314961 
vn 0.629921 0.708661 0.314961 
vn 0.629921 0.708661 0.314961 
vn -0.629921 0.708661 -0.314961 
vn -0.629921 0.708661 -0.314961 
vn -0.629921 0.708661 -0.314961 
vn -0.629921 0.708661 -0.314961 
vn 0 1 0 
vn 0 1 0 
vn 0 1 0 
vn 0 1 0 
vn 0.92126 0 0.385827 
vn 0.92126 0 0.385827 
vn 0.92126 0 0.385827 
vn 0.92126 0 0.385827 
vn -0.92126 0 -0.385827 
vn -0.92126 0 -0.385827 
vn -0.92126 0 -0.385827 
vn -0.92126 0 -0.385827 
vn -0.385827 0 0.92126 
vn -0.385827 0 0.92126 
vn -0.385827 0 0.92126 
vn -0.385827 0 0.92126 
vn -0.385827 0 -0.92126 
vn -0.385827 0 -0.92126 
vn -0.385827 0 -0.92126 
vn -0.385827 0 -0.92126 
vn -0.92126 0 0.385827 
vn -0.92126 0 0.385827 
vn -0.92126 0 0.385827 
vn -0.92126 0 0.385827 
vn 0.385827 0 -0.92126 
vn 0.385827 0 -0.92126 
vn 0.385827 0 -0.92126 
vn 0.385827 0 -0.92126 
vn 0.385827 0 0.92126 
vn 0.385827 0 0.92126 
vn 0.385827 0 0.92126 
vn 0.385827 0 0.92126 
vn 0.92126 0 0.385827 
vn 0.92126 0 0.385827 
vn 0.92126 0 0.385827 
vn 0.92126 0 0.385827 
vn -0.92126 0 -0.385827 
vn -0.92126 0 -0.385827 
vn -0.92126 0 -0.385827 
vn -0.92126 0 -0.385827 
vn -0.385827 0 0.92126 
vn -0.385827 0 0.92126 
vn -0.385827 0 0.92126 
vn -0.385827 0 0.92126 
vn -0.385827 0 -0.92126 
vn -0.385827 0 -0.92126 
vn -0.385827 0 -0.92126 
vn -0.385827 0 -0.92126 
vn 0.385827 0 0.92126 
vn 0.385827 0 0.92126 
vn 0.385827 0 0.92126 
vn 0.385827 0 0.92126 

vt 0.761405 0.229208 
vt 0.763095 0.229909 
vt 0.763095 0.229909 
vt 0.761405 0.229208 
vt 0.761405 0.233988 
vt 0.759715 0.233288 
vt 0.759715 0.233288 
vt 0.761405 0.233988 
vt 0.759715 0.229909 
vt 0.761405 0.229208 
vt 0.761405 0.229208 
vt 0.759715 0.229909 
vt 0.759715 0.233288 
vt 0.759015 0.231598 
vt 0.759015 0.231598 
vt 0.759715 0.233288 
vt 0.763095 0.229909 
vt 0.763795 0.231598 
vt 0.763795 0.231598 
vt 0.763095 0.229909 
vt 0.193046 0.815084 
vt 0.193949 0.814532 
vt 0.193046 0.814906 
vt 0.192143 0.814532 
vt 0.194075 0.814658 
vt 0.194323 0.81363 
vt 0.194501 0.81363 
vt 0.192017 0.814658 
vt 0.191591 0.81363 
vt 0.19177 0.81363 
vt 0.193046 0.812175 
vt 0.192143 0.812727 
vt 0.193046 0.812353 
vt 0.193949 0.812727 
vt 0.192017 0.812601 
vt 0.19177 0.81363 
vt 0.191591 0.81363 
vt 0.194075 0.812601 
vt 0.194323 0.81363 
vt 0.194501 0.81363 
vt 0.761405 0.233988 
vt 0.763095 0.233288 
vt 0.761405 0.232787 
vt 0.762246 0.232439 
vt 0.762594 0.231598 
vt 0.763795 0.231598 
vt 0.760565 0.232439 
vt 0.759715 0.233288 
vt 0.759015 0.231598 
vt 0.760217 0.231598 
vt 0.761405 0.23041 
vt 0.759715 0.229909 
vt 0.760565 0.230758 
vt 0.760217 0.231598 
vt 0.759015 0.231598 
vt 0.761405 0.229208 
vt 0.762246 0.230758 
vt 0.763095 0.229909 
vt 0.763795 0.231598 
vt 0.762594 0.231598 
vt 0.192143 0.814532 
vt 0.193046 0.814906 
vt 0.193046 0.814906 
vt 0.192143 0.814532 
vt 0.763095 0.233288 
vt 0.761405 0.233988 
vt 0.761405 0.233988 
vt 0.763095 0.233288 
vt 0.759715 0.229909 
vt 0.759015 0.231598 
vt 0.759715 0.229909 
vt 0.759015 0.231598 
vt 0.193949 0.812727 
vt 0.193046 0.812353 
vt 0.193046 0.812353 
vt 0.193949 0.812727 
vt 0.193046 0.814906 
vt 0.193949 0.814532 
vt 0.193949 0.814532 
vt 0.193046 0.814906 
vt 0.193949 0.812727 
vt 0.194323 0.81363 
vt 0.193949 0.812727 
vt 0.194323 0.81363 
vt 0.192143 0.814532 
vt 0.19177 0.81363 
vt 0.192143 0.814532 
vt 0.19177 0.81363 
vt 0.19177 0.81363 
vt 0.192017 0.814658 
vt 0.191591 0.81363 
vt 0.192143 0.814532 
vt 0.193046 0.815084 
vt 0.193046 0.814906 
vt 0.193949 0.814532 
vt 0.194075 0.814658 
vt 0.194323 0.81363 
vt 0.194501 0.81363 
vt 0.193046 0.812175 
vt 0.193949 0.812727 
vt 0.193046 0.812353 
vt 0.192143 0.812727 
vt 0.194075 0.812601 
vt 0.194323 0.81363 
vt 0.194501 0.81363 
vt 0.192017 0.812601 
vt 0.19177 0.81363 
vt 0.191591 0.81363 
vt 0.759715 0.233288 
vt 0.761405 0.232787 
vt 0.761405 0.233988 
vt 0.763095 0.233288 
vt 0.760565 0.232439 
vt 0.759015 0.231598 
vt 0.760217 0.231598 
vt 0.762246 0.232439 
vt 0.763795 0.231598 
vt 0.762594 0.231598 
vt 0.763095 0.229909 
vt 0.762594 0.231598 
vt 0.762246 0.230758 
vt 0.763795 0.231598 
vt 0.761405 0.23041 
vt 0.761405 0.229208 
vt 0.759715 0.229909 
vt 0.760565 0.230758 
vt 0.759015 0.231598 
vt 0.760217 0.231598 
vt 0.19177 0.81363 
vt 0.192017 0.814658 
vt 0.191591 0.81363 
vt 0.192143 0.814532 
vt 0.193046 0.815084 
vt 0.193046 0.814906 
vt 0.193949 0.814532 
vt 0.194075 0.814658 
vt 0.194323 0.81363 
vt 0.194501 0.81363 
vt 0.194075 0.812601 
vt 0.193046 0.812353 
vt 0.193046 0.812175 
vt 0.193949 0.812727 
vt 0.194323 0.81363 
vt 0.194501 0.81363 
vt 0.192143 0.812727 
vt 0.192017 0.812601 
vt 0.19177 0.81363 
vt 0.191591 0.81363 
vt 0.759715 0.233288 
vt 0.761405 0.232787 
vt 0.761405 0.233988 
vt 0.763095 0.233288 
vt 0.760565 0.232439 
vt 0.759015 0.231598 
vt 0.760217 0.231598 
vt 0.762246 0.232439 
vt 0.763795 0.231598 
vt 0.762594 0.231598 
vt 0.763095 0.229909 
vt 0.761405 0.23041 
vt 0.761405 0.229208 
vt 0.759715 0.229909 
vt 0.762246 0.230758 
vt 0.762594 0.231598 
vt 0.763795 0.231598 
vt 0.760565 0.230758 
vt 0.759015 0.231598 
vt 0.760217 0.231598 
vt 0.759715 0.229909 
vt 0.759715 0.229909 
vt 0.761405 0.229208 
vt 0.761405 0.229208 
vt 0.193046 0.815084 
vt 0.193949 0.814532 
vt 0.193046 0.814906 
vt 0.192143 0.814532 
vt 0.194075 0.814658 
vt 0.194323 0.81363 
vt 0.194501 0.81363 
vt 0.192017 0.814658 
vt 0.19177 0.81363 
vt 0.191591 0.81363 
vt 0.192017 0.812601 
vt 0.19177 0.81363 
vt 0.192143 0.812727 
vt 0.191591 0.81363 
vt 0.193046 0.812175 
vt 0.193046 0.812353 
vt 0.193949 0.812727 
vt 0.194075 0.812601 
vt 0.194323 0.81363 
vt 0.194501 0.81363 
vt 0.761405 0.232787 
vt 0.759715 0.233288 
vt 0.761405 0.233988 
vt 0.763095 0.233288 
vt 0.760565 0.232439 
vt 0.759015 0.231598 
vt 0.760217 0.231598 
vt 0.762246 0.232439 
vt 0.763795 0.231598 
vt 0.762594 0.231598 
vt 0.762594 0.231598 
vt 0.763795 0.231598 
vt 0.762246 0.230758 
vt 0.763095 0.229909 
vt 0.761405 0.23041 
vt 0.761405 0.229208 
vt 0.759715 0.229909 
vt 0.760565 0.230758 
vt 0.759015 0.231598 
vt 0.760217 0.231598 
vt 0.193046 0.815084 
vt 0.193949 0.814532 
vt 0.193046 0.814906 
vt 0.192143 0.814532 
vt 0.194075 0.814658 
vt 0.194323 0.81363 
vt 0.194501 0.81363 
vt 0.192017 0.814658 
vt 0.19177 0.81363 
vt 0.191591 0.81363 
vt 0.192017 0.812601 
vt 0.19177 0.81363 
vt 0.192143 0.812727 
vt 0.191591 0.81363 
vt 0.193046 0.812175 
vt 0.193046 0.812353 
vt 0.193949 0.812727 
vt 0.194075 0.812601 
vt 0.194323 0.81363 
vt 0.194501 0.81363 
vt 0.761405 0.233988 
vt 0.763095 0.233288 
vt 0.761405 0.232787 
vt 0.759715 0.233288 
vt 0.762246 0.232439 
vt 0.763795 0.231598 
vt 0.762594 0.231598 
vt 0.760565 0.232439 
vt 0.759015 0.231598 
vt 0.760217 0.231598 
vt 0.762594 0.231598 
vt 0.763795 0.231598 
vt 0.762246 0.230758 
vt 0.763095 0.229909 
vt 0.761405 0.23041 
vt 0.761405 0.229208 
vt 0.759715 0.229909 
vt 0.760565 0.230758 
vt 0.759015 0.231598 
vt 0.760217 0.231598 
vt 0.759015 0.231598 
vt 0.759715 0.229909 
vt 0.759015 0.231598 
vt 0.759715 0.229909 
vt 0.761405 0.229208 
vt 0.761405 0.229208 
vt 0.763095 0.229909 
vt 0.763095 0.229909 
vt 0.759715 0.233288 
vt 0.759715 0.233288 
vt 0.759015 0.231598 
vt 0.759015 0.231598 
vt 0.759015 0.231598 
vt 0.759715 0.229909 
vt 0.759715 0.229909 
vt 0.759015 0.231598 
vt 0.763095 0.233288 
vt 0.763795 0.231598 
vt 0.763095 0.233288 
vt 0.763795 0.231598 
vt 0.763795 0.231598 
vt 0.763095 0.229909 
vt 0.763795 0.231598 
vt 0.763095 0.229909 
vt 0.761405 0.233988 
vt 0.761405 0.233988 
vt 0.759715 0.233288 
vt 0.759715 0.233288 
vt 0.763795 0.231598 
vt 0.763095 0.233288 
vt 0.763795 0.231598 
vt 0.763095 0.233288 
vt 0.763095 0.233288 
vt 0.761405 0.233988 
vt 0.763095 0.233288 
vt 0.761405 0.233988 
vt 0.193046 0.812353 
vt 0.192143 0.812727 
vt 0.192143 0.812727 
vt 0.193046 0.812353 
vt 0.194323 0.81363 
vt 0.193949 0.814532 
vt 0.194323 0.81363 
vt 0.193949 0.814532 
vt 0.192143 0.814532 
vt 0.193046 0.814906 
vt 0.193046 0.815084 
vt 0.192017 0.814658 
vt 0.191591 0.81363 
vt 0.19177 0.81363 
vt 0.194075 0.814658 
vt 0.193949 0.814532 
vt 0.194323 0.81363 
vt 0.194501 0.81363 
vt 0.193949 0.812727 
vt 0.194501 0.81363 
vt 0.194323 0.81363 
vt 0.194075 0.812601 
vt 0.193046 0.812175 
vt 0.193046 0.812353 
vt 0.192143 0.812727 
vt 0.192017 0.812601 
vt 0.19177 0.81363 
vt 0.191591 0.81363 
vt 0.759715 0.233288 
vt 0.760565 0.232439 
vt 0.761405 0.233988 
vt 0.759015 0.231598 
vt 0.760217 0.231598 
vt 0.761405 0.232787 
vt 0.763095 0.233288 
vt 0.762246 0.232439 
vt 0.762594 0.231598 
vt 0.763795 0.231598 
vt 0.763095 0.229909 
vt 0.762594 0.231598 
vt 0.762246 0.230758 
vt 0.763795 0.231598 
vt 0.761405 0.229208 
vt 0.761405 0.23041 
vt 0.759715 0.229909 
vt 0.760565 0.230758 
vt 0.760217 0.231598 
vt 0.759015 0.231598 
vt 0.763095 0.233288 
vt 0.763795 0.231598 
vt 0.763095 0.233288 
vt 0.763795 0.231598 
vt 0.761405 0.229208 
vt 0.759715 0.229909 
vt 0.761405 0.229208 
vt 0.759715 0.229909 
vt 0.193046 0.814906 
vt 0.193046 0.814906 
vt 0.193949 0.814532 
vt 0.193949 0.814532 
vt 0.193949 0.814532 
vt 0.194323 0.81363 
vt 0.193949 0.814532 
vt 0.194323 0.81363 
vt 0.192143 0.814532 
vt 0.193046 0.814906 
vt 0.192143 0.814532 
vt 0.193046 0.814906 
vt 0.194323 0.81363 
vt 0.193949 0.812727 
vt 0.194323 0.81363 
vt 0.193949 0.812727 
vt 0.194323 0.81363 
vt 0.193949 0.814532 
vt 0.194323 0.81363 
vt 0.193949 0.814532 
vt 0.19177 0.81363 
vt 0.192143 0.812727 
vt 0.19177 0.81363 
vt 0.192143 0.812727 
vt 0.192143 0.814532 
vt 0.19177 0.81363 
vt 0.192143 0.814532 
vt 0.19177 0.81363 
vt 0.193949 0.812727 
vt 0.193949 0.812727 
vt 0.193046 0.812353 
vt 0.193046 0.812353 
vt 0.192143 0.812727 
vt 0.192143 0.812727 
vt 0.19177 0.81363 
vt 0.19177 0.81363 
vt 0.193046 0.812353 
vt 0.192143 0.812727 
vt 0.193046 0.812353 
vt 0.192143 0.812727 
vt 0.759715 0.233288 
vt 0.759015 0.231598 
vt 0.759015 0.231598 
vt 0.759715 0.233288 
vt 0.763095 0.229909 
vt 0.763795 0.231598 
vt 0.763795 0.231598 
vt 0.763095 0.229909 
vt 0.761405 0.233988 
vt 0.763095 0.233288 
vt 0.761405 0.233988 
vt 0.763095 0.233288 
vt 0.763095 0.229909 
vt 0.761405 0.229208 
vt 0.763095 0.229909 
vt 0.761405 0.229208 
vt 0.19177 0.81363 
vt 0.192143 0.812727 
vt 0.19177 0.81363 
vt 0.192143 0.812727 
vt 0.193046 0.814906 
vt 0.193949 0.814532 
vt 0.193949 0.814532 
vt 0.193046 0.814906 
vt 0.761405 0.233988 
vt 0.759715 0.233288 
vt 0.759715 0.233288 
vt 0.761405 0.233988 
vt 0.193949 0.812727 
vt 0.194323 0.81363 
vt 0.193949 0.812727 
vt 0.194323 0.81363 
vt 0.192143 0.814532 
vt 0.19177 0.81363 
vt 0.192143 0.814532 
vt 0.19177 0.81363 
vt 0.193046 0.812353 
vt 0.192143 0.812727 
vt 0.192143 0.812727 
vt 0.193046 0.812353 
vt 0.192143 0.814532 
vt 0.193046 0.814906 
vt 0.193046 0.814906 
vt 0.192143 0.814532 
vt 0.193949 0.812727 
vt 0.193046 0.812353 
vt 0.193046 0.812353 
vt 0.193949 0.812727 

usemtl Bandages1Mtl

f 1/1/1 2/2/2 3/3/3 
f 2/2/2 1/1/1 4/4/4 
f 5/5/5 6/6/6 7/7/7 
f 6/6/6 5/5/5 8/8/8 
f 9/9/9 10/10/10 11/11/11 
f 10/10/10 9/9/9 12/12/12 
f 13/13/13 14/14/14 15/15/15 
f 14/14/14 13/13/13 16/16/16 
f 17/17/17 18/18/18 19/19/19 
f 18/18/18 17/17/17 20/20/20 
f 21/21/21 22/22/22 23/23/23 
f 23/23/23 24/24/24 21/21/21 
f 22/22/22 21/21/21 25/25/25 
f 25/25/25 26/26/26 22/22/22 
f 26/26/26 25/25/25 27/27/27 
f 28/28/28 21/21/21 24/24/24 
f 29/29/29 28/28/28 24/24/24 
f 24/24/24 30/30/30 29/29/29 
f 31/31/31 32/32/32 33/33/33 
f 34/34/34 31/31/31 33/33/33 
f 32/32/32 31/31/31 35/35/35 
f 35/35/35 36/36/36 32/32/32 
f 36/36/36 35/35/35 37/37/37 
f 31/31/31 34/34/34 38/38/38 
f 39/39/39 38/38/38 34/34/34 
f 38/38/38 39/39/39 40/40/40 
f 41/41/41 42/42/42 43/43/43 
f 43/43/43 42/42/42 44/44/44 
f 42/42/42 45/45/45 44/44/44 
f 45/45/45 42/42/42 46/46/46 
f 41/41/41 43/43/43 47/47/47 
f 47/47/47 48/48/48 41/41/41 
f 48/48/48 47/47/47 49/49/49 
f 50/50/50 49/49/49 47/47/47 
f 51/51/51 52/52/52 53/53/53 
f 52/52/52 54/54/54 53/53/53 
f 54/54/54 52/52/52 55/55/55 
f 52/52/52 51/51/51 56/56/56 
f 57/57/57 56/56/56 51/51/51 
f 56/56/56 57/57/57 58/58/58 
f 57/57/57 59/59/59 58/58/58 
f 59/59/59 57/57/57 60/60/60 
f 61/61/61 62/62/62 63/63/63 
f 62/62/62 61/61/61 64/64/64 
f 65/65/65 66/66/66 67/67/67 
f 66/66/66 65/65/65 68/68/68 
f 69/69/69 70/70/70 71/71/71 
f 70/70/70 69/69/69 72/72/72 
f 73/73/73 74/74/74 75/75/75 
f 74/74/74 73/73/73 76/76/76 
f 77/77/77 78/78/78 79/79/79 
f 78/78/78 77/77/77 80/80/80 
f 81/81/81 82/82/82 83/83/83 
f 82/82/82 81/81/81 84/84/84 
f 85/85/85 86/86/86 87/87/87 
f 86/86/86 85/85/85 88/88/88 
f 89/89/89 90/90/90 91/91/91 
f 90/90/90 89/89/89 92/92/92 
f 93/93/93 90/90/90 92/92/92 
f 93/93/93 92/92/92 94/94/94 
f 95/95/95 93/93/93 94/94/94 
f 93/93/93 95/95/95 96/96/96 
f 97/97/97 96/96/96 95/95/95 
f 96/96/96 97/97/97 98/98/98 
f 99/99/99 100/100/100 101/101/101 
f 102/102/102 99/99/99 101/101/101 
f 100/100/100 99/99/99 103/103/103 
f 103/103/103 104/104/104 100/100/100 
f 104/104/104 103/103/103 105/105/105 
f 99/99/99 102/102/102 106/106/106 
f 107/107/107 106/106/106 102/102/102 
f 106/106/106 107/107/107 108/108/108 
f 109/109/109 110/110/110 111/111/111 
f 112/112/112 111/111/111 110/110/110 
f 110/110/110 109/109/109 113/113/113 
f 113/113/113 109/109/109 114/114/114 
f 113/113/113 114/114/114 115/115/115 
f 110/110/110 116/116/116 112/112/112 
f 116/116/116 117/117/117 112/112/112 
f 117/117/117 116/116/116 118/118/118 
f 119/119/119 120/120/120 121/121/121 
f 120/120/120 119/119/119 122/122/122 
f 123/123/123 119/119/119 121/121/121 
f 119/119/119 123/123/123 124/124/124 
f 123/123/123 125/125/125 124/124/124 
f 123/123/123 126/126/126 125/125/125 
f 127/127/127 125/125/125 126/126/126 
f 127/127/127 126/126/126 128/128/128 
f 129/129/129 130/130/130 131/131/131 
f 130/130/130 129/129/129 132/132/132 
f 133/133/133 130/130/130 132/132/132 
f 133/133/133 132/132/132 134/134/134 
f 135/135/135 133/133/133 134/134/134 
f 133/133/133 135/135/135 136/136/136 
f 137/137/137 136/136/136 135/135/135 
f 136/136/136 137/137/137 138/138/138 
f 139/139/139 140/140/140 141/141/141 
f 140/140/140 139/139/139 142/142/142 
f 139/139/139 143/143/143 142/142/142 
f 143/143/143 139/139/139 144/144/144 
f 145/145/145 141/141/141 140/140/140 
f 141/141/141 145/145/145 146/146/146 
f 147/147/147 146/146/146 145/145/145 
f 146/146/146 147/147/147 148/148/148 
f 149/149/149 150/150/150 151/151/151 
f 152/152/152 151/151/151 150/150/150 
f 150/150/150 149/149/149 153/153/153 
f 153/153/153 149/149/149 154/154/154 
f 153/153/153 154/154/154 155/155/155 
f 150/150/150 156/156/156 152/152/152 
f 156/156/156 157/157/157 152/152/152 
f 157/157/157 156/156/156 158/158/158 
f 159/159/159 160/160/160 161/161/161 
f 160/160/160 162/162/162 161/161/161 
f 160/160/160 159/159/159 163/163/163 
f 159/159/159 164/164/164 163/163/163 
f 164/164/164 159/159/159 165/165/165 
f 160/160/160 166/166/166 162/162/162 
f 167/167/167 162/162/162 166/166/166 
f 167/167/167 166/166/166 168/168/168 
f 169/169/169 170/170/170 171/171/171 
f 169/169/169 171/171/171 172/172/172 
f 173/173/173 174/174/174 175/175/175 
f 176/176/176 173/173/173 175/175/175 
f 174/174/174 173/173/173 177/177/177 
f 177/177/177 178/178/178 174/174/174 
f 178/178/178 177/177/177 179/179/179 
f 173/173/173 176/176/176 180/180/180 
f 181/181/181 180/180/180 176/176/176 
f 180/180/180 181/181/181 182/182/182 
f 183/183/183 184/184/184 185/185/185 
f 184/184/184 183/183/183 186/186/186 
f 187/187/187 183/183/183 185/185/185 
f 187/187/187 185/185/185 188/188/188 
f 189/189/189 187/187/187 188/188/188 
f 187/187/187 189/189/189 190/190/190 
f 191/191/191 190/190/190 189/189/189 
f 190/190/190 191/191/191 192/192/192 
f 193/193/193 194/194/194 195/195/195 
f 195/195/195 196/196/196 193/193/193 
f 194/194/194 193/193/193 197/197/197 
f 194/194/194 197/197/197 198/198/198 
f 198/198/198 197/197/197 199/199/199 
f 193/193/193 196/196/196 200/200/200 
f 201/201/201 200/200/200 196/196/196 
f 200/200/200 201/201/201 202/202/202 
f 203/203/203 204/204/204 205/205/205 
f 205/205/205 204/204/204 206/206/206 
f 206/206/206 207/207/207 205/205/205 
f 206/206/206 208/208/208 207/207/207 
f 209/209/209 207/207/207 208/208/208 
f 207/207/207 209/209/209 210/210/210 
f 210/210/210 209/209/209 211/211/211 
f 210/210/210 211/211/211 212/212/212 
f 213/213/213 214/214/214 215/215/215 
f 216/216/216 213/213/213 215/215/215 
f 214/214/214 213/213/213 217/217/217 
f 217/217/217 218/218/218 214/214/214 
f 218/218/218 217/217/217 219/219/219 
f 213/213/213 216/216/216 220/220/220 
f 221/221/221 220/220/220 216/216/216 
f 220/220/220 221/221/221 222/222/222 
f 223/223/223 224/224/224 225/225/225 
f 224/224/224 223/223/223 226/226/226 
f 227/227/227 223/223/223 225/225/225 
f 225/225/225 228/228/228 227/227/227 
f 229/229/229 227/227/227 228/228/228 
f 227/227/227 229/229/229 230/230/230 
f 231/231/231 230/230/230 229/229/229 
f 230/230/230 231/231/231 232/232/232 
f 233/233/233 234/234/234 235/235/235 
f 235/235/235 236/236/236 233/233/233 
f 235/235/235 234/234/234 237/237/237 
f 238/238/238 237/237/237 234/234/234 
f 237/237/237 238/238/238 239/239/239 
f 236/236/236 235/235/235 240/240/240 
f 236/236/236 240/240/240 241/241/241 
f 241/241/241 240/240/240 242/242/242 
f 243/243/243 244/244/244 245/245/245 
f 245/245/245 244/244/244 246/246/246 
f 246/246/246 247/247/247 245/245/245 
f 246/246/246 248/248/248 247/247/247 
f 249/249/249 247/247/247 248/248/248 
f 247/247/247 249/249/249 250/250/250 
f 250/250/250 249/249/249 251/251/251 
f 250/250/250 251/251/251 252/252/252 
f 253/253/253 254/254/254 255/255/255 
f 254/254/254 253/253/253 256/256/256 
f 257/257/257 258/258/258 259/259/259 
f 257/257/257 259/259/259 260/260/260 
f 261/261/261 262/262/262 263/263/263 
f 261/261/261 263/263/263 264/264/264 
f 265/265/265 266/266/266 267/267/267 
f 266/266/266 265/265/265 268/268/268 
f 269/269/269 270/270/270 271/271/271 
f 270/270/270 269/269/269 272/272/272 
f 273/273/273 274/274/274 275/275/275 
f 274/274/274 273/273/273 276/276/276 
f 277/277/277 278/278/278 279/279/279 
f 277/277/277 279/279/279 280/280/280 
f 281/281/281 282/282/282 283/283/283 
f 282/282/282 281/281/281 284/284/284 
f 285/285/285 286/286/286 287/287/287 
f 286/286/286 285/285/285 288/288/288 
f 289/289/289 290/290/290 291/291/291 
f 290/290/290 289/289/289 292/292/292 
f 293/293/293 294/294/294 295/295/295 
f 294/294/294 293/293/293 296/296/296 
f 297/297/297 298/298/298 299/299/299 
f 299/299/299 300/300/300 297/297/297 
f 300/300/300 301/301/301 297/297/297 
f 302/302/302 297/297/297 301/301/301 
f 303/303/303 299/299/299 298/298/298 
f 298/298/298 304/304/304 303/303/303 
f 304/304/304 305/305/305 303/303/303 
f 306/306/306 303/303/303 305/305/305 
f 307/307/307 308/308/308 309/309/309 
f 308/308/308 307/307/307 310/310/310 
f 311/311/311 310/310/310 307/307/307 
f 311/311/311 307/307/307 312/312/312 
f 313/313/313 311/311/311 312/312/312 
f 311/311/311 313/313/313 314/314/314 
f 315/315/315 314/314/314 313/313/313 
f 314/314/314 315/315/315 316/316/316 
f 317/317/317 318/318/318 319/319/319 
f 318/318/318 317/317/317 320/320/320 
f 318/318/318 320/320/320 321/321/321 
f 319/319/319 318/318/318 322/322/322 
f 323/323/323 319/319/319 322/322/322 
f 322/322/322 324/324/324 323/323/323 
f 323/323/323 324/324/324 325/325/325 
f 325/325/325 326/326/326 323/323/323 
f 327/327/327 328/328/328 329/329/329 
f 328/328/328 327/327/327 330/330/330 
f 327/327/327 329/329/329 331/331/331 
f 331/331/331 329/329/329 332/332/332 
f 332/332/332 333/333/333 331/331/331 
f 333/333/333 332/332/332 334/334/334 
f 335/335/335 333/333/333 334/334/334 
f 333/333/333 335/335/335 336/336/336 
f 337/337/337 338/338/338 339/339/339 
f 338/338/338 337/337/337 340/340/340 
f 341/341/341 342/342/342 343/343/343 
f 342/342/342 341/341/341 344/344/344 
f 345/345/345 346/346/346 347/347/347 
f 345/345/345 347/347/347 348/348/348 
f 349/349/349 350/350/350 351/351/351 
f 350/350/350 349/349/349 352/352/352 
f 353/353/353 354/354/354 355/355/355 
f 354/354/354 353/353/353 356/356/356 
f 357/357/357 358/358/358 359/359/359 
f 358/358/358 357/357/357 360/360/360 
f 361/361/361 362/362/362 363/363/363 
f 362/362/362 361/361/361 364/364/364 
f 365/365/365 366/366/366 367/367/367 
f 366/366/366 365/365/365 368/368/368 
f 369/369/369 370/370/370 371/371/371 
f 370/370/370 369/369/369 372/372/372 
f 373/373/373 374/374/374 375/375/375 
f 373/373/373 375/375/375 376/376/376 
f 377/377/377 378/378/378 379/379/379 
f 377/377/377 379/379/379 380/380/380 
f 381/381/381 382/382/382 383/383/383 
f 382/382/382 381/381/381 384/384/384 
f 385/385/385 386/386/386 387/387/387 
f 386/386/386 385/385/385 388/388/388 
f 389/389/389 390/390/390 391/391/391 
f 390/390/390 389/389/389 392/392/392 
f 393/393/393 394/394/394 395/395/395 
f 394/394/394 393/393/393 396/396/396 
f 397/397/397 398/398/398 399/399/399 
f 398/398/398 397/397/397 400/400/400 
f 401/401/401 402/402/402 403/403/403 
f 402/402/402 401/401/401 404/404/404 
f 405/405/405 406/406/406 407/407/407 
f 406/406/406 405/405/405 408/408/408 
f 409/409/409 410/410/410 411/411/411 
f 410/410/410 409/409/409 412/412/412 
f 413/413/413 414/414/414 415/415/415 
f 414/414/414 413/413/413 416/416/416 
f 417/417/417 418/418/418 419/419/419 
f 418/418/418 417/417/417 420/420/420 
f 421/421/421 422/422/422 423/423/423 
f 422/422/422 421/421/421 424/424/424 
f 425/425/425 426/426/426 427/427/427 
f 426/426/426 425/425/425 428/428/428 
f 429/429/429 430/430/430 431/431/431 
f 430/430/430 429/429/429 432/432/432 

