# This file is brought to you by Roblox Corporation
# Generated by Roblox Studio

mtllib Energydrink.mtl

g Energydrinks1

v 0.497134 -0.619205 -0.248488 
v 0.605959 -0.469051 -0.181928 
v 0.593739 -0.476944 -0.144487 
v 0.516962 -0.600107 -0.277737 
v 0.593588 -0.27598 -0.14465 
v 0.593739 -0.476944 -0.144487 
v 0.60582 -0.283915 -0.182078 
v 0.605959 -0.469051 -0.181928 
v -0.301591 0.619121 -0.191185 
v -0.155516 0.619427 -0.275022 
v -0.183006 0.619121 -0.289534 
v -0.292414 0.619427 -0.161485 
v -0.292414 0.619427 -0.161485 
v -0.454986 0.619121 -0.205494 
v -0.469498 0.619427 -0.178004 
v -0.301591 0.619121 -0.191185 
v -0.155516 0.619427 -0.275022 
v -0.138997 0.619427 -0.452106 
v -0.168697 0.619121 -0.442929 
v -0.183006 0.619121 -0.289534 
v -0.583035 0.619427 -0.314902 
v -0.469498 0.619427 -0.178004 
v -0.454986 0.619121 -0.205494 
v -0.553335 0.619121 -0.324079 
v -0.138997 0.619427 -0.452106 
v -0.252534 0.619427 -0.589005 
v -0.267046 0.619121 -0.561514 
v -0.168697 0.619121 -0.442929 
v -0.539026 0.619121 -0.477474 
v -0.583035 0.619427 -0.314902 
v -0.553335 0.619121 -0.324079 
v -0.566516 0.619427 -0.491986 
v -0.267046 0.619121 -0.561514 
v -0.429618 0.619427 -0.605523 
v -0.420441 0.619121 -0.575823 
v -0.252534 0.619427 -0.589005 
v -0.278614 -0.461255 0.613979 
v -0.27522 -0.619205 0.468948 
v -0.178615 -0.476944 0.572949 
v -0.360095 -0.581244 0.52626 
v 0.611886 -0.460089 -0.217056 
v 0.513052 -0.58628 -0.281946 
v 0.531529 -0.578423 -0.303565 
v 0.59654 -0.463336 -0.192068 
v -0.429618 0.619427 -0.605523 
v -0.566516 0.619427 -0.491986 
v -0.539026 0.619121 -0.477474 
v -0.420441 0.619121 -0.575823 
v -0.168697 0.597932 -0.442929 
v -0.553335 0.597932 -0.324079 
v -0.301591 0.597932 -0.191185 
v -0.420441 0.597932 -0.575823 
v -0.183006 0.597932 -0.289534 
v -0.267046 0.597932 -0.561514 
v -0.454986 0.597932 -0.205494 
v -0.539026 0.597932 -0.477474 
v 0.497134 -0.619205 -0.248488 
v 0.360362 -0.619427 -0.395729 
v 0.516962 -0.600107 -0.277737 
v 0.390963 -0.600311 -0.413382 
v -0.426397 0.600315 -0.595099 
v -0.593221 0.499124 -0.506083 
v -0.556868 0.600315 -0.486893 
v -0.438533 0.499124 -0.634374 
v -0.238437 0.499124 -0.615709 
v -0.426397 0.600315 -0.595099 
v -0.257627 0.600315 -0.579356 
v -0.438533 0.499124 -0.634374 
v -0.593221 -0.555031 -0.506083 
v -0.432427 -0.589466 -0.614615 
v -0.574931 -0.589466 -0.496429 
v -0.438533 -0.555031 -0.634374 
v 0.531225 -0.174853 -0.303892 
v 0.531529 -0.578423 -0.303565 
v 0.41776 -0.578607 -0.426042 
v 0.417457 -0.175037 -0.426369 
v 0.61176 -0.292925 -0.217191 
v 0.611886 -0.460089 -0.217056 
v 0.337225 -0.460535 -0.512742 
v 0.337099 -0.293371 -0.512877 
v -0.278741 -0.291752 0.613841 
v -0.178615 -0.476944 0.572949 
v -0.178766 -0.27598 0.572786 
v -0.278614 -0.461255 0.613979 
v 0.611886 -0.460089 -0.217056 
v 0.61176 -0.292925 -0.217191 
v 0.596409 -0.28966 -0.192208 
v 0.59654 -0.463336 -0.192068 
v 0.516962 -0.600107 -0.277737 
v 0.59654 -0.463336 -0.192068 
v 0.605959 -0.469051 -0.181928 
v 0.513052 -0.58628 -0.281946 
v 0.311049 -0.290124 -0.499413 
v 0.390626 -0.153353 -0.413743 
v 0.394537 -0.16718 -0.409534 
v 0.30163 -0.284409 -0.509553 
v 0.390963 -0.600311 -0.413382 
v 0.513052 -0.58628 -0.281946 
v 0.516962 -0.600107 -0.277737 
v 0.394852 -0.586472 -0.409195 
v 0.311179 -0.4638 -0.499272 
v 0.394852 -0.586472 -0.409195 
v 0.390963 -0.600311 -0.413382 
v 0.301769 -0.469545 -0.509403 
v 0.516626 -0.153149 -0.278099 
v 0.596409 -0.28966 -0.192208 
v 0.512737 -0.166988 -0.282286 
v 0.60582 -0.283915 -0.182078 
v 0.311049 -0.290124 -0.499413 
v 0.301769 -0.469545 -0.509403 
v 0.30163 -0.284409 -0.509553 
v 0.311179 -0.4638 -0.499272 
v 0.516626 -0.153149 -0.278099 
v 0.394537 -0.16718 -0.409534 
v 0.390626 -0.153353 -0.413743 
v 0.512737 -0.166988 -0.282286 
v 0.59654 -0.463336 -0.192068 
v 0.596409 -0.28966 -0.192208 
v 0.60582 -0.283915 -0.182078 
v 0.605959 -0.469051 -0.181928 
v -0.438533 -0.555031 -0.634374 
v -0.238437 -0.555031 -0.615709 
v -0.432427 -0.589466 -0.614615 
v -0.248091 -0.589466 -0.59742 
v 0.497134 -0.619205 -0.248488 
v -0.178615 -0.476944 0.572949 
v -0.27522 -0.619205 0.468948 
v 0.593739 -0.476944 -0.144487 
v -0.360095 -0.581244 0.52626 
v -0.411993 -0.619427 0.321706 
v -0.27522 -0.619205 0.468948 
v -0.475455 -0.581431 0.402069 
v 0.531529 -0.578423 -0.303565 
v 0.394852 -0.586472 -0.409195 
v 0.41776 -0.578607 -0.426042 
v 0.513052 -0.58628 -0.281946 
v -0.56169 -0.589466 -0.489439 
v -0.428007 -0.589466 -0.600309 
v -0.425495 -0.617716 -0.59218 
v -0.554166 -0.617716 -0.485467 
v -0.593221 0.499124 -0.506083 
v -0.572611 0.600315 -0.318123 
v -0.556868 0.600315 -0.486893 
v -0.611886 0.499124 -0.305987 
v -0.492615 -0.16214 0.411678 
v -0.57811 -0.288041 0.319637 
v -0.558331 -0.299905 0.340481 
v -0.484273 -0.190847 0.420209 
v -0.611886 -0.555032 -0.305987 
v -0.593221 -0.555031 -0.506083 
v -0.592127 -0.589466 -0.312093 
v -0.574931 -0.589466 -0.496429 
v -0.558331 -0.299905 0.340481 
v -0.577977 -0.465894 0.319781 
v -0.558215 -0.453966 0.340606 
v -0.57811 -0.288041 0.319637 
v -0.371571 -0.161944 0.541986 
v -0.492615 -0.16214 0.411678 
v -0.484273 -0.190847 0.420209 
v -0.379422 -0.190677 0.533085 
v -0.492292 -0.591516 0.412025 
v -0.558215 -0.453966 0.340606 
v -0.577977 -0.465894 0.319781 
v -0.483993 -0.562783 0.42051 
v -0.3052 -0.299494 0.61299 
v -0.371571 -0.161944 0.541986 
v -0.379422 -0.190677 0.533085 
v -0.285887 -0.287566 0.63423 
v -0.255081 -0.589466 -0.584178 
v -0.425495 -0.617716 -0.59218 
v -0.428007 -0.589466 -0.600309 
v -0.259053 -0.617716 -0.576654 
v -0.483993 -0.562783 0.42051 
v -0.371249 -0.59132 0.542334 
v -0.379142 -0.562613 0.533387 
v -0.492292 -0.591516 0.412025 
v -0.285887 -0.287566 0.63423 
v -0.305084 -0.453555 0.613114 
v -0.285753 -0.465419 0.634374 
v -0.3052 -0.299494 0.61299 
v -0.371249 -0.59132 0.542334 
v -0.285753 -0.465419 0.634374 
v -0.305084 -0.453555 0.613114 
v -0.379142 -0.562613 0.533387 
v -0.468469 -0.562783 0.40609 
v -0.363898 -0.190677 0.518665 
v -0.468748 -0.190847 0.405788 
v -0.363618 -0.562613 0.518966 
v -0.542691 -0.453966 0.326186 
v -0.289675 -0.299494 0.598569 
v -0.28956 -0.453555 0.598694 
v -0.542807 -0.299905 0.326061 
v -0.438533 0.499124 -0.634374 
v -0.593221 -0.555031 -0.506083 
v -0.593221 0.499124 -0.506083 
v -0.438533 -0.555031 -0.634374 
v -0.178766 -0.27598 0.572786 
v 0.593739 -0.476944 -0.144487 
v 0.593588 -0.27598 -0.14465 
v -0.178615 -0.476944 0.572949 
v 0.496769 -0.134033 -0.24888 
v 0.60582 -0.283915 -0.182078 
v 0.516626 -0.153149 -0.278099 
v 0.593588 -0.27598 -0.14465 
v -0.149421 0.600315 -0.448885 
v -0.238437 0.499124 -0.615709 
v -0.257627 0.600315 -0.579356 
v -0.110146 0.499124 -0.461021 
v -0.27522 -0.619205 0.468948 
v 0.360362 -0.619427 -0.395729 
v 0.497134 -0.619205 -0.248488 
v -0.411993 -0.619427 0.321706 
v -0.425495 -0.617716 -0.59218 
v -0.569692 -0.617716 -0.319025 
v -0.554166 -0.617716 -0.485467 
v -0.15234 -0.617716 -0.447983 
v -0.259053 -0.617716 -0.576654 
v -0.296537 -0.617716 -0.174828 
v -0.462979 -0.617716 -0.190354 
v -0.167866 -0.617716 -0.281541 
v -0.56169 -0.589466 -0.489439 
v -0.569692 -0.617716 -0.319025 
v -0.577821 -0.589466 -0.316513 
v -0.554166 -0.617716 -0.485467 
v -0.273861 -0.464003 0.618646 
v -0.371249 -0.59132 0.542334 
v -0.357991 -0.587892 0.528076 
v -0.285753 -0.465419 0.634374 
v -0.238437 0.499124 -0.615709 
v -0.438533 -0.555031 -0.634374 
v -0.438533 0.499124 -0.634374 
v -0.238437 -0.555031 -0.615709 
v 0.360362 -0.619427 -0.395729 
v 0.301769 -0.469545 -0.509403 
v 0.390963 -0.600311 -0.413382 
v 0.263542 -0.47748 -0.49996 
v -0.238437 -0.555031 -0.615709 
v -0.129905 -0.589466 -0.454915 
v -0.248091 -0.589466 -0.59742 
v -0.110146 -0.555031 -0.461021 
v -0.294025 -0.589466 -0.166699 
v -0.160342 -0.589466 -0.27757 
v -0.147101 -0.589466 -0.270579 
v -0.289605 -0.589466 -0.152393 
v -0.129905 -0.589466 -0.454915 
v -0.255081 -0.589466 -0.584178 
v -0.248091 -0.589466 -0.59742 
v -0.144211 -0.589466 -0.450495 
v -0.56169 -0.589466 -0.489439 
v -0.592127 -0.589466 -0.312093 
v -0.574931 -0.589466 -0.496429 
v -0.577821 -0.589466 -0.316513 
v -0.466951 -0.589466 -0.18283 
v -0.473941 -0.589466 -0.169589 
v -0.147101 -0.589466 -0.270579 
v -0.144211 -0.589466 -0.450495 
v -0.129905 -0.589466 -0.454915 
v -0.160342 -0.589466 -0.27757 
v -0.432427 -0.589466 -0.614615 
v -0.56169 -0.589466 -0.489439 
v -0.574931 -0.589466 -0.496429 
v -0.428007 -0.589466 -0.600309 
v -0.289605 -0.589466 -0.152393 
v -0.466951 -0.589466 -0.18283 
v -0.294025 -0.589466 -0.166699 
v -0.473941 -0.589466 -0.169589 
v -0.255081 -0.589466 -0.584178 
v -0.428007 -0.589466 -0.600309 
v -0.432427 -0.589466 -0.614615 
v -0.248091 -0.589466 -0.59742 
v -0.593221 0.499124 -0.506083 
v -0.611886 -0.555032 -0.305987 
v -0.611886 0.499124 -0.305987 
v -0.593221 -0.555031 -0.506083 
v -0.360403 -0.172028 0.525928 
v -0.278741 -0.291752 0.613841 
v -0.275585 -0.134033 0.468555 
v -0.178766 -0.27598 0.572786 
v 0.61176 -0.292925 -0.217191 
v 0.531225 -0.174853 -0.303892 
v 0.512737 -0.166988 -0.282286 
v 0.596409 -0.28966 -0.192208 
v -0.285887 -0.287566 0.63423 
v -0.273861 -0.464003 0.618646 
v -0.273992 -0.28899 0.618505 
v -0.285753 -0.465419 0.634374 
v -0.572611 0.600315 -0.318123 
v -0.483595 0.499124 -0.151299 
v -0.464405 0.600315 -0.187652 
v -0.611886 0.499124 -0.305987 
v -0.255081 -0.589466 -0.584178 
v -0.144211 -0.589466 -0.450495 
v -0.15234 -0.617716 -0.447983 
v -0.259053 -0.617716 -0.576654 
v -0.483595 -0.555032 -0.1513 
v -0.592127 -0.589466 -0.312093 
v -0.473941 -0.589466 -0.169589 
v -0.611886 -0.555032 -0.305987 
v -0.566516 0.619427 -0.491986 
v -0.429618 0.619427 -0.605523 
v -0.428523 0.60001 -0.601978 
v -0.563235 0.60001 -0.490254 
v -0.357991 -0.587892 0.528076 
v -0.492292 -0.591516 0.412025 
v -0.477101 -0.588086 0.399848 
v -0.371249 -0.59132 0.542334 
v -0.475455 -0.581431 0.402069 
v -0.557117 -0.461707 0.314156 
v -0.411993 -0.619427 0.321706 
v -0.508812 -0.47748 0.217475 
v 0.337225 -0.460535 -0.512742 
v 0.41776 -0.578607 -0.426042 
v 0.394852 -0.586472 -0.409195 
v 0.311179 -0.4638 -0.499272 
v -0.252534 0.619427 -0.589005 
v -0.428523 0.60001 -0.601978 
v -0.429618 0.619427 -0.605523 
v -0.254266 0.60001 -0.585723 
v -0.110146 0.499124 -0.461021 
v -0.238437 -0.555031 -0.615709 
v -0.238437 0.499124 -0.615709 
v -0.110146 -0.555031 -0.461021 
v 0.359997 -0.134255 -0.396122 
v 0.496769 -0.134033 -0.24888 
v 0.390626 -0.153353 -0.413743 
v 0.516626 -0.153149 -0.278099 
v -0.128811 0.499124 -0.260925 
v -0.149421 0.600315 -0.448885 
v -0.165164 0.600315 -0.280115 
v -0.110146 0.499124 -0.461021 
v -0.466951 -0.589466 -0.18283 
v -0.577821 -0.589466 -0.316513 
v -0.569692 -0.617716 -0.319025 
v -0.462979 -0.617716 -0.190354 
v -0.178766 -0.27598 0.572786 
v 0.496769 -0.134033 -0.24888 
v -0.275585 -0.134033 0.468555 
v 0.593588 -0.27598 -0.14465 
v -0.110146 -0.555031 -0.461021 
v -0.128811 -0.555031 -0.260925 
v -0.129905 -0.589466 -0.454915 
v -0.147101 -0.589466 -0.270579 
v 0.30163 -0.284409 -0.509553 
v 0.263542 -0.47748 -0.49996 
v 0.263391 -0.276516 -0.500123 
v 0.301769 -0.469545 -0.509403 
v -0.566516 0.619427 -0.491986 
v -0.57949 0.60001 -0.315997 
v -0.583035 0.619427 -0.314902 
v -0.563235 0.60001 -0.490254 
v -0.483595 0.499124 -0.151299 
v -0.295635 0.600315 -0.171909 
v -0.464405 0.600315 -0.187652 
v -0.283499 0.499124 -0.132634 
v -0.508812 -0.47748 0.217475 
v 0.263542 -0.47748 -0.49996 
v 0.360362 -0.619427 -0.395729 
v -0.411993 -0.619427 0.321706 
v -0.283499 -0.555032 -0.132634 
v -0.483595 -0.555032 -0.1513 
v -0.289605 -0.589466 -0.152393 
v -0.473941 -0.589466 -0.169589 
v -0.542807 -0.299905 0.326061 
v -0.468748 -0.190847 0.405788 
v -0.484273 -0.190847 0.420209 
v -0.558331 -0.299905 0.340481 
v -0.611886 0.499124 -0.305987 
v -0.483595 -0.555032 -0.1513 
v -0.483595 0.499124 -0.151299 
v -0.611886 -0.555032 -0.305987 
v 0.263391 -0.276516 -0.500123 
v 0.359997 -0.134255 -0.396122 
v 0.30163 -0.284409 -0.509553 
v 0.390626 -0.153353 -0.413743 
v -0.295635 0.600315 -0.171909 
v -0.128811 0.499124 -0.260925 
v -0.165164 0.600315 -0.280115 
v -0.283499 0.499124 -0.132634 
v -0.128811 -0.555031 -0.260925 
v -0.289605 -0.589466 -0.152393 
v -0.147101 -0.589466 -0.270579 
v -0.283499 -0.555032 -0.132634 
v -0.160342 -0.589466 -0.27757 
v -0.15234 -0.617716 -0.447983 
v -0.144211 -0.589466 -0.450495 
v -0.167866 -0.617716 -0.281541 
v -0.475763 -0.172216 0.401738 
v -0.275585 -0.134033 0.468555 
v -0.412357 -0.134255 0.321313 
v -0.360403 -0.172028 0.525928 
v -0.371571 -0.161944 0.541986 
v -0.285887 -0.287566 0.63423 
v -0.273992 -0.28899 0.618505 
v -0.358309 -0.165374 0.527734 
v -0.252534 0.619427 -0.589005 
v -0.138997 0.619427 -0.452106 
v -0.142542 0.60001 -0.451011 
v -0.254266 0.60001 -0.585723 
v 0.417457 -0.175037 -0.426369 
v 0.512737 -0.166988 -0.282286 
v 0.531225 -0.174853 -0.303892 
v 0.394537 -0.16718 -0.409534 
v -0.557244 -0.292205 0.314019 
v -0.508963 -0.276516 0.217313 
v -0.508812 -0.47748 0.217475 
v -0.557117 -0.461707 0.314156 
v -0.183006 0.597932 -0.289534 
v -0.301591 0.619121 -0.191185 
v -0.183006 0.619121 -0.289534 
v -0.301591 0.597932 -0.191185 
v -0.542691 -0.453966 0.326186 
v -0.542807 -0.299905 0.326061 
v -0.558331 -0.299905 0.340481 
v -0.558215 -0.453966 0.340606 
v 0.311049 -0.290124 -0.499413 
v 0.337225 -0.460535 -0.512742 
v 0.311179 -0.4638 -0.499272 
v 0.337099 -0.293371 -0.512877 
v -0.466951 -0.589466 -0.18283 
v -0.296537 -0.617716 -0.174828 
v -0.294025 -0.589466 -0.166699 
v -0.462979 -0.617716 -0.190354 
v -0.492292 -0.591516 0.412025 
v -0.561418 -0.46447 0.309077 
v -0.477101 -0.588086 0.399848 
v -0.577977 -0.465894 0.319781 
v -0.128811 0.499124 -0.260925 
v -0.110146 -0.555031 -0.461021 
v -0.110146 0.499124 -0.461021 
v -0.128811 -0.555031 -0.260925 
v -0.363898 -0.190677 0.518665 
v -0.484273 -0.190847 0.420209 
v -0.468748 -0.190847 0.405788 
v -0.379422 -0.190677 0.533085 
v -0.301591 0.597932 -0.191185 
v -0.454986 0.619121 -0.205494 
v -0.301591 0.619121 -0.191185 
v -0.454986 0.597932 -0.205494 
v -0.160342 -0.589466 -0.27757 
v -0.294025 -0.589466 -0.166699 
v -0.296537 -0.617716 -0.174828 
v -0.167866 -0.617716 -0.281541 
v -0.469498 0.619427 -0.178004 
v -0.583035 0.619427 -0.314902 
v -0.57949 0.60001 -0.315997 
v -0.467766 0.60001 -0.181285 
v -0.557244 -0.292205 0.314019 
v -0.412357 -0.134255 0.321313 
v -0.508963 -0.276516 0.217313 
v -0.475763 -0.172216 0.401738 
v 0.337099 -0.293371 -0.512877 
v 0.394537 -0.16718 -0.409534 
v 0.417457 -0.175037 -0.426369 
v 0.311049 -0.290124 -0.499413 
v -0.483595 0.499124 -0.151299 
v -0.283499 -0.555032 -0.132634 
v -0.283499 0.499124 -0.132634 
v -0.483595 -0.555032 -0.1513 
v -0.275585 -0.134033 0.468555 
v 0.359997 -0.134255 -0.396122 
v -0.412357 -0.134255 0.321313 
v 0.496769 -0.134033 -0.24888 
v -0.168697 0.597932 -0.442929 
v -0.183006 0.619121 -0.289534 
v -0.168697 0.619121 -0.442929 
v -0.183006 0.597932 -0.289534 
v -0.508963 -0.276516 0.217313 
v 0.263391 -0.276516 -0.500123 
v 0.263542 -0.47748 -0.49996 
v -0.508812 -0.47748 0.217475 
v -0.283499 0.499124 -0.132634 
v -0.128811 -0.555031 -0.260925 
v -0.128811 0.499124 -0.260925 
v -0.283499 -0.555032 -0.132634 
v -0.155516 0.619427 -0.275022 
v -0.142542 0.60001 -0.451011 
v -0.138997 0.619427 -0.452106 
v -0.158797 0.60001 -0.276754 
v -0.454986 0.597932 -0.205494 
v -0.553335 0.619121 -0.324079 
v -0.454986 0.619121 -0.205494 
v -0.553335 0.597932 -0.324079 
v -0.371571 -0.161944 0.541986 
v -0.477419 -0.165567 0.399506 
v -0.492615 -0.16214 0.411678 
v -0.358309 -0.165374 0.527734 
v -0.412357 -0.134255 0.321313 
v 0.263391 -0.276516 -0.500123 
v -0.508963 -0.276516 0.217313 
v 0.359997 -0.134255 -0.396122 
v -0.542691 -0.453966 0.326186 
v -0.483993 -0.562783 0.42051 
v -0.468469 -0.562783 0.40609 
v -0.558215 -0.453966 0.340606 
v -0.469498 0.619427 -0.178004 
v -0.293509 0.60001 -0.16503 
v -0.292414 0.619427 -0.161485 
v -0.467766 0.60001 -0.181285 
v -0.57811 -0.288041 0.319637 
v -0.561418 -0.46447 0.309077 
v -0.577977 -0.465894 0.319781 
v -0.561549 -0.289457 0.308936 
v -0.155516 0.619427 -0.275022 
v -0.292414 0.619427 -0.161485 
v -0.293509 0.60001 -0.16503 
v -0.158797 0.60001 -0.276754 
v -0.363898 -0.190677 0.518665 
v -0.289675 -0.299494 0.598569 
v -0.3052 -0.299494 0.61299 
v -0.379422 -0.190677 0.533085 
v -0.168697 0.619121 -0.442929 
v -0.267046 0.619121 -0.561514 
v -0.267046 0.597932 -0.561514 
v -0.168697 0.597932 -0.442929 
v -0.492615 -0.16214 0.411678 
v -0.561549 -0.289457 0.308936 
v -0.57811 -0.288041 0.319637 
v -0.477419 -0.165567 0.399506 
v -0.539026 0.619121 -0.477474 
v -0.553335 0.619121 -0.324079 
v -0.553335 0.597932 -0.324079 
v -0.539026 0.597932 -0.477474 
v -0.267046 0.619121 -0.561514 
v -0.420441 0.619121 -0.575823 
v -0.420441 0.597932 -0.575823 
v -0.267046 0.597932 -0.561514 
v -0.468469 -0.562783 0.40609 
v -0.379142 -0.562613 0.533387 
v -0.363618 -0.562613 0.518966 
v -0.483993 -0.562783 0.42051 
v -0.3052 -0.299494 0.61299 
v -0.28956 -0.453555 0.598694 
v -0.305084 -0.453555 0.613114 
v -0.289675 -0.299494 0.598569 
v -0.539026 0.597932 -0.477474 
v -0.420441 0.619121 -0.575823 
v -0.539026 0.619121 -0.477474 
v -0.420441 0.597932 -0.575823 
v -0.557244 -0.292205 0.314019 
v -0.477419 -0.165567 0.399506 
v -0.475763 -0.172216 0.401738 
v -0.561549 -0.289457 0.308936 
v -0.561418 -0.46447 0.309077 
v -0.561549 -0.289457 0.308936 
v -0.557244 -0.292205 0.314019 
v -0.557117 -0.461707 0.314156 
v -0.477419 -0.165567 0.399506 
v -0.358309 -0.165374 0.527734 
v -0.360403 -0.172028 0.525928 
v -0.475763 -0.172216 0.401738 
v -0.477101 -0.588086 0.399848 
v -0.561418 -0.46447 0.309077 
v -0.557117 -0.461707 0.314156 
v -0.475455 -0.581431 0.402069 
v -0.358309 -0.165374 0.527734 
v -0.273992 -0.28899 0.618505 
v -0.278741 -0.291752 0.613841 
v -0.360403 -0.172028 0.525928 
v -0.28956 -0.453555 0.598694 
v -0.363618 -0.562613 0.518966 
v -0.379142 -0.562613 0.533387 
v -0.305084 -0.453555 0.613114 
v -0.360095 -0.581244 0.52626 
v -0.477101 -0.588086 0.399848 
v -0.475455 -0.581431 0.402069 
v -0.357991 -0.587892 0.528076 
v -0.273992 -0.28899 0.618505 
v -0.278614 -0.461255 0.613979 
v -0.278741 -0.291752 0.613841 
v -0.273861 -0.464003 0.618646 
v -0.357991 -0.587892 0.528076 
v -0.278614 -0.461255 0.613979 
v -0.273861 -0.464003 0.618646 
v -0.360095 -0.581244 0.52626 
v -0.158797 0.60001 -0.276754 
v -0.293509 0.60001 -0.16503 
v -0.295635 0.600315 -0.171909 
v -0.165164 0.600315 -0.280115 
v -0.293509 0.60001 -0.16503 
v -0.467766 0.60001 -0.181285 
v -0.464405 0.600315 -0.187652 
v -0.295635 0.600315 -0.171909 
v -0.149421 0.600315 -0.448885 
v -0.158797 0.60001 -0.276754 
v -0.165164 0.600315 -0.280115 
v -0.142542 0.60001 -0.451011 
v -0.464405 0.600315 -0.187652 
v -0.57949 0.60001 -0.315997 
v -0.572611 0.600315 -0.318123 
v -0.467766 0.60001 -0.181285 
v -0.142542 0.60001 -0.451011 
v -0.257627 0.600315 -0.579356 
v -0.254266 0.60001 -0.585723 
v -0.149421 0.600315 -0.448885 
v -0.57949 0.60001 -0.315997 
v -0.563235 0.60001 -0.490254 
v -0.556868 0.600315 -0.486893 
v -0.572611 0.600315 -0.318123 
v -0.428523 0.60001 -0.601978 
v -0.254266 0.60001 -0.585723 
v -0.257627 0.600315 -0.579356 
v -0.426397 0.600315 -0.595099 
v -0.428523 0.60001 -0.601978 
v -0.556868 0.600315 -0.486893 
v -0.563235 0.60001 -0.490254 
v -0.426397 0.600315 -0.595099 

vn 0.779528 -0.614173 0.125984 
vn 0.779528 -0.614173 0.125984 
vn 0.779528 -0.614173 0.125984 
vn 0.779528 -0.614173 0.125984 
vn 0.952756 0 0.307087 
vn 0.952756 0 0.307087 
vn 0.952756 0 0.307087 
vn 0.952756 0 0.307087 
vn -0.00787402 1 -0.00787402 
vn -0.00787402 1 -0.00787402 
vn -0.00787402 1 -0.00787402 
vn -0.00787402 1 -0.00787402 
vn 0 1 -0.00787402 
vn 0 1 -0.00787402 
vn 0 1 -0.00787402 
vn 0 1 -0.00787402 
vn -0.00787402 1 0 
vn -0.00787402 1 0 
vn -0.00787402 1 0 
vn -0.00787402 1 0 
vn 0.00787402 1 -0.00787402 
vn 0.00787402 1 -0.00787402 
vn 0.00787402 1 -0.00787402 
vn 0.00787402 1 -0.00787402 
vn -0.00787402 1 0.00787402 
vn -0.00787402 1 0.00787402 
vn -0.00787402 1 0.00787402 
vn -0.00787402 1 0.00787402 
vn 0.00787402 1 0 
vn 0.00787402 1 0 
vn 0.00787402 1 0 
vn 0.00787402 1 0 
vn 0 1 0.00787402 
vn 0 1 0.00787402 
vn 0 1 0.00787402 
vn 0 1 0.00787402 
vn 0.19685 -0.661417 0.724409 
vn 0.19685 -0.661417 0.724409 
vn 0.19685 -0.661417 0.724409 
vn 0.19685 -0.661417 0.724409 
vn 0.661417 -0.677165 0.314961 
vn 0.661417 -0.677165 0.314961 
vn 0.661417 -0.677165 0.314961 
vn 0.661417 -0.677165 0.314961 
vn 0.00787402 1 0.00787402 
vn 0.00787402 1 0.00787402 
vn 0.00787402 1 0.00787402 
vn 0.00787402 1 0.00787402 
vn 0 1 0 
vn 0 1 0 
vn 0 1 0 
vn 0 1 0 
vn 0 1 0 
vn 0 1 0 
vn 0 1 0 
vn 0 1 0 
vn 0.354331 -0.874016 -0.330709 
vn 0.354331 -0.874016 -0.330709 
vn 0.354331 -0.874016 -0.330709 
vn 0.354331 -0.874016 -0.330709 
vn -0.598425 0.354331 -0.724409 
vn -0.598425 0.354331 -0.724409 
vn -0.598425 0.354331 -0.724409 
vn -0.598425 0.354331 -0.724409 
vn 0.0866142 0.354331 -0.929134 
vn 0.0866142 0.354331 -0.929134 
vn 0.0866142 0.354331 -0.929134 
vn 0.0866142 0.354331 -0.929134 
vn -0.559055 -0.488189 -0.677165 
vn -0.559055 -0.488189 -0.677165 
vn -0.559055 -0.488189 -0.677165 
vn -0.559055 -0.488189 -0.677165 
vn 0.732283 0 -0.677165 
vn 0.732283 0 -0.677165 
vn 0.732283 0 -0.677165 
vn 0.732283 0 -0.677165 
vn 0.732283 0 -0.677165 
vn 0.732283 0 -0.677165 
vn 0.732283 0 -0.677165 
vn 0.732283 0 -0.677165 
vn 0.377953 0 0.92126 
vn 0.377953 0 0.92126 
vn 0.377953 0 0.92126 
vn 0.377953 0 0.92126 
vn 0.850394 0 0.527559 
vn 0.850394 0 0.527559 
vn 0.850394 0 0.527559 
vn 0.850394 0 0.527559 
vn 0.732283 0 -0.677165 
vn 0.732283 0 -0.677165 
vn 0.732283 0 -0.677165 
vn 0.732283 0 -0.677165 
vn 0.732283 0 -0.677165 
vn 0.732283 0 -0.677165 
vn 0.732283 0 -0.677165 
vn 0.732283 0 -0.677165 
vn 0.732283 0 -0.677165 
vn 0.732283 0 -0.677165 
vn 0.732283 0 -0.677165 
vn 0.732283 0 -0.677165 
vn 0.732283 0 -0.677165 
vn 0.732283 0 -0.677165 
vn 0.732283 0 -0.677165 
vn 0.732283 0 -0.677165 
vn 0.732283 0 -0.677165 
vn 0.732283 0 -0.677165 
vn 0.732283 0 -0.677165 
vn 0.732283 0 -0.677165 
vn 0.732283 0 -0.677165 
vn 0.732283 0 -0.677165 
vn 0.732283 0 -0.677165 
vn 0.732283 0 -0.677165 
vn 0.732283 0 -0.677165 
vn 0.732283 0 -0.677165 
vn 0.732283 0 -0.677165 
vn 0.732283 0 -0.677165 
vn 0.732283 0 -0.677165 
vn 0.732283 0 -0.677165 
vn 0.732283 0 -0.677165 
vn 0.732283 0 -0.677165 
vn 0.0787402 -0.488189 -0.874016 
vn 0.0787402 -0.488189 -0.874016 
vn 0.0787402 -0.488189 -0.874016 
vn 0.0787402 -0.488189 -0.874016 
vn 0.480315 -0.708661 0.519685 
vn 0.480315 -0.708661 0.519685 
vn 0.480315 -0.708661 0.519685 
vn 0.480315 -0.708661 0.519685 
vn -0.259843 -0.937008 0.244094 
vn -0.259843 -0.937008 0.244094 
vn -0.259843 -0.937008 0.244094 
vn -0.259843 -0.937008 0.244094 
vn 0.19685 -0.96063 -0.181102 
vn 0.19685 -0.96063 -0.181102 
vn 0.19685 -0.96063 -0.181102 
vn 0.19685 -0.96063 -0.181102 
vn -0.614173 -0.267717 -0.740157 
vn -0.614173 -0.267717 -0.740157 
vn -0.614173 -0.267717 -0.740157 
vn -0.614173 -0.267717 -0.740157 
vn -0.929134 0.354331 -0.0866142 
vn -0.929134 0.354331 -0.0866142 
vn -0.929134 0.354331 -0.0866142 
vn -0.929134 0.354331 -0.0866142 
vn -0.724409 -0.00787402 0.685039 
vn -0.724409 -0.00787402 0.685039 
vn -0.724409 -0.00787402 0.685039 
vn -0.724409 -0.00787402 0.685039 
vn -0.874016 -0.488189 -0.0787402 
vn -0.874016 -0.488189 -0.0787402 
vn -0.874016 -0.488189 -0.0787402 
vn -0.874016 -0.488189 -0.0787402 
vn -0.724409 0 0.685039 
vn -0.724409 0 0.685039 
vn -0.724409 0 0.685039 
vn -0.724409 0 0.685039 
vn -0.732283 -0.00787402 0.677165 
vn -0.732283 -0.00787402 0.677165 
vn -0.732283 -0.00787402 0.677165 
vn -0.732283 -0.00787402 0.677165 
vn -0.724409 0.00787402 0.685039 
vn -0.724409 0.00787402 0.685039 
vn -0.724409 0.00787402 0.685039 
vn -0.724409 0.00787402 0.685039 
vn -0.740157 -0.00787402 0.677165 
vn -0.740157 -0.00787402 0.677165 
vn -0.740157 -0.00787402 0.677165 
vn -0.740157 -0.00787402 0.677165 
vn 0.0866142 -0.267717 -0.96063 
vn 0.0866142 -0.267717 -0.96063 
vn 0.0866142 -0.267717 -0.96063 
vn 0.0866142 -0.267717 -0.96063 
vn -0.732283 0.00787402 0.677165 
vn -0.732283 0.00787402 0.677165 
vn -0.732283 0.00787402 0.677165 
vn -0.732283 0.00787402 0.677165 
vn -0.740157 0 0.669291 
vn -0.740157 0 0.669291 
vn -0.740157 0 0.669291 
vn -0.740157 0 0.669291 
vn -0.740157 0.00787402 0.677165 
vn -0.740157 0.00787402 0.677165 
vn -0.740157 0.00787402 0.677165 
vn -0.740157 0.00787402 0.677165 
vn -0.732283 0 0.677165 
vn -0.732283 0 0.677165 
vn -0.732283 0 0.677165 
vn -0.732283 0 0.677165 
vn -0.732283 0 0.677165 
vn -0.732283 0 0.677165 
vn -0.732283 0 0.677165 
vn -0.732283 0 0.677165 
vn -0.637795 0 -0.771654 
vn -0.637795 0 -0.771654 
vn -0.637795 0 -0.771654 
vn -0.637795 0 -0.771654 
vn 0.677165 0 0.732283 
vn 0.677165 0 0.732283 
vn 0.677165 0 0.732283 
vn 0.677165 0 0.732283 
vn 0.779528 0.622047 0.125984 
vn 0.779528 0.622047 0.125984 
vn 0.779528 0.622047 0.125984 
vn 0.779528 0.622047 0.125984 
vn 0.724409 0.354331 -0.598425 
vn 0.724409 0.354331 -0.598425 
vn 0.724409 0.354331 -0.598425 
vn 0.724409 0.354331 -0.598425 
vn 0 -1 0 
vn 0 -1 0 
vn 0 -1 0 
vn 0 -1 0 
vn 0 -1 0 
vn 0 -1 0 
vn 0 -1 0 
vn 0 -1 0 
vn 0 -1 0 
vn 0 -1 0 
vn 0 -1 0 
vn 0 -1 0 
vn -0.96063 -0.267717 -0.0866142 
vn -0.96063 -0.267717 -0.0866142 
vn -0.96063 -0.267717 -0.0866142 
vn -0.96063 -0.267717 -0.0866142 
vn 0.598425 -0.692913 0.393701 
vn 0.598425 -0.692913 0.393701 
vn 0.598425 -0.692913 0.393701 
vn 0.598425 -0.692913 0.393701 
vn 0.0944882 0 -0.992126 
vn 0.0944882 0 -0.992126 
vn 0.0944882 0 -0.992126 
vn 0.0944882 0 -0.992126 
vn -0.0629921 -0.622047 -0.779528 
vn -0.0629921 -0.622047 -0.779528 
vn -0.0629921 -0.622047 -0.779528 
vn -0.0629921 -0.622047 -0.779528 
vn 0.669291 -0.488189 -0.559055 
vn 0.669291 -0.488189 -0.559055 
vn 0.669291 -0.488189 -0.559055 
vn 0.669291 -0.488189 -0.559055 
vn 0 -1 0 
vn 0 -1 0 
vn 0 -1 0 
vn 0 -1 0 
vn 0 -1 0 
vn 0 -1 0 
vn 0 -1 0 
vn 0 -1 0 
vn 0 -1 0 
vn 0 -1 0 
vn 0 -1 0 
vn 0 -1 0 
vn 0 -1 0 
vn 0 -1 0 
vn 0 -1 0 
vn 0 -1 0 
vn 0 -1 0 
vn 0 -1 0 
vn 0 -1 0 
vn 0 -1 0 
vn 0 -1 0 
vn 0 -1 0 
vn 0 -1 0 
vn 0 -1 0 
vn 0 -1 0 
vn 0 -1 0 
vn 0 -1 0 
vn 0 -1 0 
vn 0 -1 0 
vn 0 -1 0 
vn -0.992126 0 -0.0944882 
vn -0.992126 0 -0.0944882 
vn -0.992126 0 -0.0944882 
vn -0.992126 0 -0.0944882 
vn 0.188976 0.661417 0.724409 
vn 0.188976 0.661417 0.724409 
vn 0.188976 0.661417 0.724409 
vn 0.188976 0.661417 0.724409 
vn 0.661417 0.685039 0.314961 
vn 0.661417 0.685039 0.314961 
vn 0.661417 0.685039 0.314961 
vn 0.661417 0.685039 0.314961 
vn 0.795276 0 0.606299 
vn 0.795276 0 0.606299 
vn 0.795276 0 0.606299 
vn 0.795276 0 0.606299 
vn -0.724409 0.354331 0.598425 
vn -0.724409 0.354331 0.598425 
vn -0.724409 0.354331 0.598425 
vn -0.724409 0.354331 0.598425 
vn 0.740157 -0.267717 -0.614173 
vn 0.740157 -0.267717 -0.614173 
vn 0.740157 -0.267717 -0.614173 
vn 0.740157 -0.267717 -0.614173 
vn -0.677165 -0.488189 0.559055 
vn -0.677165 -0.488189 0.559055 
vn -0.677165 -0.488189 0.559055 
vn -0.677165 -0.488189 0.559055 
vn -0.629921 -0.173228 -0.755906 
vn -0.629921 -0.173228 -0.755906 
vn -0.629921 -0.173228 -0.755906 
vn -0.629921 -0.173228 -0.755906 
vn 0.125984 -0.984252 -0.11811 
vn 0.125984 -0.984252 -0.11811 
vn 0.125984 -0.984252 -0.11811 
vn 0.125984 -0.984252 -0.11811 
vn -0.708661 -0.661417 -0.244094 
vn -0.708661 -0.661417 -0.244094 
vn -0.708661 -0.661417 -0.244094 
vn -0.708661 -0.661417 -0.244094 
vn -0.267717 -0.685039 -0.677165 
vn -0.267717 -0.685039 -0.677165 
vn -0.267717 -0.685039 -0.677165 
vn -0.267717 -0.685039 -0.677165 
vn 0.0944882 -0.173228 -0.984252 
vn 0.0944882 -0.173228 -0.984252 
vn 0.0944882 -0.173228 -0.984252 
vn 0.0944882 -0.173228 -0.984252 
vn 0.771654 0 -0.637795 
vn 0.771654 0 -0.637795 
vn 0.771654 0 -0.637795 
vn 0.771654 0 -0.637795 
vn 0.354331 0.874016 -0.330709 
vn 0.354331 0.874016 -0.330709 
vn 0.354331 0.874016 -0.330709 
vn 0.354331 0.874016 -0.330709 
vn 0.929134 0.354331 0.0866142 
vn 0.929134 0.354331 0.0866142 
vn 0.929134 0.354331 0.0866142 
vn 0.929134 0.354331 0.0866142 
vn -0.740157 -0.267717 0.614173 
vn -0.740157 -0.267717 0.614173 
vn -0.740157 -0.267717 0.614173 
vn -0.740157 -0.267717 0.614173 
vn 0.480315 0.708661 0.519685 
vn 0.480315 0.708661 0.519685 
vn 0.480315 0.708661 0.519685 
vn 0.480315 0.708661 0.519685 
vn 0.874016 -0.488189 0.0787402 
vn 0.874016 -0.488189 0.0787402 
vn 0.874016 -0.488189 0.0787402 
vn 0.874016 -0.488189 0.0787402 
vn -0.23622 0 -0.968504 
vn -0.23622 0 -0.968504 
vn -0.23622 0 -0.968504 
vn -0.23622 0 -0.968504 
vn -0.984252 -0.173228 -0.0944882 
vn -0.984252 -0.173228 -0.0944882 
vn -0.984252 -0.173228 -0.0944882 
vn -0.984252 -0.173228 -0.0944882 
vn -0.0866142 0.354331 0.929134 
vn -0.0866142 0.354331 0.929134 
vn -0.0866142 0.354331 0.929134 
vn -0.0866142 0.354331 0.929134 
vn -0.480315 -0.708661 -0.519685 
vn -0.480315 -0.708661 -0.519685 
vn -0.480315 -0.708661 -0.519685 
vn -0.480315 -0.708661 -0.519685 
vn -0.0787402 -0.488189 0.874016 
vn -0.0787402 -0.488189 0.874016 
vn -0.0787402 -0.488189 0.874016 
vn -0.0787402 -0.488189 0.874016 
vn 0.480315 -0.708661 0.519685 
vn 0.480315 -0.708661 0.519685 
vn 0.480315 -0.708661 0.519685 
vn 0.480315 -0.708661 0.519685 
vn -0.771654 0 0.637795 
vn -0.771654 0 0.637795 
vn -0.771654 0 0.637795 
vn -0.771654 0 0.637795 
vn -0.0629921 0.614173 -0.787402 
vn -0.0629921 0.614173 -0.787402 
vn -0.0629921 0.614173 -0.787402 
vn -0.0629921 0.614173 -0.787402 
vn 0.598425 0.354331 0.724409 
vn 0.598425 0.354331 0.724409 
vn 0.598425 0.354331 0.724409 
vn 0.598425 0.354331 0.724409 
vn 0.559055 -0.488189 0.677165 
vn 0.559055 -0.488189 0.677165 
vn 0.559055 -0.488189 0.677165 
vn 0.559055 -0.488189 0.677165 
vn 0.96063 -0.267717 0.0866142 
vn 0.96063 -0.267717 0.0866142 
vn 0.96063 -0.267717 0.0866142 
vn 0.96063 -0.267717 0.0866142 
vn -0.259843 0.937008 0.23622 
vn -0.259843 0.937008 0.23622 
vn -0.259843 0.937008 0.23622 
vn -0.259843 0.937008 0.23622 
vn 0.598425 0.700787 0.393701 
vn 0.598425 0.700787 0.393701 
vn 0.598425 0.700787 0.393701 
vn 0.598425 0.700787 0.393701 
vn 0.755906 -0.173228 -0.629921 
vn 0.755906 -0.173228 -0.629921 
vn 0.755906 -0.173228 -0.629921 
vn 0.755906 -0.173228 -0.629921 
vn 0.19685 0.96063 -0.181102 
vn 0.19685 0.96063 -0.181102 
vn 0.19685 0.96063 -0.181102 
vn 0.19685 0.96063 -0.181102 
vn -0.897638 0 -0.448819 
vn -0.897638 0 -0.448819 
vn -0.897638 0 -0.448819 
vn -0.897638 0 -0.448819 
vn -0.637795 0 -0.771654 
vn -0.637795 0 -0.771654 
vn -0.637795 0 -0.771654 
vn -0.637795 0 -0.771654 
vn 0.677165 0 0.732283 
vn 0.677165 0 0.732283 
vn 0.677165 0 0.732283 
vn 0.677165 0 0.732283 
vn -0.456693 0 -0.889764 
vn -0.456693 0 -0.889764 
vn -0.456693 0 -0.889764 
vn -0.456693 0 -0.889764 
vn -0.0866142 -0.267717 0.96063 
vn -0.0866142 -0.267717 0.96063 
vn -0.0866142 -0.267717 0.96063 
vn -0.0866142 -0.267717 0.96063 
vn -0.346457 -0.700787 -0.629921 
vn -0.346457 -0.700787 -0.629921 
vn -0.346457 -0.700787 -0.629921 
vn -0.346457 -0.700787 -0.629921 
vn 0.992126 0 0.0944882 
vn 0.992126 0 0.0944882 
vn 0.992126 0 0.0944882 
vn 0.992126 0 0.0944882 
vn 0 -1 0 
vn 0 -1 0 
vn 0 -1 0 
vn 0 -1 0 
vn 0.0944882 0 -0.992126 
vn 0.0944882 0 -0.992126 
vn 0.0944882 0 -0.992126 
vn 0.0944882 0 -0.992126 
vn 0.614173 -0.267717 0.740157 
vn 0.614173 -0.267717 0.740157 
vn 0.614173 -0.267717 0.740157 
vn 0.614173 -0.267717 0.740157 
vn -0.755906 -0.173228 0.629921 
vn -0.755906 -0.173228 0.629921 
vn -0.755906 -0.173228 0.629921 
vn -0.755906 -0.173228 0.629921 
vn -0.708661 0.661417 -0.244094 
vn -0.708661 0.661417 -0.244094 
vn -0.708661 0.661417 -0.244094 
vn -0.708661 0.661417 -0.244094 
vn -0.267717 0.677165 -0.685039 
vn -0.267717 0.677165 -0.685039 
vn -0.267717 0.677165 -0.685039 
vn -0.267717 0.677165 -0.685039 
vn -0.0944882 0 0.992126 
vn -0.0944882 0 0.992126 
vn -0.0944882 0 0.992126 
vn -0.0944882 0 0.992126 
vn 0 1 0 
vn 0 1 0 
vn 0 1 0 
vn 0 1 0 
vn -0.992126 0 -0.0944882 
vn -0.992126 0 -0.0944882 
vn -0.992126 0 -0.0944882 
vn -0.992126 0 -0.0944882 
vn -0.677165 0 -0.732283 
vn -0.677165 0 -0.732283 
vn -0.677165 0 -0.732283 
vn -0.677165 0 -0.732283 
vn 0.637795 0 0.771654 
vn 0.637795 0 0.771654 
vn 0.637795 0 0.771654 
vn 0.637795 0 0.771654 
vn 0.984252 -0.173228 0.0944882 
vn 0.984252 -0.173228 0.0944882 
vn 0.984252 -0.173228 0.0944882 
vn 0.984252 -0.173228 0.0944882 
vn 0.771654 0 -0.637795 
vn 0.771654 0 -0.637795 
vn 0.771654 0 -0.637795 
vn 0.771654 0 -0.637795 
vn 0.125984 0.984252 -0.11811 
vn 0.125984 0.984252 -0.11811 
vn 0.125984 0.984252 -0.11811 
vn 0.125984 0.984252 -0.11811 
vn -0.480315 0.708661 -0.519685 
vn -0.480315 0.708661 -0.519685 
vn -0.480315 0.708661 -0.519685 
vn -0.480315 0.708661 -0.519685 
vn 0.480315 0.708661 0.519685 
vn 0.480315 0.708661 0.519685 
vn 0.480315 0.708661 0.519685 
vn 0.480315 0.708661 0.519685 
vn -0.0944882 -0.173228 0.984252 
vn -0.0944882 -0.173228 0.984252 
vn -0.0944882 -0.173228 0.984252 
vn -0.0944882 -0.173228 0.984252 
vn -0.543307 0 -0.84252 
vn -0.543307 0 -0.84252 
vn -0.543307 0 -0.84252 
vn -0.543307 0 -0.84252 
vn 0.629921 -0.173228 0.755906 
vn 0.629921 -0.173228 0.755906 
vn 0.629921 -0.173228 0.755906 
vn 0.629921 -0.173228 0.755906 
vn -0.480315 -0.708661 -0.519685 
vn -0.480315 -0.708661 -0.519685 
vn -0.480315 -0.708661 -0.519685 
vn -0.480315 -0.708661 -0.519685 
vn -0.771654 0 0.637795 
vn -0.771654 0 0.637795 
vn -0.771654 0 0.637795 
vn -0.771654 0 0.637795 
vn -0.346457 0.692913 -0.629921 
vn -0.346457 0.692913 -0.629921 
vn -0.346457 0.692913 -0.629921 
vn -0.346457 0.692913 -0.629921 
vn 0.992126 0 0.0944882 
vn 0.992126 0 0.0944882 
vn 0.992126 0 0.0944882 
vn 0.992126 0 0.0944882 
vn -0.0944882 0 0.992126 
vn -0.0944882 0 0.992126 
vn -0.0944882 0 0.992126 
vn -0.0944882 0 0.992126 
vn 0 1 0 
vn 0 1 0 
vn 0 1 0 
vn 0 1 0 
vn -0.677165 0 -0.732283 
vn -0.677165 0 -0.732283 
vn -0.677165 0 -0.732283 
vn -0.677165 0 -0.732283 
vn 0.637795 0 0.771654 
vn 0.637795 0 0.771654 
vn 0.637795 0 0.771654 
vn 0.637795 0 0.771654 
vn 0.755906 -0.0314961 -0.653543 
vn 0.755906 -0.0314961 -0.653543 
vn 0.755906 -0.0314961 -0.653543 
vn 0.755906 -0.0314961 -0.653543 
vn 0.76378 0 -0.645669 
vn 0.76378 0 -0.645669 
vn 0.76378 0 -0.645669 
vn 0.76378 0 -0.645669 
vn 0.732283 -0.0472441 -0.677165 
vn 0.732283 -0.0472441 -0.677165 
vn 0.732283 -0.0472441 -0.677165 
vn 0.732283 -0.0472441 -0.677165 
vn 0.755906 0.0314961 -0.653543 
vn 0.755906 0.0314961 -0.653543 
vn 0.755906 0.0314961 -0.653543 
vn 0.755906 0.0314961 -0.653543 
vn 0.708661 -0.0314961 -0.700787 
vn 0.708661 -0.0314961 -0.700787 
vn 0.708661 -0.0314961 -0.700787 
vn 0.708661 -0.0314961 -0.700787 
vn -0.480315 0.708661 -0.519685 
vn -0.480315 0.708661 -0.519685 
vn -0.480315 0.708661 -0.519685 
vn -0.480315 0.708661 -0.519685 
vn 0.732283 0.0472441 -0.677165 
vn 0.732283 0.0472441 -0.677165 
vn 0.732283 0.0472441 -0.677165 
vn 0.732283 0.0472441 -0.677165 
vn 0.700787 0 -0.716535 
vn 0.700787 0 -0.716535 
vn 0.700787 0 -0.716535 
vn 0.700787 0 -0.716535 
vn 0.708661 0.0314961 -0.700787 
vn 0.708661 0.0314961 -0.700787 
vn 0.708661 0.0314961 -0.700787 
vn 0.708661 0.0314961 -0.700787 
vn -0.0314961 -1 -0.0314961 
vn -0.0314961 -1 -0.0314961 
vn -0.0314961 -1 -0.0314961 
vn -0.0314961 -1 -0.0314961 
vn 0 -1 -0.0472441 
vn 0 -1 -0.0472441 
vn 0 -1 -0.0472441 
vn 0 -1 -0.0472441 
vn -0.0472441 -1 -0.00787402 
vn -0.0472441 -1 -0.00787402 
vn -0.0472441 -1 -0.00787402 
vn -0.0472441 -1 -0.00787402 
vn 0.0314961 -1 -0.0314961 
vn 0.0314961 -1 -0.0314961 
vn 0.0314961 -1 -0.0314961 
vn 0.0314961 -1 -0.0314961 
vn -0.0314961 -1 0.0314961 
vn -0.0314961 -1 0.0314961 
vn -0.0314961 -1 0.0314961 
vn -0.0314961 -1 0.0314961 
vn 0.0472441 -1 0 
vn 0.0472441 -1 0 
vn 0.0472441 -1 0 
vn 0.0472441 -1 0 
vn -0.00787402 -1 0.0472441 
vn -0.00787402 -1 0.0472441 
vn -0.00787402 -1 0.0472441 
vn -0.00787402 -1 0.0472441 
vn 0.0314961 -1 0.0314961 
vn 0.0314961 -1 0.0314961 
vn 0.0314961 -1 0.0314961 
vn 0.0314961 -1 0.0314961 

vt 0.500567 0.0358421 
vt 0.618244 0.0147169 
vt 0.623068 0.0358416 
vt 0.505391 0.0147173 
vt 0.745579 0.0358427 
vt 0.623077 0.0358416 
vt 0.740755 0.0147178 
vt 0.627902 0.0147169 
vt 0.0731248 0.92258 
vt 0.00860205 0.820587 
vt 0.0308778 0.820587 
vt 0.0573735 0.938332 
vt 0.0573735 0.938332 
vt 0.175118 0.964827 
vt 0.175118 0.987103 
vt 0.0731248 0.92258 
vt 0.00860205 0.820587 
vt 0.0573735 0.702842 
vt 0.0731248 0.718594 
vt 0.0308778 0.820587 
vt 0.292863 0.938332 
vt 0.175118 0.987103 
vt 0.175118 0.964827 
vt 0.277112 0.92258 
vt 0.0573735 0.702842 
vt 0.175118 0.654071 
vt 0.175118 0.676347 
vt 0.0731248 0.718594 
vt 0.319359 0.820587 
vt 0.292863 0.938332 
vt 0.277112 0.92258 
vt 0.341634 0.820587 
vt 0.175118 0.676347 
vt 0.292863 0.702842 
vt 0.277112 0.718594 
vt 0.175118 0.654071 
vt 0.613481 0.632105 
vt 0.500568 0.575376 
vt 0.62307 0.575376 
vt 0.510157 0.632106 
vt 0.425809 0.875344 
vt 0.385505 0.856429 
vt 0.385505 0.858649 
vt 0.427379 0.873773 
vt 0.292863 0.702842 
vt 0.341634 0.820587 
vt 0.319359 0.820587 
vt 0.277112 0.718594 
vt 0.0731248 0.718594 
vt 0.277112 0.92258 
vt 0.0731248 0.92258 
vt 0.277112 0.718594 
vt 0.0308778 0.820587 
vt 0.175118 0.676347 
vt 0.175118 0.964827 
vt 0.319359 0.820587 
vt 0.500567 0.0358427 
vt 0.378065 0.0358426 
vt 0.495743 0.0147179 
vt 0.38289 0.0147178 
vt 0.632661 0.632105 
vt 0.745574 0.575376 
vt 0.735985 0.632106 
vt 0.623073 0.575375 
vt 0.500568 0.575376 
vt 0.613481 0.632105 
vt 0.510157 0.632106 
vt 0.62307 0.575376 
vt 0.745579 0.0358427 
vt 0.627902 0.0147169 
vt 0.740755 0.0147178 
vt 0.623077 0.0358416 
vt 0.425809 0.955951 
vt 0.385505 0.858649 
vt 0.345201 0.875344 
vt 0.385505 0.972646 
vt 0.442504 0.915647 
vt 0.425809 0.875344 
vt 0.328507 0.915647 
vt 0.345201 0.955951 
vt 0.735985 0.632106 
vt 0.623073 0.575375 
vt 0.745574 0.575376 
vt 0.632661 0.632105 
vt 0.425809 0.875344 
vt 0.442504 0.915647 
vt 0.444724 0.915647 
vt 0.427379 0.873773 
vt 0.385505 0.852521 
vt 0.427379 0.873773 
vt 0.430142 0.87101 
vt 0.385505 0.856429 
vt 0.343631 0.957521 
vt 0.385505 0.978774 
vt 0.385505 0.974866 
vt 0.340868 0.960284 
vt 0.340868 0.87101 
vt 0.385505 0.856429 
vt 0.385505 0.852521 
vt 0.343631 0.873773 
vt 0.326286 0.915647 
vt 0.343631 0.873773 
vt 0.340868 0.87101 
vt 0.322379 0.915647 
vt 0.430142 0.960284 
vt 0.444724 0.915647 
vt 0.427379 0.957521 
vt 0.448631 0.915647 
vt 0.343631 0.957521 
vt 0.322379 0.915647 
vt 0.340868 0.960284 
vt 0.326286 0.915647 
vt 0.430142 0.960284 
vt 0.385505 0.974866 
vt 0.385505 0.978774 
vt 0.427379 0.957521 
vt 0.427379 0.873773 
vt 0.444724 0.915647 
vt 0.448631 0.915647 
vt 0.430142 0.87101 
vt 0.623068 0.0358416 
vt 0.500567 0.0358421 
vt 0.618244 0.0147169 
vt 0.505391 0.0147173 
vt 0.500567 0.0358421 
vt 0.62307 0.575376 
vt 0.500568 0.575376 
vt 0.623068 0.0358416 
vt 0.490977 0.632107 
vt 0.378065 0.575377 
vt 0.500566 0.575377 
vt 0.387654 0.632106 
vt 0.385505 0.858649 
vt 0.343631 0.873773 
vt 0.345201 0.875344 
vt 0.385505 0.856429 
vt 0.444724 0.915647 
vt 0.427379 0.873773 
vt 0.425809 0.875344 
vt 0.442504 0.915647 
vt 0.745578 0.575381 
vt 0.858489 0.632113 
vt 0.755166 0.632111 
vt 0.868079 0.575384 
vt 0.175118 0.987103 
vt 0.0573735 0.938332 
vt 0.0731248 0.92258 
vt 0.175118 0.964827 
vt 0.868092 0.0358515 
vt 0.74559 0.0358487 
vt 0.863268 0.0147266 
vt 0.750415 0.0147241 
vt 0.0731248 0.92258 
vt 0.00860205 0.820587 
vt 0.0308778 0.820587 
vt 0.0573735 0.938332 
vt 0.292863 0.938332 
vt 0.175118 0.987103 
vt 0.175118 0.964827 
vt 0.277112 0.92258 
vt 0.0573735 0.702842 
vt 0.0308778 0.820587 
vt 0.00860205 0.820587 
vt 0.0731248 0.718594 
vt 0.319359 0.820587 
vt 0.292863 0.938332 
vt 0.277112 0.92258 
vt 0.341634 0.820587 
vt 0.385505 0.856429 
vt 0.425809 0.875344 
vt 0.427379 0.873773 
vt 0.385505 0.858649 
vt 0.0731248 0.718594 
vt 0.175118 0.654071 
vt 0.175118 0.676347 
vt 0.0573735 0.702842 
vt 0.341634 0.820587 
vt 0.277112 0.718594 
vt 0.292863 0.702842 
vt 0.319359 0.820587 
vt 0.175118 0.654071 
vt 0.292863 0.702842 
vt 0.277112 0.718594 
vt 0.175118 0.676347 
vt 0.0731248 0.718594 
vt 0.277112 0.92258 
vt 0.175118 0.964827 
vt 0.175118 0.676347 
vt 0.0308778 0.820587 
vt 0.319359 0.820587 
vt 0.277112 0.718594 
vt 0.0731248 0.92258 
vt 0.623073 0.575375 
vt 0.745579 0.0358427 
vt 0.745574 0.575376 
vt 0.623077 0.0358416 
vt 0.745574 0.575376 
vt 0.623077 0.0358416 
vt 0.745579 0.0358427 
vt 0.623073 0.575375 
vt 0.868092 0.0358515 
vt 0.750415 0.0147241 
vt 0.863268 0.0147266 
vt 0.74559 0.0358487 
vt 0.387654 0.632106 
vt 0.500566 0.575377 
vt 0.490977 0.632107 
vt 0.378065 0.575377 
vt 0.500566 0.575377 
vt 0.378065 0.0358426 
vt 0.500567 0.0358427 
vt 0.378065 0.575377 
vt 0.425809 0.875344 
vt 0.425809 0.955951 
vt 0.442504 0.915647 
vt 0.345201 0.875344 
vt 0.385505 0.858649 
vt 0.345201 0.955951 
vt 0.385505 0.972646 
vt 0.328507 0.915647 
vt 0.444724 0.915647 
vt 0.425809 0.955951 
vt 0.427379 0.957521 
vt 0.442504 0.915647 
vt 0.290983 0.704723 
vt 0.175118 0.654071 
vt 0.175118 0.65673 
vt 0.292863 0.702842 
vt 0.500568 0.575376 
vt 0.623068 0.0358416 
vt 0.62307 0.575376 
vt 0.500567 0.0358421 
vt 0.378067 0.0358418 
vt 0.26039 0.0147169 
vt 0.373243 0.0147171 
vt 0.255566 0.0358416 
vt 0.500567 0.0358427 
vt 0.38289 0.0147178 
vt 0.495743 0.0147179 
vt 0.378065 0.0358426 
vt 0.343631 0.957521 
vt 0.326286 0.915647 
vt 0.322379 0.915647 
vt 0.340868 0.960284 
vt 0.340868 0.87101 
vt 0.385505 0.856429 
vt 0.385505 0.852521 
vt 0.343631 0.873773 
vt 0.444724 0.915647 
vt 0.430142 0.960284 
vt 0.448631 0.915647 
vt 0.427379 0.957521 
vt 0.385505 0.974866 
vt 0.385505 0.978774 
vt 0.322379 0.915647 
vt 0.343631 0.873773 
vt 0.340868 0.87101 
vt 0.326286 0.915647 
vt 0.430142 0.87101 
vt 0.444724 0.915647 
vt 0.448631 0.915647 
vt 0.427379 0.873773 
vt 0.340868 0.960284 
vt 0.385505 0.974866 
vt 0.343631 0.957521 
vt 0.385505 0.978774 
vt 0.385505 0.856429 
vt 0.427379 0.873773 
vt 0.430142 0.87101 
vt 0.385505 0.852521 
vt 0.745578 0.575381 
vt 0.868092 0.0358515 
vt 0.868079 0.575384 
vt 0.74559 0.0358487 
vt 0.858489 0.632113 
vt 0.755166 0.632111 
vt 0.868079 0.575384 
vt 0.745578 0.575381 
vt 0.442504 0.915647 
vt 0.425809 0.955951 
vt 0.427379 0.957521 
vt 0.444724 0.915647 
vt 0.341634 0.820587 
vt 0.290983 0.704723 
vt 0.338975 0.820587 
vt 0.292863 0.702842 
vt 0.877663 0.632113 
vt 0.990576 0.575384 
vt 0.980987 0.632113 
vt 0.868074 0.575383 
vt 0.385505 0.856429 
vt 0.343631 0.873773 
vt 0.345201 0.875344 
vt 0.385505 0.858649 
vt 0.990576 0.0358493 
vt 0.872898 0.0147246 
vt 0.985752 0.0147245 
vt 0.868074 0.0358493 
vt 0.341634 0.820587 
vt 0.292863 0.702842 
vt 0.290983 0.704723 
vt 0.338975 0.820587 
vt 0.175118 0.65673 
vt 0.0573735 0.702842 
vt 0.0592539 0.704723 
vt 0.175118 0.654071 
vt 0.368477 0.632106 
vt 0.265154 0.632106 
vt 0.378066 0.575376 
vt 0.255565 0.575376 
vt 0.328507 0.915647 
vt 0.345201 0.875344 
vt 0.343631 0.873773 
vt 0.326286 0.915647 
vt 0.175118 0.654071 
vt 0.290983 0.704723 
vt 0.292863 0.702842 
vt 0.175118 0.65673 
vt 0.378065 0.575377 
vt 0.500567 0.0358427 
vt 0.500566 0.575377 
vt 0.378065 0.0358426 
vt 0.990576 0.0358493 
vt 0.868074 0.0358493 
vt 0.985752 0.0147245 
vt 0.872898 0.0147246 
vt 0.255565 0.575376 
vt 0.368477 0.632106 
vt 0.265154 0.632106 
vt 0.378066 0.575376 
vt 0.385505 0.974866 
vt 0.427379 0.957521 
vt 0.425809 0.955951 
vt 0.385505 0.972646 
vt 0.745578 0.575381 
vt 0.868092 0.0358515 
vt 0.868079 0.575384 
vt 0.74559 0.0358487 
vt 0.378067 0.0358418 
vt 0.255566 0.0358416 
vt 0.373243 0.0147171 
vt 0.26039 0.0147169 
vt 0.137882 0.0147169 
vt 0.255559 0.0358416 
vt 0.133057 0.0358416 
vt 0.250735 0.0147169 
vt 0.341634 0.820587 
vt 0.290983 0.936451 
vt 0.292863 0.938332 
vt 0.338975 0.820587 
vt 0.010561 0.575376 
vt 0.123474 0.632106 
vt 0.0201501 0.632106 
vt 0.133063 0.575376 
vt 0.255565 0.575376 
vt 0.255566 0.0358416 
vt 0.378067 0.0358418 
vt 0.378066 0.575376 
vt 0.133063 0.0358416 
vt 0.0105613 0.0358416 
vt 0.128239 0.0147169 
vt 0.0153856 0.0147169 
vt 0.0731248 0.92258 
vt 0.175118 0.964827 
vt 0.175118 0.964827 
vt 0.0731248 0.92258 
vt 0.868074 0.575383 
vt 0.990576 0.0358493 
vt 0.990576 0.575384 
vt 0.868074 0.0358493 
vt 0.133063 0.0358416 
vt 0.0105613 0.0358416 
vt 0.128239 0.0147169 
vt 0.0153856 0.0147169 
vt 0.142646 0.632106 
vt 0.255559 0.575376 
vt 0.24597 0.632106 
vt 0.133057 0.575376 
vt 0.255559 0.0358416 
vt 0.137882 0.0147169 
vt 0.250735 0.0147169 
vt 0.133057 0.0358416 
vt 0.326286 0.915647 
vt 0.345201 0.875344 
vt 0.343631 0.873773 
vt 0.328507 0.915647 
vt 0.980987 0.632113 
vt 0.868074 0.575383 
vt 0.990576 0.575384 
vt 0.877663 0.632113 
vt 0.292863 0.938332 
vt 0.341634 0.820587 
vt 0.338975 0.820587 
vt 0.290983 0.936451 
vt 0.175118 0.654071 
vt 0.0573735 0.702842 
vt 0.0592539 0.704723 
vt 0.175118 0.65673 
vt 0.385505 0.972646 
vt 0.427379 0.957521 
vt 0.425809 0.955951 
vt 0.385505 0.974866 
vt 0.142646 0.632106 
vt 0.133057 0.575376 
vt 0.255559 0.575376 
vt 0.24597 0.632106 
vt 0.0308778 0.820587 
vt 0.0731248 0.92258 
vt 0.0308778 0.820587 
vt 0.0731248 0.92258 
vt 0.0308778 0.820587 
vt 0.0731248 0.92258 
vt 0.0731248 0.92258 
vt 0.0308778 0.820587 
vt 0.343631 0.957521 
vt 0.328507 0.915647 
vt 0.326286 0.915647 
vt 0.345201 0.955951 
vt 0.385505 0.974866 
vt 0.345201 0.955951 
vt 0.343631 0.957521 
vt 0.385505 0.972646 
vt 0.0573735 0.702842 
vt 0.0112613 0.820587 
vt 0.0592539 0.704723 
vt 0.00860205 0.820587 
vt 0.255565 0.575376 
vt 0.378067 0.0358418 
vt 0.378066 0.575376 
vt 0.255566 0.0358416 
vt 0.277112 0.92258 
vt 0.175118 0.964827 
vt 0.175118 0.964827 
vt 0.277112 0.92258 
vt 0.0731248 0.92258 
vt 0.175118 0.964827 
vt 0.0731248 0.92258 
vt 0.175118 0.964827 
vt 0.326286 0.915647 
vt 0.343631 0.957521 
vt 0.345201 0.955951 
vt 0.328507 0.915647 
vt 0.175118 0.987103 
vt 0.292863 0.938332 
vt 0.290983 0.936451 
vt 0.175118 0.984444 
vt 0.123474 0.632106 
vt 0.010561 0.575376 
vt 0.133063 0.575376 
vt 0.0201501 0.632106 
vt 0.345201 0.955951 
vt 0.385505 0.974866 
vt 0.385505 0.972646 
vt 0.343631 0.957521 
vt 0.010561 0.575376 
vt 0.133063 0.0358416 
vt 0.133063 0.575376 
vt 0.0105613 0.0358416 
vt 0.868074 0.575383 
vt 0.990576 0.0358493 
vt 0.990576 0.575384 
vt 0.868074 0.0358493 
vt 0.0731248 0.718594 
vt 0.0308778 0.820587 
vt 0.0731248 0.718594 
vt 0.0308778 0.820587 
vt 0.133057 0.575376 
vt 0.133057 0.0358416 
vt 0.255559 0.0358416 
vt 0.255559 0.575376 
vt 0.133057 0.575376 
vt 0.255559 0.0358416 
vt 0.255559 0.575376 
vt 0.133057 0.0358416 
vt 0.00860205 0.820587 
vt 0.0592539 0.704723 
vt 0.0573735 0.702842 
vt 0.0112613 0.820587 
vt 0.175118 0.964827 
vt 0.277112 0.92258 
vt 0.175118 0.964827 
vt 0.277112 0.92258 
vt 0.292863 0.938332 
vt 0.175118 0.984444 
vt 0.175118 0.987103 
vt 0.290983 0.936451 
vt 0.010561 0.575376 
vt 0.133063 0.0358416 
vt 0.133063 0.575376 
vt 0.0105613 0.0358416 
vt 0.0308778 0.820587 
vt 0.0731248 0.718594 
vt 0.0731248 0.718594 
vt 0.0308778 0.820587 
vt 0.175118 0.987103 
vt 0.0592539 0.936451 
vt 0.0573735 0.938332 
vt 0.175118 0.984444 
vt 0.0573735 0.938332 
vt 0.0112613 0.820587 
vt 0.00860205 0.820587 
vt 0.0592539 0.936451 
vt 0.00860205 0.820587 
vt 0.0573735 0.938332 
vt 0.0592539 0.936451 
vt 0.0112613 0.820587 
vt 0.277112 0.92258 
vt 0.319359 0.820587 
vt 0.319359 0.820587 
vt 0.277112 0.92258 
vt 0.0731248 0.718594 
vt 0.175118 0.676347 
vt 0.175118 0.676347 
vt 0.0731248 0.718594 
vt 0.175118 0.987103 
vt 0.0592539 0.936451 
vt 0.0573735 0.938332 
vt 0.175118 0.984444 
vt 0.319359 0.820587 
vt 0.277112 0.92258 
vt 0.277112 0.92258 
vt 0.319359 0.820587 
vt 0.175118 0.676347 
vt 0.277112 0.718594 
vt 0.277112 0.718594 
vt 0.175118 0.676347 
vt 0.0731248 0.718594 
vt 0.175118 0.676347 
vt 0.175118 0.676347 
vt 0.0731248 0.718594 
vt 0.319359 0.820587 
vt 0.277112 0.718594 
vt 0.277112 0.718594 
vt 0.319359 0.820587 
vt 0.319359 0.820587 
vt 0.277112 0.718594 
vt 0.319359 0.820587 
vt 0.277112 0.718594 
vt 0.0629018 0.932803 
vt 0.175118 0.984444 
vt 0.175118 0.979285 
vt 0.0592539 0.936451 
vt 0.0112613 0.820587 
vt 0.0592539 0.936451 
vt 0.0629018 0.932803 
vt 0.0164202 0.820587 
vt 0.175118 0.984444 
vt 0.290983 0.936451 
vt 0.287335 0.932803 
vt 0.175118 0.979285 
vt 0.0592539 0.704723 
vt 0.0112613 0.820587 
vt 0.0164202 0.820587 
vt 0.0629018 0.708371 
vt 0.290983 0.936451 
vt 0.338975 0.820587 
vt 0.333816 0.820587 
vt 0.287335 0.932803 
vt 0.277112 0.718594 
vt 0.175118 0.676347 
vt 0.175118 0.676347 
vt 0.277112 0.718594 
vt 0.175118 0.661889 
vt 0.0592539 0.704723 
vt 0.0629018 0.708371 
vt 0.175118 0.65673 
vt 0.338975 0.820587 
vt 0.287335 0.708371 
vt 0.333816 0.820587 
vt 0.290983 0.704723 
vt 0.175118 0.65673 
vt 0.287335 0.708371 
vt 0.290983 0.704723 
vt 0.175118 0.661889 
vt 0.0112613 0.820587 
vt 0.0592539 0.936451 
vt 0.0629018 0.932803 
vt 0.0164202 0.820587 
vt 0.0592539 0.936451 
vt 0.175118 0.984444 
vt 0.175118 0.979285 
vt 0.0629018 0.932803 
vt 0.0629018 0.708371 
vt 0.0112613 0.820587 
vt 0.0164202 0.820587 
vt 0.0592539 0.704723 
vt 0.175118 0.979285 
vt 0.290983 0.936451 
vt 0.287335 0.932803 
vt 0.175118 0.984444 
vt 0.0592539 0.704723 
vt 0.175118 0.661889 
vt 0.175118 0.65673 
vt 0.0629018 0.708371 
vt 0.290983 0.936451 
vt 0.338975 0.820587 
vt 0.333816 0.820587 
vt 0.287335 0.932803 
vt 0.290983 0.704723 
vt 0.175118 0.65673 
vt 0.175118 0.661889 
vt 0.287335 0.708371 
vt 0.290983 0.704723 
vt 0.333816 0.820587 
vt 0.338975 0.820587 
vt 0.287335 0.708371 

usemtl Energydrinks1Mtl

f 1/1/1 2/2/2 3/3/3 
f 2/2/2 1/1/1 4/4/4 
f 5/5/5 6/6/6 7/7/7 
f 7/7/7 6/6/6 8/8/8 
f 9/9/9 10/10/10 11/11/11 
f 10/10/10 9/9/9 12/12/12 
f 13/13/13 14/14/14 15/15/15 
f 14/14/14 13/13/13 16/16/16 
f 17/17/17 18/18/18 19/19/19 
f 17/17/17 19/19/19 20/20/20 
f 21/21/21 22/22/22 23/23/23 
f 21/21/21 23/23/23 24/24/24 
f 25/25/25 26/26/26 27/27/27 
f 27/27/27 28/28/28 25/25/25 
f 29/29/29 30/30/30 31/31/31 
f 30/30/30 29/29/29 32/32/32 
f 33/33/33 34/34/34 35/35/35 
f 34/34/34 33/33/33 36/36/36 
f 37/37/37 38/38/38 39/39/39 
f 38/38/38 37/37/37 40/40/40 
f 41/41/41 42/42/42 43/43/43 
f 42/42/42 41/41/41 44/44/44 
f 45/45/45 46/46/46 47/47/47 
f 45/45/45 47/47/47 48/48/48 
f 49/49/49 50/50/50 51/51/51 
f 49/49/49 52/52/52 50/50/50 
f 49/49/49 51/51/51 53/53/53 
f 52/52/52 49/49/49 54/54/54 
f 51/51/51 50/50/50 55/55/55 
f 50/50/50 52/52/52 56/56/56 
f 57/57/57 58/58/58 59/59/59 
f 59/59/59 58/58/58 60/60/60 
f 61/61/61 62/62/62 63/63/63 
f 62/62/62 61/61/61 64/64/64 
f 65/65/65 66/66/66 67/67/67 
f 66/66/66 65/65/65 68/68/68 
f 69/69/69 70/70/70 71/71/71 
f 70/70/70 69/69/69 72/72/72 
f 73/73/73 74/74/74 75/75/75 
f 73/73/73 75/75/75 76/76/76 
f 77/77/77 74/74/74 73/73/73 
f 74/74/74 77/77/77 78/78/78 
f 76/76/76 75/75/75 79/79/79 
f 76/76/76 79/79/79 80/80/80 
f 81/81/81 82/82/82 83/83/83 
f 82/82/82 81/81/81 84/84/84 
f 85/85/85 86/86/86 87/87/87 
f 87/87/87 88/88/88 85/85/85 
f 89/89/89 90/90/90 91/91/91 
f 90/90/90 89/89/89 92/92/92 
f 93/93/93 94/94/94 95/95/95 
f 94/94/94 93/93/93 96/96/96 
f 97/97/97 98/98/98 99/99/99 
f 98/98/98 97/97/97 100/100/100 
f 101/101/101 102/102/102 103/103/103 
f 103/103/103 104/104/104 101/101/101 
f 105/105/105 106/106/106 107/107/107 
f 106/106/106 105/105/105 108/108/108 
f 109/109/109 110/110/110 111/111/111 
f 110/110/110 109/109/109 112/112/112 
f 113/113/113 114/114/114 115/115/115 
f 114/114/114 113/113/113 116/116/116 
f 117/117/117 118/118/118 119/119/119 
f 119/119/119 120/120/120 117/117/117 
f 121/121/121 122/122/122 123/123/123 
f 123/123/123 122/122/122 124/124/124 
f 125/125/125 126/126/126 127/127/127 
f 126/126/126 125/125/125 128/128/128 
f 129/129/129 130/130/130 131/131/131 
f 130/130/130 129/129/129 132/132/132 
f 133/133/133 134/134/134 135/135/135 
f 134/134/134 133/133/133 136/136/136 
f 137/137/137 138/138/138 139/139/139 
f 137/137/137 139/139/139 140/140/140 
f 141/141/141 142/142/142 143/143/143 
f 142/142/142 141/141/141 144/144/144 
f 145/145/145 146/146/146 147/147/147 
f 147/147/147 148/148/148 145/145/145 
f 149/149/149 150/150/150 151/151/151 
f 151/151/151 150/150/150 152/152/152 
f 153/153/153 154/154/154 155/155/155 
f 154/154/154 153/153/153 156/156/156 
f 157/157/157 158/158/158 159/159/159 
f 157/157/157 159/159/159 160/160/160 
f 161/161/161 162/162/162 163/163/163 
f 162/162/162 161/161/161 164/164/164 
f 165/165/165 166/166/166 167/167/167 
f 166/166/166 165/165/165 168/168/168 
f 169/169/169 170/170/170 171/171/171 
f 170/170/170 169/169/169 172/172/172 
f 173/173/173 174/174/174 175/175/175 
f 174/174/174 173/173/173 176/176/176 
f 177/177/177 178/178/178 179/179/179 
f 178/178/178 177/177/177 180/180/180 
f 181/181/181 182/182/182 183/183/183 
f 181/181/181 183/183/183 184/184/184 
f 185/185/185 186/186/186 187/187/187 
f 186/186/186 185/185/185 188/188/188 
f 185/185/185 187/187/187 189/189/189 
f 188/188/188 190/190/190 186/186/186 
f 190/190/190 188/188/188 191/191/191 
f 189/189/189 187/187/187 192/192/192 
f 193/193/193 194/194/194 195/195/195 
f 194/194/194 193/193/193 196/196/196 
f 197/197/197 198/198/198 199/199/199 
f 198/198/198 197/197/197 200/200/200 
f 201/201/201 202/202/202 203/203/203 
f 202/202/202 201/201/201 204/204/204 
f 205/205/205 206/206/206 207/207/207 
f 206/206/206 205/205/205 208/208/208 
f 209/209/209 210/210/210 211/211/211 
f 210/210/210 209/209/209 212/212/212 
f 213/213/213 214/214/214 215/215/215 
f 214/214/214 213/213/213 216/216/216 
f 216/216/216 213/213/213 217/217/217 
f 214/214/214 218/218/218 219/219/219 
f 216/216/216 218/218/218 214/214/214 
f 218/218/218 216/216/216 220/220/220 
f 221/221/221 222/222/222 223/223/223 
f 222/222/222 221/221/221 224/224/224 
f 225/225/225 226/226/226 227/227/227 
f 226/226/226 225/225/225 228/228/228 
f 229/229/229 230/230/230 231/231/231 
f 230/230/230 229/229/229 232/232/232 
f 233/233/233 234/234/234 235/235/235 
f 234/234/234 233/233/233 236/236/236 
f 237/237/237 238/238/238 239/239/239 
f 238/238/238 237/237/237 240/240/240 
f 241/241/241 242/242/242 243/243/243 
f 243/243/243 244/244/244 241/241/241 
f 245/245/245 246/246/246 247/247/247 
f 246/246/246 245/245/245 248/248/248 
f 249/249/249 250/250/250 251/251/251 
f 250/250/250 249/249/249 252/252/252 
f 253/253/253 250/250/250 252/252/252 
f 250/250/250 253/253/253 254/254/254 
f 255/255/255 256/256/256 257/257/257 
f 256/256/256 255/255/255 258/258/258 
f 259/259/259 260/260/260 261/261/261 
f 260/260/260 259/259/259 262/262/262 
f 263/263/263 264/264/264 265/265/265 
f 264/264/264 263/263/263 266/266/266 
f 267/267/267 268/268/268 269/269/269 
f 269/269/269 270/270/270 267/267/267 
f 271/271/271 272/272/272 273/273/273 
f 272/272/272 271/271/271 274/274/274 
f 275/275/275 276/276/276 277/277/277 
f 277/277/277 276/276/276 278/278/278 
f 279/279/279 280/280/280 281/281/281 
f 281/281/281 282/282/282 279/279/279 
f 283/283/283 284/284/284 285/285/285 
f 284/284/284 283/283/283 286/286/286 
f 287/287/287 288/288/288 289/289/289 
f 288/288/288 287/287/287 290/290/290 
f 291/291/291 292/292/292 293/293/293 
f 291/291/291 293/293/293 294/294/294 
f 295/295/295 296/296/296 297/297/297 
f 296/296/296 295/295/295 298/298/298 
f 299/299/299 300/300/300 301/301/301 
f 299/299/299 301/301/301 302/302/302 
f 303/303/303 304/304/304 305/305/305 
f 304/304/304 303/303/303 306/306/306 
f 307/307/307 308/308/308 309/309/309 
f 310/310/310 309/309/309 308/308/308 
f 311/311/311 312/312/312 313/313/313 
f 313/313/313 314/314/314 311/311/311 
f 315/315/315 316/316/316 317/317/317 
f 316/316/316 315/315/315 318/318/318 
f 319/319/319 320/320/320 321/321/321 
f 320/320/320 319/319/319 322/322/322 
f 323/323/323 324/324/324 325/325/325 
f 325/325/325 324/324/324 326/326/326 
f 327/327/327 328/328/328 329/329/329 
f 328/328/328 327/327/327 330/330/330 
f 331/331/331 332/332/332 333/333/333 
f 331/331/331 333/333/333 334/334/334 
f 335/335/335 336/336/336 337/337/337 
f 336/336/336 335/335/335 338/338/338 
f 339/339/339 340/340/340 341/341/341 
f 341/341/341 340/340/340 342/342/342 
f 343/343/343 344/344/344 345/345/345 
f 344/344/344 343/343/343 346/346/346 
f 347/347/347 348/348/348 349/349/349 
f 348/348/348 347/347/347 350/350/350 
f 351/351/351 352/352/352 353/353/353 
f 352/352/352 351/351/351 354/354/354 
f 355/355/355 356/356/356 357/357/357 
f 357/357/357 358/358/358 355/355/355 
f 359/359/359 360/360/360 361/361/361 
f 361/361/361 360/360/360 362/362/362 
f 363/363/363 364/364/364 365/365/365 
f 365/365/365 366/366/366 363/363/363 
f 367/367/367 368/368/368 369/369/369 
f 368/368/368 367/367/367 370/370/370 
f 371/371/371 372/372/372 373/373/373 
f 373/373/373 372/372/372 374/374/374 
f 375/375/375 376/376/376 377/377/377 
f 376/376/376 375/375/375 378/378/378 
f 379/379/379 380/380/380 381/381/381 
f 380/380/380 379/379/379 382/382/382 
f 383/383/383 384/384/384 385/385/385 
f 384/384/384 383/383/383 386/386/386 
f 387/387/387 388/388/388 389/389/389 
f 388/388/388 387/387/387 390/390/390 
f 391/391/391 392/392/392 393/393/393 
f 391/391/391 393/393/393 394/394/394 
f 395/395/395 396/396/396 397/397/397 
f 395/395/395 397/397/397 398/398/398 
f 399/399/399 400/400/400 401/401/401 
f 400/400/400 399/399/399 402/402/402 
f 403/403/403 404/404/404 405/405/405 
f 403/403/403 405/405/405 406/406/406 
f 407/407/407 408/408/408 409/409/409 
f 408/408/408 407/407/407 410/410/410 
f 411/411/411 412/412/412 413/413/413 
f 413/413/413 414/414/414 411/411/411 
f 415/415/415 416/416/416 417/417/417 
f 416/416/416 415/415/415 418/418/418 
f 419/419/419 420/420/420 421/421/421 
f 420/420/420 419/419/419 422/422/422 
f 423/423/423 424/424/424 425/425/425 
f 424/424/424 423/423/423 426/426/426 
f 427/427/427 428/428/428 429/429/429 
f 428/428/428 427/427/427 430/430/430 
f 431/431/431 432/432/432 433/433/433 
f 432/432/432 431/431/431 434/434/434 
f 435/435/435 436/436/436 437/437/437 
f 436/436/436 435/435/435 438/438/438 
f 439/439/439 440/440/440 441/441/441 
f 439/439/439 441/441/441 442/442/442 
f 443/443/443 444/444/444 445/445/445 
f 443/443/443 445/445/445 446/446/446 
f 447/447/447 448/448/448 449/449/449 
f 448/448/448 447/447/447 450/450/450 
f 451/451/451 452/452/452 453/453/453 
f 452/452/452 451/451/451 454/454/454 
f 455/455/455 456/456/456 457/457/457 
f 456/456/456 455/455/455 458/458/458 
f 459/459/459 460/460/460 461/461/461 
f 460/460/460 459/459/459 462/462/462 
f 463/463/463 464/464/464 465/465/465 
f 464/464/464 463/463/463 466/466/466 
f 467/467/467 468/468/468 469/469/469 
f 467/467/467 469/469/469 470/470/470 
f 471/471/471 472/472/472 473/473/473 
f 472/472/472 471/471/471 474/474/474 
f 475/475/475 476/476/476 477/477/477 
f 476/476/476 475/475/475 478/478/478 
f 479/479/479 480/480/480 481/481/481 
f 480/480/480 479/479/479 482/482/482 
f 483/483/483 484/484/484 485/485/485 
f 484/484/484 483/483/483 486/486/486 
f 487/487/487 488/488/488 489/489/489 
f 488/488/488 487/487/487 490/490/490 
f 491/491/491 492/492/492 493/493/493 
f 492/492/492 491/491/491 494/494/494 
f 495/495/495 496/496/496 497/497/497 
f 496/496/496 495/495/495 498/498/498 
f 499/499/499 500/500/500 501/501/501 
f 500/500/500 499/499/499 502/502/502 
f 503/503/503 504/504/504 505/505/505 
f 503/503/503 505/505/505 506/506/506 
f 507/507/507 508/508/508 509/509/509 
f 509/509/509 510/510/510 507/507/507 
f 511/511/511 512/512/512 513/513/513 
f 511/511/511 513/513/513 514/514/514 
f 515/515/515 516/516/516 517/517/517 
f 516/516/516 515/515/515 518/518/518 
f 519/519/519 520/520/520 521/521/521 
f 519/519/519 521/521/521 522/522/522 
f 523/523/523 524/524/524 525/525/525 
f 523/523/523 525/525/525 526/526/526 
f 527/527/527 528/528/528 529/529/529 
f 528/528/528 527/527/527 530/530/530 
f 531/531/531 532/532/532 533/533/533 
f 532/532/532 531/531/531 534/534/534 
f 535/535/535 536/536/536 537/537/537 
f 536/536/536 535/535/535 538/538/538 
f 539/539/539 540/540/540 541/541/541 
f 540/540/540 539/539/539 542/542/542 
f 543/543/543 544/544/544 545/545/545 
f 543/543/543 545/545/545 546/546/546 
f 547/547/547 548/548/548 549/549/549 
f 547/547/547 549/549/549 550/550/550 
f 551/551/551 552/552/552 553/553/553 
f 551/551/551 553/553/553 554/554/554 
f 555/555/555 556/556/556 557/557/557 
f 557/557/557 558/558/558 555/555/555 
f 559/559/559 560/560/560 561/561/561 
f 561/561/561 562/562/562 559/559/559 
f 563/563/563 564/564/564 565/565/565 
f 564/564/564 563/563/563 566/566/566 
f 567/567/567 568/568/568 569/569/569 
f 567/567/567 570/570/570 568/568/568 
f 571/571/571 572/572/572 573/573/573 
f 572/572/572 571/571/571 574/574/574 
f 575/575/575 576/576/576 577/577/577 
f 575/575/575 577/577/577 578/578/578 
f 579/579/579 580/580/580 581/581/581 
f 581/581/581 582/582/582 579/579/579 
f 583/583/583 584/584/584 585/585/585 
f 584/584/584 583/583/583 586/586/586 
f 587/587/587 588/588/588 589/589/589 
f 588/588/588 587/587/587 590/590/590 
f 591/591/591 592/592/592 593/593/593 
f 592/592/592 591/591/591 594/594/594 
f 595/595/595 596/596/596 597/597/597 
f 595/595/595 597/597/597 598/598/598 
f 599/599/599 600/600/600 601/601/601 
f 599/599/599 601/601/601 602/602/602 
f 603/603/603 604/604/604 605/605/605 
f 604/604/604 603/603/603 606/606/606 

