# This file is brought to you by Roblox Corporation
# Generated by Roblox Studio

mtllib MedKit.mtl

g Medkit1

v -0.70009 -0.157116 -0.510325 
v -0.70009 0.157116 -0.510325 
v -0.64482 0.157116 -0.565596 
v -0.64482 -0.157116 -0.565596 
v 0.644819 -0.157116 -0.565596 
v 0.644819 0.157116 -0.565596 
v 0.70009 0.157116 -0.510325 
v 0.70009 -0.157116 -0.510325 
v 0.297863 0.0259127 -0.589798 
v 0.60866 0.0259127 -0.589798 
v 0.60866 -0.0259125 -0.589798 
v 0.297863 -0.0259125 -0.589798 
v -0.297863 0.0259127 -0.589798 
v -0.60866 -0.0259125 -0.589798 
v -0.60866 0.0259127 -0.589798 
v -0.297863 -0.0259125 -0.589798 
v 0.297863 0.0259127 -0.565596 
v -0.297863 -0.0259125 -0.565596 
v -0.297863 0.0259127 -0.565596 
v 0.297863 -0.0259125 -0.565596 
v 0.644819 -0.157116 -0.565596 
v -0.64482 -0.157116 -0.565596 
v -0.60866 -0.0259125 -0.565596 
v 0.60866 -0.0259125 -0.565596 
v 0.644819 0.157116 -0.565596 
v 0.60866 0.0259127 -0.565596 
v -0.64482 0.157116 -0.565596 
v 0.644819 0.157116 -0.565596 
v -0.297863 0.0259127 -0.565596 
v -0.60866 0.0259127 -0.565596 
v -0.64482 -0.157116 -0.565596 
v 0.297863 0.0259127 -0.565596 
v 0.60866 0.0259127 -0.565596 
v -0.60866 -0.0259125 -0.565596 
v -0.70009 -0.157116 -0.510325 
v -0.64482 -0.157116 -0.565596 
v -0.636161 -0.175454 -0.544693 
v -0.679187 -0.175454 -0.501667 
v -0.679187 0.175454 -0.501667 
v -0.636161 0.175454 -0.544693 
v -0.64482 0.157116 -0.565596 
v -0.70009 0.157116 -0.510325 
v 0.644819 -0.157116 -0.565596 
v 0.70009 -0.157116 -0.510325 
v 0.679187 -0.175454 -0.501667 
v 0.636161 -0.175454 -0.544693 
v 0.70009 0.157116 -0.510325 
v 0.636161 0.175454 -0.544693 
v 0.679187 0.175454 -0.501667 
v 0.644819 0.157116 -0.565596 
v -0.70009 0.157116 -0.510325 
v -0.70009 -0.157116 0.379286 
v -0.70009 0.157116 0.379286 
v -0.70009 -0.157116 -0.510325 
v 0.70009 0.157116 0.379286 
v 0.70009 -0.157116 -0.510325 
v 0.70009 0.157116 -0.510325 
v 0.70009 -0.157116 0.379286 
v -0.64482 -0.157116 -0.565596 
v 0.644819 -0.157116 -0.565596 
v 0.636161 -0.175454 -0.544693 
v -0.636161 -0.175454 -0.544693 
v 0.644819 0.157116 -0.565596 
v -0.64482 0.157116 -0.565596 
v -0.636161 0.175454 -0.544693 
v 0.636161 0.175454 -0.544693 
v -0.60866 0.0259127 -0.589798 
v -0.60866 -0.0259125 -0.565596 
v -0.60866 0.0259127 -0.565596 
v -0.60866 -0.0259125 -0.589798 
v 0.60866 -0.0259125 -0.589798 
v 0.60866 0.0259127 -0.589798 
v 0.60866 0.0259127 -0.565596 
v 0.60866 -0.0259125 -0.565596 
v -0.679187 -0.175454 -0.501667 
v -0.679187 -0.175454 0.370627 
v -0.70009 -0.157116 0.379286 
v -0.70009 -0.157116 -0.510325 
v -0.70009 0.157116 -0.510325 
v -0.679187 0.175454 0.370627 
v -0.679187 0.175454 -0.501667 
v -0.70009 0.157116 0.379286 
v 0.679187 -0.175454 0.370627 
v 0.70009 -0.157116 -0.510325 
v 0.70009 -0.157116 0.379286 
v 0.679187 -0.175454 -0.501667 
v 0.679187 0.175454 -0.501667 
v 0.70009 0.157116 0.379286 
v 0.70009 0.157116 -0.510325 
v 0.679187 0.175454 0.370627 
v -0.70009 0.157116 0.379286 
v -0.644819 -0.157116 0.434557 
v -0.644819 0.157116 0.434557 
v -0.70009 -0.157116 0.379286 
v 0.70009 -0.157116 0.379286 
v 0.70009 0.157116 0.379286 
v 0.64482 0.157116 0.434556 
v 0.64482 -0.157116 0.434556 
v -0.679187 -0.175454 0.370627 
v -0.636161 -0.175454 0.413653 
v -0.644819 -0.157116 0.434557 
v -0.70009 -0.157116 0.379286 
v -0.70009 0.157116 0.379286 
v -0.644819 0.157116 0.434557 
v -0.636161 0.175454 0.413653 
v -0.679187 0.175454 0.370627 
v 0.70009 -0.157116 0.379286 
v 0.636161 -0.175454 0.413653 
v 0.679187 -0.175454 0.370627 
v 0.64482 -0.157116 0.434556 
v 0.64482 0.157116 0.434556 
v 0.70009 0.157116 0.379286 
v 0.679187 0.175454 0.370627 
v 0.636161 0.175454 0.413653 
v -0.277572 -0.0615475 0.422128 
v -0.277572 0.0615475 0.422128 
v -0.277572 0.0455359 0.415496 
v -0.277572 -0.045536 0.415496 
v -0.277572 0.157116 0.434557 
v -0.277572 -0.157116 0.434557 
v -0.277572 -0.0389037 0.399485 
v -0.277572 0.0389037 0.399485 
v -0.277572 0.0455359 0.383473 
v -0.277572 -0.045536 0.383473 
v -0.277572 0.0615475 0.376841 
v -0.277572 -0.0615476 0.376841 
v -0.277572 -0.175454 0.365617 
v -0.277572 0.175454 0.365617 
v -0.277572 -0.157116 0.434557 
v -0.277572 -0.0615475 0.422128 
v -0.277572 -0.0775591 0.415496 
v -0.277572 -0.0841914 0.399485 
v -0.277572 -0.175454 0.365617 
v -0.277572 -0.175454 0.413653 
v -0.277572 -0.0775591 0.383473 
v -0.277572 -0.0615476 0.376841 
v -0.277572 0.175454 0.365617 
v -0.277572 0.0615475 0.376841 
v -0.277572 0.0775591 0.383473 
v -0.277572 0.157116 0.434557 
v -0.277572 0.175454 0.413653 
v -0.277572 0.0841914 0.399485 
v -0.277572 0.0775591 0.415496 
v -0.277572 0.0615475 0.422128 
v 0.277572 0.175454 0.365617 
v 0.277572 0.0841914 0.399485 
v 0.277572 0.0775592 0.383473 
v 0.277572 0.157116 0.434556 
v 0.277572 0.175454 0.413653 
v 0.277572 0.0615475 0.376841 
v 0.277572 0.0775591 0.415496 
v 0.277572 0.0615475 0.422128 
v 0.277572 -0.0615475 0.376841 
v 0.277572 0.0455359 0.383473 
v 0.277572 -0.045536 0.383473 
v 0.277572 0.0615475 0.376841 
v 0.277572 0.175454 0.365617 
v 0.277572 -0.175454 0.365617 
v 0.277572 -0.0389037 0.399485 
v 0.277572 0.0389037 0.399485 
v 0.277572 -0.045536 0.415496 
v 0.277572 0.0455359 0.415496 
v 0.277572 -0.0615475 0.422128 
v 0.277572 0.0615475 0.422128 
v 0.277572 0.157116 0.434556 
v 0.277572 -0.157116 0.434556 
v 0.277572 -0.175454 0.365617 
v 0.277572 -0.0615475 0.376841 
v 0.277572 -0.0775592 0.383473 
v 0.277572 -0.0841914 0.399485 
v 0.277572 -0.157116 0.434556 
v 0.277572 -0.175454 0.413653 
v 0.277572 -0.0775592 0.415496 
v 0.277572 -0.0615475 0.422128 
v -0.169378 -0.0200816 0.539313 
v -0.133586 -1.49012e-08 0.577447 
v -0.176192 -1.49012e-08 0.544084 
v -0.130071 -0.0200816 0.569908 
v -0.130071 0.0200815 0.569908 
v -0.169378 0.0200815 0.539313 
v -0.133586 -1.49012e-08 0.577447 
v -0.176192 -1.49012e-08 0.544084 
v 0.133587 -1.49012e-08 0.577447 
v 0.169379 -0.0200816 0.539313 
v 0.176193 -1.49012e-08 0.544084 
v 0.130071 -0.0200816 0.569908 
v 0.130071 0.0200815 0.569908 
v 0.133587 -1.49012e-08 0.577447 
v 0.169379 0.0200815 0.539313 
v 0.176193 -1.49012e-08 0.544084 
v -0.130071 -0.0200816 0.569908 
v -0.071764 -1.49012e-08 0.589798 
v -0.133586 -1.49012e-08 0.577447 
v -0.071764 -0.0200816 0.58148 
v -0.133586 -1.49012e-08 0.577447 
v -0.071764 -1.49012e-08 0.589798 
v -0.130071 0.0200815 0.569908 
v -0.071764 0.0200815 0.58148 
v 0.0717643 -1.49012e-08 0.589798 
v 0.130071 -0.0200816 0.569908 
v 0.133587 -1.49012e-08 0.577447 
v 0.0717643 -0.0200816 0.58148 
v 0.130071 0.0200815 0.569908 
v 0.0717643 0.0200815 0.58148 
v 0.0717643 -1.49012e-08 0.589798 
v 0.133587 -1.49012e-08 0.577447 
v -0.071764 -1.49012e-08 0.589798 
v 0.0717643 -0.0200816 0.58148 
v 0.0717643 -1.49012e-08 0.589798 
v -0.071764 -0.0200816 0.58148 
v 0.0717643 0.0200815 0.58148 
v -0.071764 0.0200815 0.58148 
v -0.071764 -1.49012e-08 0.589798 
v 0.0717643 -1.49012e-08 0.589798 
v -0.188895 -0.0200816 0.498016 
v -0.169378 -0.0200816 0.539313 
v -0.197213 -1.49012e-08 0.498016 
v -0.176192 -1.49012e-08 0.544084 
v -0.197213 -1.49012e-08 0.498016 
v -0.169378 0.0200815 0.539313 
v -0.188895 0.0200815 0.498016 
v -0.176192 -1.49012e-08 0.544084 
v 0.169379 -0.0200816 0.539313 
v 0.197213 -1.49012e-08 0.498016 
v 0.176193 -1.49012e-08 0.544084 
v 0.188895 -0.0200816 0.498016 
v 0.169379 0.0200815 0.539313 
v 0.197213 -1.49012e-08 0.498016 
v 0.188895 0.0200815 0.498016 
v 0.176193 -1.49012e-08 0.544084 
v -0.277572 -0.157116 0.434557 
v 0.277572 -0.175454 0.413653 
v 0.277572 -0.157116 0.434556 
v -0.277572 -0.175454 0.413653 
v 0.490709 -0.157116 0.434556 
v 0.636161 -0.175454 0.413653 
v 0.64482 -0.157116 0.434556 
v 0.490709 -0.175454 0.413653 
v -0.490708 -0.157116 0.434557 
v -0.636161 -0.175454 0.413653 
v -0.490708 -0.175454 0.413653 
v -0.644819 -0.157116 0.434557 
v 0.636161 0.175454 0.413653 
v 0.490709 0.175454 0.413653 
v 0.490709 0.157116 0.434556 
v 0.64482 0.157116 0.434556 
v 0.277572 0.175454 0.413653 
v -0.277572 0.157116 0.434557 
v 0.277572 0.157116 0.434556 
v -0.277572 0.175454 0.413653 
v -0.636161 0.175454 0.413653 
v -0.490708 0.157116 0.434557 
v -0.490708 0.175454 0.413653 
v -0.644819 0.157116 0.434557 
v -0.188895 -0.0200816 0.434557 
v -0.197213 -1.49012e-08 0.498016 
v -0.197213 0 0.434557 
v -0.188895 -0.0200816 0.498016 
v -0.197213 0 0.434557 
v -0.188895 0.0200815 0.498016 
v -0.188895 0.0200815 0.434557 
v -0.197213 -1.49012e-08 0.498016 
v 0.197213 -1.49012e-08 0.498016 
v 0.188895 -0.0200816 0.434556 
v 0.197213 0 0.434556 
v 0.188895 -0.0200816 0.498016 
v 0.188895 0.0200815 0.498016 
v 0.197213 0 0.434556 
v 0.188895 0.0200815 0.434556 
v 0.197213 -1.49012e-08 0.498016 
v -0.277572 -0.175454 0.365617 
v 0.636161 -0.175454 -0.544693 
v 0.277572 -0.175454 0.365617 
v -0.636161 -0.175454 -0.544693 
v -0.277572 -0.175454 0.413653 
v -0.679187 -0.175454 -0.501667 
v -0.490708 -0.175454 0.365617 
v 0.679187 -0.175454 -0.501667 
v 0.490709 -0.175454 0.365617 
v 0.277572 -0.175454 0.413653 
v 0.679187 -0.175454 0.370627 
v 0.636161 -0.175454 0.413653 
v 0.490709 -0.175454 0.413653 
v -0.636161 -0.175454 0.413653 
v -0.679187 -0.175454 0.370627 
v -0.490708 -0.175454 0.413653 
v 0.636161 0.175454 -0.544693 
v -0.277572 0.175454 0.365617 
v 0.277572 0.175454 0.365617 
v -0.636161 0.175454 -0.544693 
v 0.679187 0.175454 -0.501667 
v -0.679187 0.175454 -0.501667 
v -0.490708 0.175454 0.365617 
v -0.277572 0.175454 0.413653 
v 0.277572 0.175454 0.413653 
v 0.490709 0.175454 0.365617 
v 0.679187 0.175454 0.370627 
v 0.636161 0.175454 0.413653 
v 0.490709 0.175454 0.413653 
v -0.636161 0.175454 0.413653 
v -0.490708 0.175454 0.413653 
v -0.679187 0.175454 0.370627 
v -0.152929 -0.0283996 0.527795 
v -0.130071 -0.0200816 0.569908 
v -0.169378 -0.0200816 0.539313 
v -0.121584 -0.0283996 0.551708 
v 0.152929 -0.0283996 0.527795 
v 0.130071 -0.0200816 0.569908 
v 0.121584 -0.0283996 0.551708 
v 0.169379 -0.0200816 0.539313 
v -0.130071 0.0200815 0.569908 
v -0.152929 0.0283996 0.527795 
v -0.169378 0.0200815 0.539313 
v -0.121584 0.0283996 0.551708 
v 0.130071 0.0200815 0.569908 
v 0.169379 0.0200815 0.539313 
v 0.152929 0.0283996 0.527795 
v 0.121584 0.0283996 0.551708 
v 0.277572 -0.0615475 0.422128 
v 0.490709 -0.0775591 0.415496 
v 0.490709 -0.0615475 0.422128 
v 0.277572 -0.0775592 0.415496 
v -0.490708 -0.0775591 0.415496 
v -0.277572 -0.0615475 0.422128 
v -0.490708 -0.0615475 0.422128 
v -0.277572 -0.0775591 0.415496 
v -0.490708 0.0615475 0.422129 
v -0.277572 0.0615475 0.422128 
v -0.490708 0.0775591 0.415496 
v -0.277572 0.0775591 0.415496 
v 0.490709 0.0775591 0.415496 
v 0.277572 0.0615475 0.422128 
v 0.490709 0.0615475 0.422128 
v 0.277572 0.0775591 0.415496 
v -0.121584 -0.0283996 0.551708 
v -0.071764 -0.0200816 0.58148 
v -0.130071 -0.0200816 0.569908 
v -0.071764 -0.0283996 0.561398 
v 0.0717643 -0.0200816 0.58148 
v 0.121584 -0.0283996 0.551708 
v 0.130071 -0.0200816 0.569908 
v 0.0717643 -0.0283996 0.561398 
v -0.130071 0.0200815 0.569908 
v -0.071764 0.0200815 0.58148 
v -0.121584 0.0283996 0.551708 
v -0.071764 0.0283996 0.561398 
v 0.0717643 0.0200815 0.58148 
v 0.121584 0.0283996 0.551708 
v 0.0717643 0.0283996 0.561398 
v 0.130071 0.0200815 0.569908 
v -0.644819 0.157116 0.434557 
v -0.490708 -0.157116 0.434557 
v -0.490708 0.157116 0.434557 
v -0.644819 -0.157116 0.434557 
v 0.490709 0.157116 0.434556 
v 0.64482 -0.157116 0.434556 
v 0.64482 0.157116 0.434556 
v 0.490709 -0.157116 0.434556 
v -0.140413 -1.49012e-08 0.434557 
v 0.148732 -0.0200816 0.434556 
v 0.140414 -1.49012e-08 0.434556 
v -0.148731 -0.0200816 0.434557 
v 0.277572 -0.157116 0.434556 
v 0.168813 -0.0283996 0.434556 
v -0.277572 -0.157116 0.434557 
v -0.168813 -0.0283996 0.434557 
v -0.188895 -0.0200816 0.434557 
v -0.197213 0 0.434557 
v -0.277572 0.157116 0.434557 
v 0.277572 0.157116 0.434556 
v 0.197213 0 0.434556 
v 0.188895 -0.0200816 0.434556 
v -0.148731 0.0200815 0.434557 
v -0.277572 0.157116 0.434557 
v -0.168813 0.0283996 0.434557 
v 0.148732 0.0200815 0.434556 
v -0.140413 -1.49012e-08 0.434557 
v -0.197213 0 0.434557 
v -0.188895 0.0200815 0.434557 
v 0.277572 0.157116 0.434556 
v 0.140414 -1.49012e-08 0.434556 
v 0.168813 0.0283996 0.434556 
v 0.197213 0 0.434556 
v 0.188895 0.0200815 0.434556 
v 0.0717643 -0.0200816 0.58148 
v -0.071764 -0.0200816 0.58148 
v -0.071764 -0.0283996 0.561398 
v 0.0717643 -0.0283996 0.561398 
v -0.071764 0.0283996 0.561398 
v 0.0717643 0.0200815 0.58148 
v 0.0717643 0.0283996 0.561398 
v -0.071764 0.0200815 0.58148 
v -0.169378 -0.0200816 0.539313 
v -0.168813 -0.0283996 0.498016 
v -0.152929 -0.0283996 0.527795 
v -0.188895 -0.0200816 0.498016 
v 0.168813 -0.0283996 0.498016 
v 0.169379 -0.0200816 0.539313 
v 0.152929 -0.0283996 0.527795 
v 0.188895 -0.0200816 0.498016 
v -0.188895 0.0200815 0.498016 
v -0.169378 0.0200815 0.539313 
v -0.168813 0.0283996 0.498016 
v -0.152929 0.0283996 0.527795 
v 0.169379 0.0200815 0.539313 
v 0.188895 0.0200815 0.498016 
v 0.168813 0.0283996 0.498016 
v 0.152929 0.0283996 0.527795 
v -0.490708 -0.0841914 0.399485 
v -0.277572 -0.0841914 0.399485 
v -0.490708 -0.0775591 0.415496 
v -0.277572 -0.0775591 0.415496 
v 0.277572 -0.0775592 0.415496 
v 0.490709 -0.0841913 0.399485 
v 0.490709 -0.0775591 0.415496 
v 0.277572 -0.0841914 0.399485 
v 0.490709 0.0841914 0.399485 
v 0.277572 0.0775591 0.415496 
v 0.490709 0.0775591 0.415496 
v 0.277572 0.0841914 0.399485 
v -0.490708 0.0775591 0.415496 
v -0.277572 0.0775591 0.415496 
v -0.490708 0.0841913 0.399485 
v -0.277572 0.0841914 0.399485 
v -0.188895 -0.0200816 0.498016 
v -0.168813 -0.0283996 0.434557 
v -0.168813 -0.0283996 0.498016 
v -0.188895 -0.0200816 0.434557 
v 0.168813 -0.0283996 0.498016 
v 0.168813 -0.0283996 0.434556 
v 0.188895 -0.0200816 0.498016 
v 0.188895 -0.0200816 0.434556 
v -0.188895 0.0200815 0.434557 
v -0.188895 0.0200815 0.498016 
v -0.168813 0.0283996 0.434557 
v -0.168813 0.0283996 0.498016 
v 0.168813 0.0283996 0.434556 
v 0.188895 0.0200815 0.498016 
v 0.188895 0.0200815 0.434556 
v 0.168813 0.0283996 0.498016 
v 0.490709 0.0615475 0.422128 
v 0.277572 0.0455359 0.415496 
v 0.490709 0.0455359 0.415496 
v 0.277572 0.0615475 0.422128 
v -0.490708 0.0455359 0.415496 
v -0.277572 0.0455359 0.415496 
v -0.490708 0.0615475 0.422129 
v -0.277572 0.0615475 0.422128 
v -0.490708 -0.0615475 0.422128 
v -0.277572 -0.045536 0.415496 
v -0.490708 -0.045536 0.415496 
v -0.277572 -0.0615475 0.422128 
v 0.277572 -0.045536 0.415496 
v 0.490709 -0.0615475 0.422128 
v 0.490709 -0.0455359 0.415496 
v 0.277572 -0.0615475 0.422128 
v 0.277572 0.175454 0.365617 
v 0.490709 -0.175454 0.365617 
v 0.490709 0.175454 0.365617 
v 0.277572 -0.175454 0.365617 
v -0.490708 0.175454 0.365617 
v -0.277572 -0.175454 0.365617 
v -0.277572 0.175454 0.365617 
v -0.490708 -0.175454 0.365617 
v 0.277572 -0.0841914 0.399485 
v 0.490709 -0.0775591 0.383473 
v 0.490709 -0.0841913 0.399485 
v 0.277572 -0.0775592 0.383473 
v -0.490708 -0.0775591 0.383473 
v -0.277572 -0.0841914 0.399485 
v -0.490708 -0.0841914 0.399485 
v -0.277572 -0.0775591 0.383473 
v 0.490709 0.0775591 0.383473 
v 0.277572 0.0841914 0.399485 
v 0.490709 0.0841914 0.399485 
v 0.277572 0.0775592 0.383473 
v -0.490708 0.0841913 0.399485 
v -0.277572 0.0841914 0.399485 
v -0.490708 0.0775591 0.383473 
v -0.277572 0.0775591 0.383473 
v -0.297863 -0.0259125 -0.565596 
v -0.60866 -0.0259125 -0.565596 
v -0.60866 -0.0259125 -0.589798 
v -0.297863 -0.0259125 -0.589798 
v 0.297863 -0.0259125 -0.565596 
v 0.60866 -0.0259125 -0.589798 
v 0.60866 -0.0259125 -0.565596 
v 0.297863 -0.0259125 -0.589798 
v 0.297863 0.0259127 -0.565596 
v 0.60866 0.0259127 -0.565596 
v 0.297863 0.0259127 -0.589798 
v 0.60866 0.0259127 -0.589798 
v -0.297863 0.0259127 -0.589798 
v -0.60866 0.0259127 -0.589798 
v -0.60866 0.0259127 -0.565596 
v -0.297863 0.0259127 -0.565596 
v 0.277572 0.0455359 0.415496 
v 0.490709 0.0389037 0.399485 
v 0.490709 0.0455359 0.415496 
v 0.277572 0.0389037 0.399485 
v -0.490708 0.0389037 0.399485 
v -0.277572 0.0389037 0.399485 
v -0.490708 0.0455359 0.415496 
v -0.277572 0.0455359 0.415496 
v -0.490708 -0.045536 0.415496 
v -0.277572 -0.045536 0.415496 
v -0.490708 -0.0389037 0.399485 
v -0.277572 -0.0389037 0.399485 
v 0.490709 -0.0389037 0.399485 
v 0.277572 -0.045536 0.415496 
v 0.490709 -0.0455359 0.415496 
v 0.277572 -0.0389037 0.399485 
v 0.148732 -0.0200816 0.498016 
v 0.148732 -0.0200816 0.434556 
v 0.168813 -0.0283996 0.498016 
v 0.168813 -0.0283996 0.434556 
v -0.168813 -0.0283996 0.498016 
v -0.148731 -0.0200816 0.434557 
v -0.148731 -0.0200816 0.498016 
v -0.168813 -0.0283996 0.434557 
v 0.148732 0.0200815 0.434556 
v 0.148732 0.0200815 0.498016 
v 0.168813 0.0283996 0.434556 
v 0.168813 0.0283996 0.498016 
v -0.168813 0.0283996 0.434557 
v -0.168813 0.0283996 0.498016 
v -0.148731 0.0200815 0.434557 
v -0.148731 0.0200815 0.498016 
v 0.490709 -0.0775591 0.383473 
v 0.277572 -0.0615475 0.376841 
v 0.490709 -0.0615475 0.376841 
v 0.277572 -0.0775592 0.383473 
v -0.277572 -0.0615476 0.376841 
v -0.490708 -0.0775591 0.383473 
v -0.490708 -0.0615475 0.376841 
v -0.277572 -0.0775591 0.383473 
v 0.490709 0.0615475 0.376841 
v 0.277572 0.0775592 0.383473 
v 0.490709 0.0775591 0.383473 
v 0.277572 0.0615475 0.376841 
v -0.490708 0.0775591 0.383473 
v -0.277572 0.0615475 0.376841 
v -0.490708 0.0615475 0.376841 
v -0.277572 0.0775591 0.383473 
v 0.0717643 -0.0283996 0.561398 
v -0.071764 -0.0283996 0.561398 
v -0.071764 -0.0200816 0.541317 
v 0.0717643 -0.0200816 0.541317 
v 0.277572 0.0389037 0.399485 
v 0.490709 0.0455359 0.383473 
v 0.490709 0.0389037 0.399485 
v 0.277572 0.0455359 0.383473 
v -0.490708 0.0455359 0.383473 
v -0.277572 0.0455359 0.383473 
v -0.490708 0.0389037 0.399485 
v -0.277572 0.0389037 0.399485 
v 0.0717643 0.0200815 0.541317 
v -0.071764 0.0200815 0.541317 
v -0.071764 0.0283996 0.561398 
v 0.0717643 0.0283996 0.561398 
v 0.490709 -0.0455359 0.383473 
v 0.277572 -0.0389037 0.399485 
v 0.490709 -0.0389037 0.399485 
v 0.277572 -0.045536 0.383473 
v -0.490708 -0.0389037 0.399485 
v -0.277572 -0.0389037 0.399485 
v -0.490708 -0.0455359 0.383473 
v -0.277572 -0.045536 0.383473 
v 0.148732 -0.0200816 0.498016 
v 0.152929 -0.0283996 0.527795 
v 0.136479 -0.0200816 0.516277 
v 0.168813 -0.0283996 0.498016 
v -0.152929 -0.0283996 0.527795 
v -0.148731 -0.0200816 0.498016 
v -0.136479 -0.0200816 0.516277 
v -0.168813 -0.0283996 0.498016 
v 0.152929 0.0283996 0.527795 
v 0.168813 0.0283996 0.498016 
v 0.148732 0.0200815 0.498016 
v 0.136479 0.0200815 0.516277 
v -0.168813 0.0283996 0.498016 
v -0.152929 0.0283996 0.527795 
v -0.148731 0.0200815 0.498016 
v -0.136479 0.0200815 0.516277 
v 0.0717643 -0.0283996 0.561398 
v 0.113098 -0.0200816 0.533508 
v 0.121584 -0.0283996 0.551708 
v 0.0717643 -0.0200816 0.541317 
v -0.113097 -0.0200816 0.533508 
v -0.071764 -0.0283996 0.561398 
v -0.121584 -0.0283996 0.551708 
v -0.071764 -0.0200816 0.541317 
v 0.0717643 0.0283996 0.561398 
v 0.113098 0.0200815 0.533508 
v 0.0717643 0.0200815 0.541317 
v 0.121584 0.0283996 0.551708 
v -0.071764 0.0200815 0.541317 
v -0.113097 0.0200815 0.533508 
v -0.071764 0.0283996 0.561398 
v -0.121584 0.0283996 0.551708 
v 0.136479 -0.0200816 0.516277 
v 0.121584 -0.0283996 0.551708 
v 0.113098 -0.0200816 0.533508 
v 0.152929 -0.0283996 0.527795 
v -0.136479 -0.0200816 0.516277 
v -0.121584 -0.0283996 0.551708 
v -0.152929 -0.0283996 0.527795 
v -0.113097 -0.0200816 0.533508 
v 0.121584 0.0283996 0.551708 
v 0.136479 0.0200815 0.516277 
v 0.113098 0.0200815 0.533508 
v 0.152929 0.0283996 0.527795 
v -0.121584 0.0283996 0.551708 
v -0.136479 0.0200815 0.516277 
v -0.152929 0.0283996 0.527795 
v -0.113097 0.0200815 0.533508 
v -0.490708 0.0615475 0.376841 
v -0.277572 0.0455359 0.383473 
v -0.490708 0.0455359 0.383473 
v -0.277572 0.0615475 0.376841 
v 0.490709 0.0455359 0.383473 
v 0.277572 0.0455359 0.383473 
v 0.490709 0.0615475 0.376841 
v 0.277572 0.0615475 0.376841 
v -0.277572 -0.045536 0.383473 
v -0.490708 -0.0615475 0.376841 
v -0.490708 -0.0455359 0.383473 
v -0.277572 -0.0615476 0.376841 
v 0.490709 -0.0615475 0.376841 
v 0.277572 -0.045536 0.383473 
v 0.490709 -0.0455359 0.383473 
v 0.277572 -0.0615475 0.376841 
v 0.148732 -0.0200816 0.434556 
v 0.140414 -1.49012e-08 0.498016 
v 0.140414 -1.49012e-08 0.434556 
v 0.148732 -0.0200816 0.498016 
v 0.140414 -1.49012e-08 0.434556 
v 0.148732 0.0200815 0.498016 
v 0.148732 0.0200815 0.434556 
v 0.140414 -1.49012e-08 0.498016 
v -0.140413 -1.49012e-08 0.498016 
v -0.148731 -0.0200816 0.434557 
v -0.140413 -1.49012e-08 0.434557 
v -0.148731 -0.0200816 0.498016 
v -0.148731 0.0200815 0.498016 
v -0.140413 -1.49012e-08 0.434557 
v -0.148731 0.0200815 0.434557 
v -0.140413 -1.49012e-08 0.498016 
v -0.071764 -1.49012e-08 0.532999 
v 0.0717643 -1.49012e-08 0.532999 
v 0.0717643 -0.0200816 0.541317 
v -0.071764 -0.0200816 0.541317 
v -0.071764 0.0200815 0.541317 
v 0.0717643 0.0200815 0.541317 
v 0.0717643 -1.49012e-08 0.532999 
v -0.071764 -1.49012e-08 0.532999 
v 0.140414 -1.49012e-08 0.498016 
v 0.148732 -0.0200816 0.498016 
v 0.129665 -1.49012e-08 0.511506 
v 0.136479 -0.0200816 0.516277 
v 0.148732 0.0200815 0.498016 
v 0.129665 -1.49012e-08 0.511506 
v 0.136479 0.0200815 0.516277 
v 0.140414 -1.49012e-08 0.498016 
v -0.129665 -1.49012e-08 0.511506 
v -0.148731 -0.0200816 0.498016 
v -0.140413 -1.49012e-08 0.498016 
v -0.136479 -0.0200816 0.516277 
v -0.148731 0.0200815 0.498016 
v -0.129665 -1.49012e-08 0.511506 
v -0.140413 -1.49012e-08 0.498016 
v -0.136479 0.0200815 0.516277 
v 0.109582 -1.49012e-08 0.52597 
v 0.0717643 -0.0200816 0.541317 
v 0.0717643 -1.49012e-08 0.532999 
v 0.113098 -0.0200816 0.533508 
v 0.0717643 0.0200815 0.541317 
v 0.113098 0.0200815 0.533508 
v 0.109582 -1.49012e-08 0.52597 
v 0.0717643 -1.49012e-08 0.532999 
v -0.109582 -1.49012e-08 0.52597 
v -0.071764 -0.0200816 0.541317 
v -0.113097 -0.0200816 0.533508 
v -0.071764 -1.49012e-08 0.532999 
v -0.071764 0.0200815 0.541317 
v -0.109582 -1.49012e-08 0.52597 
v -0.113097 0.0200815 0.533508 
v -0.071764 -1.49012e-08 0.532999 
v 0.129665 -1.49012e-08 0.511506 
v 0.113098 -0.0200816 0.533508 
v 0.109582 -1.49012e-08 0.52597 
v 0.136479 -0.0200816 0.516277 
v 0.113098 0.0200815 0.533508 
v 0.136479 0.0200815 0.516277 
v 0.129665 -1.49012e-08 0.511506 
v 0.109582 -1.49012e-08 0.52597 
v -0.113097 -0.0200816 0.533508 
v -0.129665 -1.49012e-08 0.511506 
v -0.109582 -1.49012e-08 0.52597 
v -0.136479 -0.0200816 0.516277 
v -0.113097 0.0200815 0.533508 
v -0.129665 -1.49012e-08 0.511506 
v -0.136479 0.0200815 0.516277 
v -0.109582 -1.49012e-08 0.52597 
v 0.297863 0.0259127 -0.589798 
v 0.297863 -0.0259125 -0.589798 
v 0.297863 0.0259127 -0.565596 
v 0.297863 -0.0259125 -0.565596 
v -0.297863 0.0259127 -0.565596 
v -0.297863 -0.0259125 -0.589798 
v -0.297863 0.0259127 -0.589798 
v -0.297863 -0.0259125 -0.565596 
v 0.490709 -0.157116 0.434556 
v 0.490709 -0.0615475 0.422128 
v 0.490709 -0.0775591 0.415496 
v 0.490709 -0.0841913 0.399485 
v 0.490709 -0.175454 0.365617 
v 0.490709 -0.175454 0.413653 
v 0.490709 -0.0775591 0.383473 
v 0.490709 -0.0615475 0.376841 
v 0.490709 0.175454 0.365617 
v 0.490709 0.0615475 0.376841 
v 0.490709 0.0775591 0.383473 
v 0.490709 0.157116 0.434556 
v 0.490709 0.175454 0.413653 
v 0.490709 0.0841914 0.399485 
v 0.490709 0.0775591 0.415496 
v 0.490709 0.0615475 0.422128 
v 0.490709 0.0455359 0.383473 
v 0.490709 -0.0389037 0.399485 
v 0.490709 0.0389037 0.399485 
v 0.490709 0.0615475 0.376841 
v 0.490709 -0.0615475 0.376841 
v 0.490709 -0.0455359 0.383473 
v 0.490709 -0.0455359 0.415496 
v 0.490709 0.0455359 0.415496 
v 0.490709 -0.0615475 0.422128 
v 0.490709 0.0615475 0.422128 
v 0.490709 0.157116 0.434556 
v 0.490709 -0.157116 0.434556 
v 0.490709 0.175454 0.365617 
v 0.490709 -0.175454 0.365617 
v -0.490708 -0.175454 0.365617 
v -0.490708 -0.157116 0.434557 
v -0.490708 -0.175454 0.413653 
v -0.490708 -0.0841914 0.399485 
v -0.490708 -0.0775591 0.383473 
v -0.490708 -0.0615475 0.376841 
v -0.490708 -0.0775591 0.415496 
v -0.490708 -0.0615475 0.422128 
v -0.490708 0.175454 0.365617 
v -0.490708 0.0841913 0.399485 
v -0.490708 0.0775591 0.383473 
v -0.490708 0.157116 0.434557 
v -0.490708 0.175454 0.413653 
v -0.490708 0.0615475 0.376841 
v -0.490708 0.0775591 0.415496 
v -0.490708 0.0615475 0.422129 
v -0.490708 -0.0615475 0.376841 
v -0.490708 0.0455359 0.383473 
v -0.490708 -0.0455359 0.383473 
v -0.490708 0.0615475 0.376841 
v -0.490708 0.175454 0.365617 
v -0.490708 -0.175454 0.365617 
v -0.490708 -0.0389037 0.399485 
v -0.490708 0.0389037 0.399485 
v -0.490708 0.0455359 0.415496 
v -0.490708 -0.045536 0.415496 
v -0.490708 -0.0615475 0.422128 
v -0.490708 0.0615475 0.422129 
v -0.490708 0.157116 0.434557 
v -0.490708 -0.157116 0.434557 

vn -0.708661 0 -0.708661 
vn -0.708661 0 -0.708661 
vn -0.708661 0 -0.708661 
vn -0.708661 0 -0.708661 
vn 0.708661 0 -0.708661 
vn 0.708661 0 -0.708661 
vn 0.708661 0 -0.708661 
vn 0.708661 0 -0.708661 
vn 0 0 -1 
vn 0 0 -1 
vn 0 0 -1 
vn 0 0 -1 
vn 0 0 -1 
vn 0 0 -1 
vn 0 0 -1 
vn 0 0 -1 
vn 0 0 -1 
vn 0 0 -1 
vn 0 0 -1 
vn 0 0 -1 
vn 0 0 -1 
vn 0 0 -1 
vn 0 0 -1 
vn 0 0 -1 
vn 0 0 -1 
vn 0 0 -1 
vn 0 0 -1 
vn 0 0 -1 
vn 0 0 -1 
vn 0 0 -1 
vn 0 0 -1 
vn 0 0 -1 
vn 0 0 -1 
vn 0 0 -1 
vn -0.464567 -0.748031 -0.464567 
vn -0.464567 -0.748031 -0.464567 
vn -0.464567 -0.748031 -0.464567 
vn -0.464567 -0.748031 -0.464567 
vn -0.464567 0.748031 -0.464567 
vn -0.464567 0.748031 -0.464567 
vn -0.464567 0.748031 -0.464567 
vn -0.464567 0.748031 -0.464567 
vn 0.464567 -0.748031 -0.464567 
vn 0.464567 -0.748031 -0.464567 
vn 0.464567 -0.748031 -0.464567 
vn 0.464567 -0.748031 -0.464567 
vn 0.464567 0.748031 -0.464567 
vn 0.464567 0.748031 -0.464567 
vn 0.464567 0.748031 -0.464567 
vn 0.464567 0.748031 -0.464567 
vn -1 0 0 
vn -1 0 0 
vn -1 0 0 
vn -1 0 0 
vn 1 0 0 
vn 1 0 0 
vn 1 0 0 
vn 1 0 0 
vn 0 -0.755906 -0.661417 
vn 0 -0.755906 -0.661417 
vn 0 -0.755906 -0.661417 
vn 0 -0.755906 -0.661417 
vn 0 0.755906 -0.661417 
vn 0 0.755906 -0.661417 
vn 0 0.755906 -0.661417 
vn 0 0.755906 -0.661417 
vn -1 0 0 
vn -1 0 0 
vn -1 0 0 
vn -1 0 0 
vn 1 0 0 
vn 1 0 0 
vn 1 0 0 
vn 1 0 0 
vn -0.661417 -0.755906 0 
vn -0.661417 -0.755906 0 
vn -0.661417 -0.755906 0 
vn -0.661417 -0.755906 0 
vn -0.661417 0.755906 0 
vn -0.661417 0.755906 0 
vn -0.661417 0.755906 0 
vn -0.661417 0.755906 0 
vn 0.661417 -0.755906 0 
vn 0.661417 -0.755906 0 
vn 0.661417 -0.755906 0 
vn 0.661417 -0.755906 0 
vn 0.661417 0.755906 0 
vn 0.661417 0.755906 0 
vn 0.661417 0.755906 0 
vn 0.661417 0.755906 0 
vn -0.708661 0 0.708661 
vn -0.708661 0 0.708661 
vn -0.708661 0 0.708661 
vn -0.708661 0 0.708661 
vn 0.708661 0 0.708661 
vn 0.708661 0 0.708661 
vn 0.708661 0 0.708661 
vn 0.708661 0 0.708661 
vn -0.464567 -0.748031 0.464567 
vn -0.464567 -0.748031 0.464567 
vn -0.464567 -0.748031 0.464567 
vn -0.464567 -0.748031 0.464567 
vn -0.464567 0.748031 0.464567 
vn -0.464567 0.748031 0.464567 
vn -0.464567 0.748031 0.464567 
vn -0.464567 0.748031 0.464567 
vn 0.464567 -0.748031 0.464567 
vn 0.464567 -0.748031 0.464567 
vn 0.464567 -0.748031 0.464567 
vn 0.464567 -0.748031 0.464567 
vn 0.464567 0.748031 0.464567 
vn 0.464567 0.748031 0.464567 
vn 0.464567 0.748031 0.464567 
vn 0.464567 0.748031 0.464567 
vn -1 0 0 
vn -1 0 0 
vn -1 0 0 
vn -1 0 0 
vn -1 0 0 
vn -1 0 0 
vn -1 0 0 
vn -1 0 0 
vn -1 0 0 
vn -1 0 0 
vn -1 0 0 
vn -1 0 0 
vn -1 0 0 
vn -1 0 0 
vn -1 0 0 
vn -1 0 0 
vn -1 0 0 
vn -1 0 0 
vn -1 0 0 
vn -1 0 0 
vn -1 0 0 
vn -1 0 0 
vn -1 0 0 
vn -1 0 0 
vn -1 0 0 
vn -1 0 0 
vn -1 0 0 
vn -1 0 0 
vn -1 0 0 
vn -1 0 0 
vn 1 0 0 
vn 1 0 0 
vn 1 0 0 
vn 1 0 0 
vn 1 0 0 
vn 1 0 0 
vn 1 0 0 
vn 1 0 0 
vn 1 0 0 
vn 1 0 0 
vn 1 0 0 
vn 1 0 0 
vn 1 0 0 
vn 1 0 0 
vn 1 0 0 
vn 1 0 0 
vn 1 0 0 
vn 1 0 0 
vn 1 0 0 
vn 1 0 0 
vn 1 0 0 
vn 1 0 0 
vn 1 0 0 
vn 1 0 0 
vn 1 0 0 
vn 1 0 0 
vn 1 0 0 
vn 1 0 0 
vn 1 0 0 
vn 1 0 0 
vn -0.574803 -0.370079 0.732283 
vn -0.574803 -0.370079 0.732283 
vn -0.574803 -0.370079 0.732283 
vn -0.574803 -0.370079 0.732283 
vn -0.574803 0.370079 0.732283 
vn -0.574803 0.370079 0.732283 
vn -0.574803 0.370079 0.732283 
vn -0.574803 0.370079 0.732283 
vn 0.574803 -0.370079 0.732283 
vn 0.574803 -0.370079 0.732283 
vn 0.574803 -0.370079 0.732283 
vn 0.574803 -0.370079 0.732283 
vn 0.574803 0.370079 0.732283 
vn 0.574803 0.370079 0.732283 
vn 0.574803 0.370079 0.732283 
vn 0.574803 0.370079 0.732283 
vn -0.181102 -0.377953 0.905512 
vn -0.181102 -0.377953 0.905512 
vn -0.181102 -0.377953 0.905512 
vn -0.181102 -0.377953 0.905512 
vn -0.181102 0.377953 0.905512 
vn -0.181102 0.377953 0.905512 
vn -0.181102 0.377953 0.905512 
vn -0.181102 0.377953 0.905512 
vn 0.181102 -0.377953 0.905512 
vn 0.181102 -0.377953 0.905512 
vn 0.181102 -0.377953 0.905512 
vn 0.181102 -0.377953 0.905512 
vn 0.181102 0.377953 0.905512 
vn 0.181102 0.377953 0.905512 
vn 0.181102 0.377953 0.905512 
vn 0.181102 0.377953 0.905512 
vn 0 -0.385827 0.92126 
vn 0 -0.385827 0.92126 
vn 0 -0.385827 0.92126 
vn 0 -0.385827 0.92126 
vn 0 0.385827 0.92126 
vn 0 0.385827 0.92126 
vn 0 0.385827 0.92126 
vn 0 0.385827 0.92126 
vn -0.84252 -0.362205 0.393701 
vn -0.84252 -0.362205 0.393701 
vn -0.84252 -0.362205 0.393701 
vn -0.84252 -0.362205 0.393701 
vn -0.84252 0.362205 0.393701 
vn -0.84252 0.362205 0.393701 
vn -0.84252 0.362205 0.393701 
vn -0.84252 0.362205 0.393701 
vn 0.84252 -0.362205 0.393701 
vn 0.84252 -0.362205 0.393701 
vn 0.84252 -0.362205 0.393701 
vn 0.84252 -0.362205 0.393701 
vn 0.84252 0.362205 0.393701 
vn 0.84252 0.362205 0.393701 
vn 0.84252 0.362205 0.393701 
vn 0.84252 0.362205 0.393701 
vn 0 -0.755906 0.661417 
vn 0 -0.755906 0.661417 
vn 0 -0.755906 0.661417 
vn 0 -0.755906 0.661417 
vn 0 -0.755906 0.661417 
vn 0 -0.755906 0.661417 
vn 0 -0.755906 0.661417 
vn 0 -0.755906 0.661417 
vn 0 -0.755906 0.661417 
vn 0 -0.755906 0.661417 
vn 0 -0.755906 0.661417 
vn 0 -0.755906 0.661417 
vn 0 0.755906 0.661417 
vn 0 0.755906 0.661417 
vn 0 0.755906 0.661417 
vn 0 0.755906 0.661417 
vn 0 0.755906 0.661417 
vn 0 0.755906 0.661417 
vn 0 0.755906 0.661417 
vn 0 0.755906 0.661417 
vn 0 0.755906 0.661417 
vn 0 0.755906 0.661417 
vn 0 0.755906 0.661417 
vn 0 0.755906 0.661417 
vn -0.92126 -0.385827 0 
vn -0.92126 -0.385827 0 
vn -0.92126 -0.385827 0 
vn -0.92126 -0.385827 0 
vn -0.92126 0.385827 0 
vn -0.92126 0.385827 0 
vn -0.92126 0.385827 0 
vn -0.92126 0.385827 0 
vn 0.92126 -0.385827 0 
vn 0.92126 -0.385827 0 
vn 0.92126 -0.385827 0 
vn 0.92126 -0.385827 0 
vn 0.92126 0.385827 0 
vn 0.92126 0.385827 0 
vn 0.92126 0.385827 0 
vn 0.92126 0.385827 0 
vn 0 -1 0 
vn 0 -1 0 
vn 0 -1 0 
vn 0 -1 0 
vn 0 -1 0 
vn 0 -1 0 
vn 0 -1 0 
vn 0 -1 0 
vn 0 -1 0 
vn 0 -1 0 
vn 0 -1 0 
vn 0 -1 0 
vn 0 -1 0 
vn 0 -1 0 
vn 0 -1 0 
vn 0 -1 0 
vn 0 1 0 
vn 0 1 0 
vn 0 1 0 
vn 0 1 0 
vn 0 1 0 
vn 0 1 0 
vn 0 1 0 
vn 0 1 0 
vn 0 1 0 
vn 0 1 0 
vn 0 1 0 
vn 0 1 0 
vn 0 1 0 
vn 0 1 0 
vn 0 1 0 
vn 0 1 0 
vn -0.244094 -0.92126 0.314961 
vn -0.244094 -0.92126 0.314961 
vn -0.244094 -0.92126 0.314961 
vn -0.244094 -0.92126 0.314961 
vn 0.244094 -0.92126 0.314961 
vn 0.244094 -0.92126 0.314961 
vn 0.244094 -0.92126 0.314961 
vn 0.244094 -0.92126 0.314961 
vn -0.244094 0.92126 0.314961 
vn -0.244094 0.92126 0.314961 
vn -0.244094 0.92126 0.314961 
vn -0.244094 0.92126 0.314961 
vn 0.244094 0.92126 0.314961 
vn 0.244094 0.92126 0.314961 
vn 0.244094 0.92126 0.314961 
vn 0.244094 0.92126 0.314961 
vn 0 -0.385827 0.92126 
vn 0 -0.385827 0.92126 
vn 0 -0.385827 0.92126 
vn 0 -0.385827 0.92126 
vn 0 -0.385827 0.92126 
vn 0 -0.385827 0.92126 
vn 0 -0.385827 0.92126 
vn 0 -0.385827 0.92126 
vn 0 0.385827 0.92126 
vn 0 0.385827 0.92126 
vn 0 0.385827 0.92126 
vn 0 0.385827 0.92126 
vn 0 0.385827 0.92126 
vn 0 0.385827 0.92126 
vn 0 0.385827 0.92126 
vn 0 0.385827 0.92126 
vn -0.0787402 -0.92126 0.385827 
vn -0.0787402 -0.92126 0.385827 
vn -0.0787402 -0.92126 0.385827 
vn -0.0787402 -0.92126 0.385827 
vn 0.0787402 -0.92126 0.385827 
vn 0.0787402 -0.92126 0.385827 
vn 0.0787402 -0.92126 0.385827 
vn 0.0787402 -0.92126 0.385827 
vn -0.0787402 0.92126 0.385827 
vn -0.0787402 0.92126 0.385827 
vn -0.0787402 0.92126 0.385827 
vn -0.0787402 0.92126 0.385827 
vn 0.0787402 0.92126 0.385827 
vn 0.0787402 0.92126 0.385827 
vn 0.0787402 0.92126 0.385827 
vn 0.0787402 0.92126 0.385827 
vn 0 0 1 
vn 0 0 1 
vn 0 0 1 
vn 0 0 1 
vn 0 0 1 
vn 0 0 1 
vn 0 0 1 
vn 0 0 1 
vn 0 0 1 
vn 0 0 1 
vn 0 0 1 
vn 0 0 1 
vn 0 0 1 
vn 0 0 1 
vn 0 0 1 
vn 0 0 1 
vn 0 0 1 
vn 0 0 1 
vn 0 0 1 
vn 0 0 1 
vn 0 0 1 
vn 0 0 1 
vn 0 0 1 
vn 0 0 1 
vn 0 0 1 
vn 0 0 1 
vn 0 0 1 
vn 0 0 1 
vn 0 0 1 
vn 0 0 1 
vn 0 0 1 
vn 0 0 1 
vn 0 0 1 
vn 0 0 1 
vn 0 -0.92126 0.385827 
vn 0 -0.92126 0.385827 
vn 0 -0.92126 0.385827 
vn 0 -0.92126 0.385827 
vn 0 0.92126 0.385827 
vn 0 0.92126 0.385827 
vn 0 0.92126 0.385827 
vn 0 0.92126 0.385827 
vn -0.362205 -0.913386 0.181102 
vn -0.362205 -0.913386 0.181102 
vn -0.362205 -0.913386 0.181102 
vn -0.362205 -0.913386 0.181102 
vn 0.362205 -0.913386 0.181102 
vn 0.362205 -0.913386 0.181102 
vn 0.362205 -0.913386 0.181102 
vn 0.362205 -0.913386 0.181102 
vn -0.362205 0.913386 0.181102 
vn -0.362205 0.913386 0.181102 
vn -0.362205 0.913386 0.181102 
vn -0.362205 0.913386 0.181102 
vn 0.362205 0.913386 0.181102 
vn 0.362205 0.913386 0.181102 
vn 0.362205 0.913386 0.181102 
vn 0.362205 0.913386 0.181102 
vn 0 -0.92126 0.385827 
vn 0 -0.92126 0.385827 
vn 0 -0.92126 0.385827 
vn 0 -0.92126 0.385827 
vn 0 -0.92126 0.385827 
vn 0 -0.92126 0.385827 
vn 0 -0.92126 0.385827 
vn 0 -0.92126 0.385827 
vn 0 0.92126 0.385827 
vn 0 0.92126 0.385827 
vn 0 0.92126 0.385827 
vn 0 0.92126 0.385827 
vn 0 0.92126 0.385827 
vn 0 0.92126 0.385827 
vn 0 0.92126 0.385827 
vn 0 0.92126 0.385827 
vn -0.385827 -0.92126 0 
vn -0.385827 -0.92126 0 
vn -0.385827 -0.92126 0 
vn -0.385827 -0.92126 0 
vn 0.385827 -0.92126 0 
vn 0.385827 -0.92126 0 
vn 0.385827 -0.92126 0 
vn 0.385827 -0.92126 0 
vn -0.385827 0.92126 0 
vn -0.385827 0.92126 0 
vn -0.385827 0.92126 0 
vn -0.385827 0.92126 0 
vn 0.385827 0.92126 0 
vn 0.385827 0.92126 0 
vn 0.385827 0.92126 0 
vn 0.385827 0.92126 0 
vn 0 -0.385827 0.92126 
vn 0 -0.385827 0.92126 
vn 0 -0.385827 0.92126 
vn 0 -0.385827 0.92126 
vn 0 -0.385827 0.92126 
vn 0 -0.385827 0.92126 
vn 0 -0.385827 0.92126 
vn 0 -0.385827 0.92126 
vn 0 0.385827 0.92126 
vn 0 0.385827 0.92126 
vn 0 0.385827 0.92126 
vn 0 0.385827 0.92126 
vn 0 0.385827 0.92126 
vn 0 0.385827 0.92126 
vn 0 0.385827 0.92126 
vn 0 0.385827 0.92126 
vn 0 0 1 
vn 0 0 1 
vn 0 0 1 
vn 0 0 1 
vn 0 0 1 
vn 0 0 1 
vn 0 0 1 
vn 0 0 1 
vn 0 -0.92126 -0.385827 
vn 0 -0.92126 -0.385827 
vn 0 -0.92126 -0.385827 
vn 0 -0.92126 -0.385827 
vn 0 -0.92126 -0.385827 
vn 0 -0.92126 -0.385827 
vn 0 -0.92126 -0.385827 
vn 0 -0.92126 -0.385827 
vn 0 0.92126 -0.385827 
vn 0 0.92126 -0.385827 
vn 0 0.92126 -0.385827 
vn 0 0.92126 -0.385827 
vn 0 0.92126 -0.385827 
vn 0 0.92126 -0.385827 
vn 0 0.92126 -0.385827 
vn 0 0.92126 -0.385827 
vn 0 -1 0 
vn 0 -1 0 
vn 0 -1 0 
vn 0 -1 0 
vn 0 -1 0 
vn 0 -1 0 
vn 0 -1 0 
vn 0 -1 0 
vn 0 1 0 
vn 0 1 0 
vn 0 1 0 
vn 0 1 0 
vn 0 1 0 
vn 0 1 0 
vn 0 1 0 
vn 0 1 0 
vn 0 -0.92126 0.385827 
vn 0 -0.92126 0.385827 
vn 0 -0.92126 0.385827 
vn 0 -0.92126 0.385827 
vn 0 -0.92126 0.385827 
vn 0 -0.92126 0.385827 
vn 0 -0.92126 0.385827 
vn 0 -0.92126 0.385827 
vn 0 0.92126 0.385827 
vn 0 0.92126 0.385827 
vn 0 0.92126 0.385827 
vn 0 0.92126 0.385827 
vn 0 0.92126 0.385827 
vn 0 0.92126 0.385827 
vn 0 0.92126 0.385827 
vn 0 0.92126 0.385827 
vn -0.385827 -0.92126 0 
vn -0.385827 -0.92126 0 
vn -0.385827 -0.92126 0 
vn -0.385827 -0.92126 0 
vn 0.385827 -0.92126 0 
vn 0.385827 -0.92126 0 
vn 0.385827 -0.92126 0 
vn 0.385827 -0.92126 0 
vn -0.385827 0.92126 0 
vn -0.385827 0.92126 0 
vn -0.385827 0.92126 0 
vn -0.385827 0.92126 0 
vn 0.385827 0.92126 0 
vn 0.385827 0.92126 0 
vn 0.385827 0.92126 0 
vn 0.385827 0.92126 0 
vn 0 -0.385827 -0.92126 
vn 0 -0.385827 -0.92126 
vn 0 -0.385827 -0.92126 
vn 0 -0.385827 -0.92126 
vn 0 -0.385827 -0.92126 
vn 0 -0.385827 -0.92126 
vn 0 -0.385827 -0.92126 
vn 0 -0.385827 -0.92126 
vn 0 0.385827 -0.92126 
vn 0 0.385827 -0.92126 
vn 0 0.385827 -0.92126 
vn 0 0.385827 -0.92126 
vn 0 0.385827 -0.92126 
vn 0 0.385827 -0.92126 
vn 0 0.385827 -0.92126 
vn 0 0.385827 -0.92126 
vn 0 -0.92126 -0.385827 
vn 0 -0.92126 -0.385827 
vn 0 -0.92126 -0.385827 
vn 0 -0.92126 -0.385827 
vn 0 -0.92126 -0.385827 
vn 0 -0.92126 -0.385827 
vn 0 -0.92126 -0.385827 
vn 0 -0.92126 -0.385827 
vn 0 -0.92126 -0.385827 
vn 0 -0.92126 -0.385827 
vn 0 -0.92126 -0.385827 
vn 0 -0.92126 -0.385827 
vn 0 0.92126 -0.385827 
vn 0 0.92126 -0.385827 
vn 0 0.92126 -0.385827 
vn 0 0.92126 -0.385827 
vn 0 0.92126 -0.385827 
vn 0 0.92126 -0.385827 
vn 0 0.92126 -0.385827 
vn 0 0.92126 -0.385827 
vn 0 0.92126 -0.385827 
vn 0 0.92126 -0.385827 
vn 0 0.92126 -0.385827 
vn 0 0.92126 -0.385827 
vn -0.354331 -0.913386 -0.204724 
vn -0.354331 -0.913386 -0.204724 
vn -0.354331 -0.913386 -0.204724 
vn -0.354331 -0.913386 -0.204724 
vn 0.354331 -0.913386 -0.204724 
vn 0.354331 -0.913386 -0.204724 
vn 0.354331 -0.913386 -0.204724 
vn 0.354331 -0.913386 -0.204724 
vn -0.354331 0.913386 -0.204724 
vn -0.354331 0.913386 -0.204724 
vn -0.354331 0.913386 -0.204724 
vn -0.354331 0.913386 -0.204724 
vn 0.354331 0.913386 -0.204724 
vn 0.354331 0.913386 -0.204724 
vn 0.354331 0.913386 -0.204724 
vn 0.354331 0.913386 -0.204724 
vn -0.0708661 -0.92126 -0.385827 
vn -0.0708661 -0.92126 -0.385827 
vn -0.0708661 -0.92126 -0.385827 
vn -0.0708661 -0.92126 -0.385827 
vn 0.0708661 -0.92126 -0.385827 
vn 0.0708661 -0.92126 -0.385827 
vn 0.0708661 -0.92126 -0.385827 
vn 0.0708661 -0.92126 -0.385827 
vn -0.0708661 0.92126 -0.385827 
vn -0.0708661 0.92126 -0.385827 
vn -0.0708661 0.92126 -0.385827 
vn -0.0708661 0.92126 -0.385827 
vn 0.0708661 0.92126 -0.385827 
vn 0.0708661 0.92126 -0.385827 
vn 0.0708661 0.92126 -0.385827 
vn 0.0708661 0.92126 -0.385827 
vn -0.23622 -0.92126 -0.314961 
vn -0.23622 -0.92126 -0.314961 
vn -0.23622 -0.92126 -0.314961 
vn -0.23622 -0.92126 -0.314961 
vn 0.23622 -0.92126 -0.314961 
vn 0.23622 -0.92126 -0.314961 
vn 0.23622 -0.92126 -0.314961 
vn 0.23622 -0.92126 -0.314961 
vn -0.23622 0.92126 -0.314961 
vn -0.23622 0.92126 -0.314961 
vn -0.23622 0.92126 -0.314961 
vn -0.23622 0.92126 -0.314961 
vn 0.23622 0.92126 -0.314961 
vn 0.23622 0.92126 -0.314961 
vn 0.23622 0.92126 -0.314961 
vn 0.23622 0.92126 -0.314961 
vn 0 -0.385827 -0.92126 
vn 0 -0.385827 -0.92126 
vn 0 -0.385827 -0.92126 
vn 0 -0.385827 -0.92126 
vn 0 -0.385827 -0.92126 
vn 0 -0.385827 -0.92126 
vn 0 -0.385827 -0.92126 
vn 0 -0.385827 -0.92126 
vn 0 0.385827 -0.92126 
vn 0 0.385827 -0.92126 
vn 0 0.385827 -0.92126 
vn 0 0.385827 -0.92126 
vn 0 0.385827 -0.92126 
vn 0 0.385827 -0.92126 
vn 0 0.385827 -0.92126 
vn 0 0.385827 -0.92126 
vn -0.92126 -0.385827 0 
vn -0.92126 -0.385827 0 
vn -0.92126 -0.385827 0 
vn -0.92126 -0.385827 0 
vn -0.92126 0.385827 0 
vn -0.92126 0.385827 0 
vn -0.92126 0.385827 0 
vn -0.92126 0.385827 0 
vn 0.92126 -0.385827 0 
vn 0.92126 -0.385827 0 
vn 0.92126 -0.385827 0 
vn 0.92126 -0.385827 0 
vn 0.92126 0.385827 0 
vn 0.92126 0.385827 0 
vn 0.92126 0.385827 0 
vn 0.92126 0.385827 0 
vn 0 -0.385827 -0.92126 
vn 0 -0.385827 -0.92126 
vn 0 -0.385827 -0.92126 
vn 0 -0.385827 -0.92126 
vn 0 0.385827 -0.92126 
vn 0 0.385827 -0.92126 
vn 0 0.385827 -0.92126 
vn 0 0.385827 -0.92126 
vn -0.755906 -0.354331 -0.551181 
vn -0.755906 -0.354331 -0.551181 
vn -0.755906 -0.354331 -0.551181 
vn -0.755906 -0.354331 -0.551181 
vn -0.755906 0.354331 -0.551181 
vn -0.755906 0.354331 -0.551181 
vn -0.755906 0.354331 -0.551181 
vn -0.755906 0.354331 -0.551181 
vn 0.755906 -0.354331 -0.551181 
vn 0.755906 -0.354331 -0.551181 
vn 0.755906 -0.354331 -0.551181 
vn 0.755906 -0.354331 -0.551181 
vn 0.755906 0.354331 -0.551181 
vn 0.755906 0.354331 -0.551181 
vn 0.755906 0.354331 -0.551181 
vn 0.755906 0.354331 -0.551181 
vn -0.173228 -0.377953 -0.913386 
vn -0.173228 -0.377953 -0.913386 
vn -0.173228 -0.377953 -0.913386 
vn -0.173228 -0.377953 -0.913386 
vn -0.173228 0.377953 -0.913386 
vn -0.173228 0.377953 -0.913386 
vn -0.173228 0.377953 -0.913386 
vn -0.173228 0.377953 -0.913386 
vn 0.173228 -0.377953 -0.913386 
vn 0.173228 -0.377953 -0.913386 
vn 0.173228 -0.377953 -0.913386 
vn 0.173228 -0.377953 -0.913386 
vn 0.173228 0.377953 -0.913386 
vn 0.173228 0.377953 -0.913386 
vn 0.173228 0.377953 -0.913386 
vn 0.173228 0.377953 -0.913386 
vn -0.551181 -0.370079 -0.748031 
vn -0.551181 -0.370079 -0.748031 
vn -0.551181 -0.370079 -0.748031 
vn -0.551181 -0.370079 -0.748031 
vn -0.551181 0.370079 -0.748031 
vn -0.551181 0.370079 -0.748031 
vn -0.551181 0.370079 -0.748031 
vn -0.551181 0.370079 -0.748031 
vn 0.551181 -0.370079 -0.748031 
vn 0.551181 -0.370079 -0.748031 
vn 0.551181 -0.370079 -0.748031 
vn 0.551181 -0.370079 -0.748031 
vn 0.551181 0.370079 -0.748031 
vn 0.551181 0.370079 -0.748031 
vn 0.551181 0.370079 -0.748031 
vn 0.551181 0.370079 -0.748031 
vn -1 0 0 
vn -1 0 0 
vn -1 0 0 
vn -1 0 0 
vn 1 0 0 
vn 1 0 0 
vn 1 0 0 
vn 1 0 0 
vn -1 0 0 
vn -1 0 0 
vn -1 0 0 
vn -1 0 0 
vn -1 0 0 
vn -1 0 0 
vn -1 0 0 
vn -1 0 0 
vn -1 0 0 
vn -1 0 0 
vn -1 0 0 
vn -1 0 0 
vn -1 0 0 
vn -1 0 0 
vn -1 0 0 
vn -1 0 0 
vn -1 0 0 
vn -1 0 0 
vn -1 0 0 
vn -1 0 0 
vn -1 0 0 
vn -1 0 0 
vn -1 0 0 
vn -1 0 0 
vn -1 0 0 
vn -1 0 0 
vn -1 0 0 
vn -1 0 0 
vn -1 0 0 
vn -1 0 0 
vn 1 0 0 
vn 1 0 0 
vn 1 0 0 
vn 1 0 0 
vn 1 0 0 
vn 1 0 0 
vn 1 0 0 
vn 1 0 0 
vn 1 0 0 
vn 1 0 0 
vn 1 0 0 
vn 1 0 0 
vn 1 0 0 
vn 1 0 0 
vn 1 0 0 
vn 1 0 0 
vn 1 0 0 
vn 1 0 0 
vn 1 0 0 
vn 1 0 0 
vn 1 0 0 
vn 1 0 0 
vn 1 0 0 
vn 1 0 0 
vn 1 0 0 
vn 1 0 0 
vn 1 0 0 
vn 1 0 0 
vn 1 0 0 
vn 1 0 0 

vt 0.172597 0.961011 
vt 0.172597 0.961011 
vt 0.1712 0.959614 
vt 0.1712 0.959614 
vt 0.138589 0.959614 
vt 0.138589 0.959614 
vt 0.137191 0.961011 
vt 0.137191 0.961011 
vt 0.147362 0.959002 
vt 0.139503 0.959002 
vt 0.139503 0.959002 
vt 0.147362 0.959002 
vt 0.162426 0.959002 
vt 0.170285 0.959002 
vt 0.170285 0.959002 
vt 0.162426 0.959002 
vt 0.147362 0.959614 
vt 0.162426 0.959614 
vt 0.162426 0.959614 
vt 0.147362 0.959614 
vt 0.138589 0.959614 
vt 0.1712 0.959614 
vt 0.170285 0.959614 
vt 0.139503 0.959614 
vt 0.138589 0.959614 
vt 0.139503 0.959614 
vt 0.1712 0.959614 
vt 0.138589 0.959614 
vt 0.162426 0.959614 
vt 0.170285 0.959614 
vt 0.1712 0.959614 
vt 0.147362 0.959614 
vt 0.139503 0.959614 
vt 0.170285 0.959614 
vt 0.172597 0.961011 
vt 0.1712 0.959614 
vt 0.170981 0.960142 
vt 0.172069 0.96123 
vt 0.172069 0.96123 
vt 0.170981 0.960142 
vt 0.1712 0.959614 
vt 0.172597 0.961011 
vt 0.138589 0.959614 
vt 0.137191 0.961011 
vt 0.13772 0.96123 
vt 0.138808 0.960142 
vt 0.137191 0.961011 
vt 0.138808 0.960142 
vt 0.13772 0.96123 
vt 0.138589 0.959614 
vt 0.172597 0.961011 
vt 0.172597 0.983507 
vt 0.172597 0.983507 
vt 0.172597 0.961011 
vt 0.137191 0.983507 
vt 0.137191 0.961011 
vt 0.137191 0.961011 
vt 0.137191 0.983507 
vt 0.1712 0.959614 
vt 0.138589 0.959614 
vt 0.138808 0.960142 
vt 0.170981 0.960142 
vt 0.138589 0.959614 
vt 0.1712 0.959614 
vt 0.170981 0.960142 
vt 0.138808 0.960142 
vt 0.170285 0.959002 
vt 0.170285 0.959614 
vt 0.170285 0.959614 
vt 0.170285 0.959002 
vt 0.139503 0.959002 
vt 0.139503 0.959002 
vt 0.139503 0.959614 
vt 0.139503 0.959614 
vt 0.172069 0.96123 
vt 0.172069 0.983288 
vt 0.172597 0.983507 
vt 0.172597 0.961011 
vt 0.172597 0.961011 
vt 0.172069 0.983288 
vt 0.172069 0.96123 
vt 0.172597 0.983507 
vt 0.13772 0.983288 
vt 0.137191 0.961011 
vt 0.137191 0.983507 
vt 0.13772 0.96123 
vt 0.13772 0.96123 
vt 0.137191 0.983507 
vt 0.137191 0.961011 
vt 0.13772 0.983288 
vt 0.172597 0.983507 
vt 0.1712 0.984904 
vt 0.1712 0.984904 
vt 0.172597 0.983507 
vt 0.137191 0.983507 
vt 0.137191 0.983507 
vt 0.138589 0.984904 
vt 0.138589 0.984904 
vt 0.172069 0.983288 
vt 0.170981 0.984376 
vt 0.1712 0.984904 
vt 0.172597 0.983507 
vt 0.172597 0.983507 
vt 0.1712 0.984904 
vt 0.170981 0.984376 
vt 0.172069 0.983288 
vt 0.137191 0.983507 
vt 0.138808 0.984376 
vt 0.13772 0.983288 
vt 0.138589 0.984904 
vt 0.138589 0.984904 
vt 0.137191 0.983507 
vt 0.13772 0.983288 
vt 0.138808 0.984376 
vt 0.161913 0.98459 
vt 0.161913 0.98459 
vt 0.161913 0.984422 
vt 0.161913 0.984422 
vt 0.161913 0.984904 
vt 0.161913 0.984904 
vt 0.161913 0.984017 
vt 0.161913 0.984017 
vt 0.161913 0.983613 
vt 0.161913 0.983613 
vt 0.161913 0.983445 
vt 0.161913 0.983445 
vt 0.161913 0.983161 
vt 0.161913 0.983161 
vt 0.161913 0.984904 
vt 0.161913 0.98459 
vt 0.161913 0.984422 
vt 0.161913 0.984017 
vt 0.161913 0.983161 
vt 0.161913 0.984376 
vt 0.161913 0.983613 
vt 0.161913 0.983445 
vt 0.161913 0.983161 
vt 0.161913 0.983445 
vt 0.161913 0.983613 
vt 0.161913 0.984904 
vt 0.161913 0.984376 
vt 0.161913 0.984017 
vt 0.161913 0.984422 
vt 0.161913 0.98459 
vt 0.147876 0.983161 
vt 0.147876 0.984017 
vt 0.147876 0.983613 
vt 0.147876 0.984904 
vt 0.147876 0.984376 
vt 0.147876 0.983445 
vt 0.147876 0.984422 
vt 0.147876 0.98459 
vt 0.147876 0.983445 
vt 0.147876 0.983613 
vt 0.147876 0.983613 
vt 0.147876 0.983445 
vt 0.147876 0.983161 
vt 0.147876 0.983161 
vt 0.147876 0.984017 
vt 0.147876 0.984017 
vt 0.147876 0.984422 
vt 0.147876 0.984422 
vt 0.147876 0.98459 
vt 0.147876 0.98459 
vt 0.147876 0.984904 
vt 0.147876 0.984904 
vt 0.147876 0.983161 
vt 0.147876 0.983445 
vt 0.147876 0.983613 
vt 0.147876 0.984017 
vt 0.147876 0.984904 
vt 0.147876 0.984376 
vt 0.147876 0.984422 
vt 0.147876 0.98459 
vt 0.0540416 0.977435 
vt 0.0518842 0.979734 
vt 0.0544523 0.977723 
vt 0.0516723 0.97928 
vt 0.0516723 0.97928 
vt 0.0540416 0.977435 
vt 0.0518842 0.979734 
vt 0.0544523 0.977723 
vt 0.0357801 0.979734 
vt 0.0336227 0.977435 
vt 0.033212 0.977723 
vt 0.035992 0.97928 
vt 0.035992 0.97928 
vt 0.0357801 0.979734 
vt 0.0336227 0.977435 
vt 0.033212 0.977723 
vt 0.0516723 0.97928 
vt 0.0481578 0.980478 
vt 0.0518842 0.979734 
vt 0.0481578 0.979977 
vt 0.0518842 0.979734 
vt 0.0481578 0.980478 
vt 0.0516723 0.97928 
vt 0.0481578 0.979977 
vt 0.0395066 0.980478 
vt 0.035992 0.97928 
vt 0.0357801 0.979734 
vt 0.0395066 0.979977 
vt 0.035992 0.97928 
vt 0.0395066 0.979977 
vt 0.0395066 0.980478 
vt 0.0357801 0.979734 
vt 0.0481578 0.980478 
vt 0.0395066 0.979977 
vt 0.0395066 0.980478 
vt 0.0481578 0.979977 
vt 0.0395066 0.979977 
vt 0.0481578 0.979977 
vt 0.0481578 0.980478 
vt 0.0395066 0.980478 
vt 0.055218 0.974946 
vt 0.0540416 0.977435 
vt 0.0557193 0.974946 
vt 0.0544523 0.977723 
vt 0.0557193 0.974946 
vt 0.0540416 0.977435 
vt 0.055218 0.974946 
vt 0.0544523 0.977723 
vt 0.0336227 0.977435 
vt 0.031945 0.974946 
vt 0.033212 0.977723 
vt 0.0324464 0.974946 
vt 0.0336227 0.977435 
vt 0.031945 0.974946 
vt 0.0324464 0.974946 
vt 0.033212 0.977723 
vt 0.161913 0.984904 
vt 0.147876 0.984376 
vt 0.147876 0.984904 
vt 0.161913 0.984376 
vt 0.142486 0.984904 
vt 0.138808 0.984376 
vt 0.138589 0.984904 
vt 0.142486 0.984376 
vt 0.167303 0.984904 
vt 0.170981 0.984376 
vt 0.167303 0.984376 
vt 0.1712 0.984904 
vt 0.138808 0.984376 
vt 0.142486 0.984376 
vt 0.142486 0.984904 
vt 0.138589 0.984904 
vt 0.147876 0.984376 
vt 0.161913 0.984904 
vt 0.147876 0.984904 
vt 0.161913 0.984376 
vt 0.170981 0.984376 
vt 0.167303 0.984904 
vt 0.167303 0.984376 
vt 0.1712 0.984904 
vt 0.055218 0.971121 
vt 0.0557193 0.974946 
vt 0.0557193 0.971121 
vt 0.055218 0.974946 
vt 0.0557193 0.971121 
vt 0.055218 0.974946 
vt 0.055218 0.971121 
vt 0.0557193 0.974946 
vt 0.031945 0.974946 
vt 0.0324464 0.971121 
vt 0.031945 0.971121 
vt 0.0324464 0.974946 
vt 0.0324464 0.974946 
vt 0.031945 0.971121 
vt 0.0324464 0.971121 
vt 0.031945 0.974946 
vt 0.161913 0.983161 
vt 0.138808 0.960142 
vt 0.147876 0.983161 
vt 0.170981 0.960142 
vt 0.161913 0.984376 
vt 0.172069 0.96123 
vt 0.167303 0.983161 
vt 0.13772 0.96123 
vt 0.142486 0.983161 
vt 0.147876 0.984376 
vt 0.13772 0.983288 
vt 0.138808 0.984376 
vt 0.142486 0.984376 
vt 0.170981 0.984376 
vt 0.172069 0.983288 
vt 0.167303 0.984376 
vt 0.0476643 0.0181332 
vt 0.697716 0.66575 
vt 0.302774 0.66575 
vt 0.952826 0.0181332 
vt 0.0170545 0.0487429 
vt 0.983436 0.048743 
vt 0.849347 0.66575 
vt 0.697716 0.699924 
vt 0.302774 0.699924 
vt 0.151143 0.66575 
vt 0.0170544 0.669315 
vt 0.0476642 0.699924 
vt 0.151143 0.699924 
vt 0.952826 0.699924 
vt 0.849347 0.699924 
vt 0.983435 0.669315 
vt 0.0530501 0.976741 
vt 0.0516723 0.97928 
vt 0.0540416 0.977435 
vt 0.0511608 0.978182 
vt 0.0346143 0.976741 
vt 0.035992 0.97928 
vt 0.0365036 0.978182 
vt 0.0336227 0.977435 
vt 0.0516723 0.97928 
vt 0.0530501 0.976741 
vt 0.0540416 0.977435 
vt 0.0511608 0.978182 
vt 0.035992 0.97928 
vt 0.0336227 0.977435 
vt 0.0346143 0.976741 
vt 0.0365036 0.978182 
vt 0.0271013 0.970372 
vt 0.0142544 0.969972 
vt 0.0142544 0.970372 
vt 0.0271013 0.969972 
vt 0.07341 0.969972 
vt 0.060563 0.970372 
vt 0.07341 0.970372 
vt 0.060563 0.969972 
vt 0.07341 0.970372 
vt 0.060563 0.970372 
vt 0.07341 0.969972 
vt 0.060563 0.969972 
vt 0.0142544 0.969972 
vt 0.0271013 0.970372 
vt 0.0142544 0.970372 
vt 0.0271013 0.969972 
vt 0.0511608 0.978182 
vt 0.0481578 0.979977 
vt 0.0516723 0.97928 
vt 0.0481578 0.978767 
vt 0.0395066 0.979977 
vt 0.0365036 0.978182 
vt 0.035992 0.97928 
vt 0.0395066 0.978767 
vt 0.0516723 0.97928 
vt 0.0481578 0.979977 
vt 0.0511608 0.978182 
vt 0.0481578 0.978767 
vt 0.0395066 0.979977 
vt 0.0365036 0.978182 
vt 0.0395066 0.978767 
vt 0.035992 0.97928 
vt 0.1712 0.984904 
vt 0.167303 0.984904 
vt 0.167303 0.984904 
vt 0.1712 0.984904 
vt 0.142486 0.984904 
vt 0.138589 0.984904 
vt 0.138589 0.984904 
vt 0.142486 0.984904 
vt 0.158445 0.984904 
vt 0.151134 0.984904 
vt 0.151344 0.984904 
vt 0.158655 0.984904 
vt 0.147876 0.984904 
vt 0.150626 0.984904 
vt 0.161913 0.984904 
vt 0.159163 0.984904 
vt 0.159671 0.984904 
vt 0.159881 0.984904 
vt 0.161913 0.984904 
vt 0.147876 0.984904 
vt 0.149908 0.984904 
vt 0.150118 0.984904 
vt 0.158655 0.984904 
vt 0.161913 0.984904 
vt 0.159163 0.984904 
vt 0.151134 0.984904 
vt 0.158445 0.984904 
vt 0.159881 0.984904 
vt 0.159671 0.984904 
vt 0.147876 0.984904 
vt 0.151344 0.984904 
vt 0.150626 0.984904 
vt 0.149908 0.984904 
vt 0.150118 0.984904 
vt 0.0395066 0.979977 
vt 0.0481578 0.979977 
vt 0.0481578 0.978767 
vt 0.0395066 0.978767 
vt 0.0481578 0.978767 
vt 0.0395066 0.979977 
vt 0.0395066 0.978767 
vt 0.0481578 0.979977 
vt 0.0540416 0.977435 
vt 0.0540075 0.974946 
vt 0.0530501 0.976741 
vt 0.055218 0.974946 
vt 0.0336568 0.974946 
vt 0.0336227 0.977435 
vt 0.0346143 0.976741 
vt 0.0324464 0.974946 
vt 0.055218 0.974946 
vt 0.0540416 0.977435 
vt 0.0540075 0.974946 
vt 0.0530501 0.976741 
vt 0.0336227 0.977435 
vt 0.0324464 0.974946 
vt 0.0336568 0.974946 
vt 0.0346143 0.976741 
vt 0.07341 0.969007 
vt 0.060563 0.969007 
vt 0.07341 0.969972 
vt 0.060563 0.969972 
vt 0.0271013 0.969972 
vt 0.0142544 0.969007 
vt 0.0142544 0.969972 
vt 0.0271013 0.969007 
vt 0.0142544 0.969007 
vt 0.0271013 0.969972 
vt 0.0142544 0.969972 
vt 0.0271013 0.969007 
vt 0.07341 0.969972 
vt 0.060563 0.969972 
vt 0.07341 0.969007 
vt 0.060563 0.969007 
vt 0.055218 0.974946 
vt 0.0540075 0.971121 
vt 0.0540075 0.974946 
vt 0.055218 0.971121 
vt 0.0336568 0.974946 
vt 0.0336568 0.971121 
vt 0.0324464 0.974946 
vt 0.0324464 0.971121 
vt 0.055218 0.971121 
vt 0.055218 0.974946 
vt 0.0540075 0.971121 
vt 0.0540075 0.974946 
vt 0.0336568 0.971121 
vt 0.0324464 0.974946 
vt 0.0324464 0.971121 
vt 0.0336568 0.974946 
vt 0.0142544 0.970372 
vt 0.0271013 0.969972 
vt 0.0142544 0.969972 
vt 0.0271013 0.970372 
vt 0.07341 0.969972 
vt 0.060563 0.969972 
vt 0.07341 0.970372 
vt 0.060563 0.970372 
vt 0.07341 0.970372 
vt 0.060563 0.969972 
vt 0.07341 0.969972 
vt 0.060563 0.970372 
vt 0.0271013 0.969972 
vt 0.0142544 0.970372 
vt 0.0142544 0.969972 
vt 0.0271013 0.970372 
vt 0.147876 0.983161 
vt 0.142486 0.983161 
vt 0.142486 0.983161 
vt 0.147876 0.983161 
vt 0.167303 0.983161 
vt 0.161913 0.983161 
vt 0.161913 0.983161 
vt 0.167303 0.983161 
vt 0.0271013 0.969007 
vt 0.0142544 0.968042 
vt 0.0142544 0.969007 
vt 0.0271013 0.968042 
vt 0.07341 0.968042 
vt 0.060563 0.969007 
vt 0.07341 0.969007 
vt 0.060563 0.968042 
vt 0.0142544 0.968042 
vt 0.0271013 0.969007 
vt 0.0142544 0.969007 
vt 0.0271013 0.968042 
vt 0.07341 0.969007 
vt 0.060563 0.969007 
vt 0.07341 0.968042 
vt 0.060563 0.968042 
vt 0.162426 0.959614 
vt 0.170285 0.959614 
vt 0.170285 0.959002 
vt 0.162426 0.959002 
vt 0.147362 0.959614 
vt 0.139503 0.959002 
vt 0.139503 0.959614 
vt 0.147362 0.959002 
vt 0.147362 0.959614 
vt 0.139503 0.959614 
vt 0.147362 0.959002 
vt 0.139503 0.959002 
vt 0.162426 0.959002 
vt 0.170285 0.959002 
vt 0.170285 0.959614 
vt 0.162426 0.959614 
vt 0.0271013 0.969972 
vt 0.0142544 0.969007 
vt 0.0142544 0.969972 
vt 0.0271013 0.969007 
vt 0.07341 0.969007 
vt 0.060563 0.969007 
vt 0.07341 0.969972 
vt 0.060563 0.969972 
vt 0.07341 0.969972 
vt 0.060563 0.969972 
vt 0.07341 0.969007 
vt 0.060563 0.969007 
vt 0.0142544 0.969007 
vt 0.0271013 0.969972 
vt 0.0142544 0.969972 
vt 0.0271013 0.969007 
vt 0.0348673 0.974946 
vt 0.0348673 0.971121 
vt 0.0336568 0.974946 
vt 0.0336568 0.971121 
vt 0.0540075 0.974946 
vt 0.0527971 0.971121 
vt 0.0527971 0.974946 
vt 0.0540075 0.971121 
vt 0.0348673 0.971121 
vt 0.0348673 0.974946 
vt 0.0336568 0.971121 
vt 0.0336568 0.974946 
vt 0.0540075 0.971121 
vt 0.0540075 0.974946 
vt 0.0527971 0.971121 
vt 0.0527971 0.974946 
vt 0.0142544 0.968042 
vt 0.0271013 0.967642 
vt 0.0142544 0.967642 
vt 0.0271013 0.968042 
vt 0.060563 0.967642 
vt 0.07341 0.968042 
vt 0.07341 0.967642 
vt 0.060563 0.968042 
vt 0.0142544 0.967642 
vt 0.0271013 0.968042 
vt 0.0142544 0.968042 
vt 0.0271013 0.967642 
vt 0.07341 0.968042 
vt 0.060563 0.967642 
vt 0.07341 0.967642 
vt 0.060563 0.968042 
vt 0.0395066 0.978767 
vt 0.0481578 0.978767 
vt 0.0481578 0.977556 
vt 0.0395066 0.977556 
vt 0.0271013 0.969007 
vt 0.0142544 0.968042 
vt 0.0142544 0.969007 
vt 0.0271013 0.968042 
vt 0.07341 0.968042 
vt 0.060563 0.968042 
vt 0.07341 0.969007 
vt 0.060563 0.969007 
vt 0.0395066 0.977556 
vt 0.0481578 0.977556 
vt 0.0481578 0.978767 
vt 0.0395066 0.978767 
vt 0.0142544 0.968042 
vt 0.0271013 0.969007 
vt 0.0142544 0.969007 
vt 0.0271013 0.968042 
vt 0.07341 0.969007 
vt 0.060563 0.969007 
vt 0.07341 0.968042 
vt 0.060563 0.968042 
vt 0.0348673 0.974946 
vt 0.0346143 0.976741 
vt 0.0356058 0.976047 
vt 0.0336568 0.974946 
vt 0.0530501 0.976741 
vt 0.0527971 0.974946 
vt 0.0520586 0.976047 
vt 0.0540075 0.974946 
vt 0.0346143 0.976741 
vt 0.0336568 0.974946 
vt 0.0348673 0.974946 
vt 0.0356058 0.976047 
vt 0.0540075 0.974946 
vt 0.0530501 0.976741 
vt 0.0527971 0.974946 
vt 0.0520586 0.976047 
vt 0.0395066 0.978767 
vt 0.0370151 0.977085 
vt 0.0365036 0.978182 
vt 0.0395066 0.977556 
vt 0.0506492 0.977085 
vt 0.0481578 0.978767 
vt 0.0511608 0.978182 
vt 0.0481578 0.977556 
vt 0.0395066 0.978767 
vt 0.0370151 0.977085 
vt 0.0395066 0.977556 
vt 0.0365036 0.978182 
vt 0.0481578 0.977556 
vt 0.0506492 0.977085 
vt 0.0481578 0.978767 
vt 0.0511608 0.978182 
vt 0.0356058 0.976047 
vt 0.0365036 0.978182 
vt 0.0370151 0.977085 
vt 0.0346143 0.976741 
vt 0.0520586 0.976047 
vt 0.0511608 0.978182 
vt 0.0530501 0.976741 
vt 0.0506492 0.977085 
vt 0.0365036 0.978182 
vt 0.0356058 0.976047 
vt 0.0370151 0.977085 
vt 0.0346143 0.976741 
vt 0.0511608 0.978182 
vt 0.0520586 0.976047 
vt 0.0530501 0.976741 
vt 0.0506492 0.977085 
vt 0.07341 0.967642 
vt 0.060563 0.968042 
vt 0.07341 0.968042 
vt 0.060563 0.967642 
vt 0.0142544 0.968042 
vt 0.0271013 0.968042 
vt 0.0142544 0.967642 
vt 0.0271013 0.967642 
vt 0.060563 0.968042 
vt 0.07341 0.967642 
vt 0.07341 0.968042 
vt 0.060563 0.967642 
vt 0.0142544 0.967642 
vt 0.0271013 0.968042 
vt 0.0142544 0.968042 
vt 0.0271013 0.967642 
vt 0.0348673 0.971121 
vt 0.0353687 0.974946 
vt 0.0353687 0.971121 
vt 0.0348673 0.974946 
vt 0.0353687 0.971121 
vt 0.0348673 0.974946 
vt 0.0348673 0.971121 
vt 0.0353687 0.974946 
vt 0.0522957 0.974946 
vt 0.0527971 0.971121 
vt 0.0522957 0.971121 
vt 0.0527971 0.974946 
vt 0.0527971 0.974946 
vt 0.0522957 0.971121 
vt 0.0527971 0.971121 
vt 0.0522957 0.974946 
vt 0.0481578 0.977055 
vt 0.0395066 0.977055 
vt 0.0395066 0.977556 
vt 0.0481578 0.977556 
vt 0.0481578 0.977556 
vt 0.0395066 0.977556 
vt 0.0395066 0.977055 
vt 0.0481578 0.977055 
vt 0.0353687 0.974946 
vt 0.0348673 0.974946 
vt 0.0360165 0.975759 
vt 0.0356058 0.976047 
vt 0.0348673 0.974946 
vt 0.0360165 0.975759 
vt 0.0356058 0.976047 
vt 0.0353687 0.974946 
vt 0.0516478 0.975759 
vt 0.0527971 0.974946 
vt 0.0522957 0.974946 
vt 0.0520586 0.976047 
vt 0.0527971 0.974946 
vt 0.0516478 0.975759 
vt 0.0522957 0.974946 
vt 0.0520586 0.976047 
vt 0.037227 0.976631 
vt 0.0395066 0.977556 
vt 0.0395066 0.977055 
vt 0.0370151 0.977085 
vt 0.0395066 0.977556 
vt 0.0370151 0.977085 
vt 0.037227 0.976631 
vt 0.0395066 0.977055 
vt 0.0504373 0.976631 
vt 0.0481578 0.977556 
vt 0.0506492 0.977085 
vt 0.0481578 0.977055 
vt 0.0481578 0.977556 
vt 0.0504373 0.976631 
vt 0.0506492 0.977085 
vt 0.0481578 0.977055 
vt 0.0360165 0.975759 
vt 0.0370151 0.977085 
vt 0.037227 0.976631 
vt 0.0356058 0.976047 
vt 0.0370151 0.977085 
vt 0.0356058 0.976047 
vt 0.0360165 0.975759 
vt 0.037227 0.976631 
vt 0.0506492 0.977085 
vt 0.0516478 0.975759 
vt 0.0504373 0.976631 
vt 0.0520586 0.976047 
vt 0.0506492 0.977085 
vt 0.0516478 0.975759 
vt 0.0520586 0.976047 
vt 0.0504373 0.976631 
vt 0.147362 0.959002 
vt 0.147362 0.959002 
vt 0.147362 0.959614 
vt 0.147362 0.959614 
vt 0.162426 0.959614 
vt 0.162426 0.959002 
vt 0.162426 0.959002 
vt 0.162426 0.959614 
vt 0.142486 0.984904 
vt 0.142486 0.98459 
vt 0.142486 0.984422 
vt 0.142486 0.984017 
vt 0.142486 0.983161 
vt 0.142486 0.984376 
vt 0.142486 0.983613 
vt 0.142486 0.983445 
vt 0.142486 0.983161 
vt 0.142486 0.983445 
vt 0.142486 0.983613 
vt 0.142486 0.984904 
vt 0.142486 0.984376 
vt 0.142486 0.984017 
vt 0.142486 0.984422 
vt 0.142486 0.98459 
vt 0.142486 0.983613 
vt 0.142486 0.984017 
vt 0.142486 0.984017 
vt 0.142486 0.983445 
vt 0.142486 0.983445 
vt 0.142486 0.983613 
vt 0.142486 0.984422 
vt 0.142486 0.984422 
vt 0.142486 0.98459 
vt 0.142486 0.98459 
vt 0.142486 0.984904 
vt 0.142486 0.984904 
vt 0.142486 0.983161 
vt 0.142486 0.983161 
vt 0.167303 0.983161 
vt 0.167303 0.984904 
vt 0.167303 0.984376 
vt 0.167303 0.984017 
vt 0.167303 0.983613 
vt 0.167303 0.983445 
vt 0.167303 0.984422 
vt 0.167303 0.98459 
vt 0.167303 0.983161 
vt 0.167303 0.984017 
vt 0.167303 0.983613 
vt 0.167303 0.984904 
vt 0.167303 0.984376 
vt 0.167303 0.983445 
vt 0.167303 0.984422 
vt 0.167303 0.98459 
vt 0.167303 0.983445 
vt 0.167303 0.983613 
vt 0.167303 0.983613 
vt 0.167303 0.983445 
vt 0.167303 0.983161 
vt 0.167303 0.983161 
vt 0.167303 0.984017 
vt 0.167303 0.984017 
vt 0.167303 0.984422 
vt 0.167303 0.984422 
vt 0.167303 0.98459 
vt 0.167303 0.98459 
vt 0.167303 0.984904 
vt 0.167303 0.984904 

usemtl Medkit1Mtl

f 1/1/1 2/2/2 3/3/3 
f 3/3/3 4/4/4 1/1/1 
f 5/5/5 6/6/6 7/7/7 
f 7/7/7 8/8/8 5/5/5 
f 9/9/9 10/10/10 11/11/11 
f 9/9/9 11/11/11 12/12/12 
f 13/13/13 14/14/14 15/15/15 
f 14/14/14 13/13/13 16/16/16 
f 17/17/17 18/18/18 19/19/19 
f 18/18/18 17/17/17 20/20/20 
f 21/21/21 22/22/22 18/18/18 
f 21/21/21 18/18/18 20/20/20 
f 23/23/23 18/18/18 22/22/22 
f 20/20/20 24/24/24 21/21/21 
f 25/25/25 21/21/21 24/24/24 
f 25/25/25 24/24/24 26/26/26 
f 27/27/27 28/28/28 29/29/29 
f 27/27/27 29/29/29 30/30/30 
f 31/31/31 27/27/27 30/30/30 
f 29/29/29 28/28/28 32/32/32 
f 28/28/28 33/33/33 32/32/32 
f 31/31/31 30/30/30 34/34/34 
f 35/35/35 36/36/36 37/37/37 
f 35/35/35 37/37/37 38/38/38 
f 39/39/39 40/40/40 41/41/41 
f 39/39/39 41/41/41 42/42/42 
f 43/43/43 44/44/44 45/45/45 
f 43/43/43 45/45/45 46/46/46 
f 47/47/47 48/48/48 49/49/49 
f 48/48/48 47/47/47 50/50/50 
f 51/51/51 52/52/52 53/53/53 
f 52/52/52 51/51/51 54/54/54 
f 55/55/55 56/56/56 57/57/57 
f 56/56/56 55/55/55 58/58/58 
f 59/59/59 60/60/60 61/61/61 
f 59/59/59 61/61/61 62/62/62 
f 63/63/63 64/64/64 65/65/65 
f 63/63/63 65/65/65 66/66/66 
f 67/67/67 68/68/68 69/69/69 
f 68/68/68 67/67/67 70/70/70 
f 71/71/71 72/72/72 73/73/73 
f 73/73/73 74/74/74 71/71/71 
f 75/75/75 76/76/76 77/77/77 
f 77/77/77 78/78/78 75/75/75 
f 79/79/79 80/80/80 81/81/81 
f 79/79/79 82/82/82 80/80/80 
f 83/83/83 84/84/84 85/85/85 
f 84/84/84 83/83/83 86/86/86 
f 87/87/87 88/88/88 89/89/89 
f 88/88/88 87/87/87 90/90/90 
f 91/91/91 92/92/92 93/93/93 
f 92/92/92 91/91/91 94/94/94 
f 95/95/95 96/96/96 97/97/97 
f 97/97/97 98/98/98 95/95/95 
f 99/99/99 100/100/100 101/101/101 
f 99/99/99 101/101/101 102/102/102 
f 103/103/103 104/104/104 105/105/105 
f 103/103/103 105/105/105 106/106/106 
f 107/107/107 108/108/108 109/109/109 
f 108/108/108 107/107/107 110/110/110 
f 111/111/111 112/112/112 113/113/113 
f 111/111/111 113/113/113 114/114/114 
f 115/115/115 116/116/116 117/117/117 
f 115/115/115 117/117/117 118/118/118 
f 119/119/119 115/115/115 120/120/120 
f 115/115/115 119/119/119 116/116/116 
f 118/118/118 117/117/117 121/121/121 
f 122/122/122 121/121/121 117/117/117 
f 123/123/123 121/121/121 122/122/122 
f 121/121/121 123/123/123 124/124/124 
f 125/125/125 126/126/126 123/123/123 
f 124/124/124 123/123/123 126/126/126 
f 127/127/127 125/125/125 128/128/128 
f 125/125/125 127/127/127 126/126/126 
f 129/129/129 130/130/130 131/131/131 
f 132/132/132 133/133/133 129/129/129 
f 129/129/129 131/131/131 132/132/132 
f 129/129/129 133/133/133 134/134/134 
f 133/133/133 132/132/132 135/135/135 
f 136/136/136 133/133/133 135/135/135 
f 137/137/137 138/138/138 139/139/139 
f 137/137/137 140/140/140 141/141/141 
f 142/142/142 137/137/137 139/139/139 
f 140/140/140 137/137/137 142/142/142 
f 143/143/143 140/140/140 142/142/142 
f 144/144/144 140/140/140 143/143/143 
f 145/145/145 146/146/146 147/147/147 
f 148/148/148 145/145/145 149/149/149 
f 146/146/146 145/145/145 148/148/148 
f 150/150/150 145/145/145 147/147/147 
f 148/148/148 151/151/151 146/146/146 
f 148/148/148 152/152/152 151/151/151 
f 153/153/153 154/154/154 155/155/155 
f 154/154/154 153/153/153 156/156/156 
f 157/157/157 153/153/153 158/158/158 
f 153/153/153 157/157/157 156/156/156 
f 155/155/155 154/154/154 159/159/159 
f 160/160/160 159/159/159 154/154/154 
f 159/159/159 160/160/160 161/161/161 
f 162/162/162 161/161/161 160/160/160 
f 162/162/162 163/163/163 161/161/161 
f 163/163/163 162/162/162 164/164/164 
f 163/163/163 165/165/165 166/166/166 
f 165/165/165 163/163/163 164/164/164 
f 167/167/167 168/168/168 169/169/169 
f 170/170/170 167/167/167 169/169/169 
f 171/171/171 167/167/167 170/170/170 
f 167/167/167 171/171/171 172/172/172 
f 171/171/171 170/170/170 173/173/173 
f 174/174/174 171/171/171 173/173/173 
f 175/175/175 176/176/176 177/177/177 
f 176/176/176 175/175/175 178/178/178 
f 179/179/179 180/180/180 181/181/181 
f 180/180/180 182/182/182 181/181/181 
f 183/183/183 184/184/184 185/185/185 
f 184/184/184 183/183/183 186/186/186 
f 187/187/187 188/188/188 189/189/189 
f 189/189/189 188/188/188 190/190/190 
f 191/191/191 192/192/192 193/193/193 
f 192/192/192 191/191/191 194/194/194 
f 195/195/195 196/196/196 197/197/197 
f 198/198/198 197/197/197 196/196/196 
f 199/199/199 200/200/200 201/201/201 
f 200/200/200 199/199/199 202/202/202 
f 203/203/203 204/204/204 205/205/205 
f 203/203/203 205/205/205 206/206/206 
f 207/207/207 208/208/208 209/209/209 
f 208/208/208 207/207/207 210/210/210 
f 211/211/211 212/212/212 213/213/213 
f 211/211/211 213/213/213 214/214/214 
f 215/215/215 216/216/216 217/217/217 
f 218/218/218 217/217/217 216/216/216 
f 219/219/219 220/220/220 221/221/221 
f 220/220/220 219/219/219 222/222/222 
f 223/223/223 224/224/224 225/225/225 
f 224/224/224 223/223/223 226/226/226 
f 227/227/227 228/228/228 229/229/229 
f 228/228/228 227/227/227 230/230/230 
f 231/231/231 232/232/232 233/233/233 
f 232/232/232 231/231/231 234/234/234 
f 235/235/235 236/236/236 237/237/237 
f 236/236/236 235/235/235 238/238/238 
f 239/239/239 240/240/240 241/241/241 
f 240/240/240 239/239/239 242/242/242 
f 243/243/243 244/244/244 245/245/245 
f 243/243/243 245/245/245 246/246/246 
f 247/247/247 248/248/248 249/249/249 
f 248/248/248 247/247/247 250/250/250 
f 251/251/251 252/252/252 253/253/253 
f 252/252/252 251/251/251 254/254/254 
f 255/255/255 256/256/256 257/257/257 
f 256/256/256 255/255/255 258/258/258 
f 259/259/259 260/260/260 261/261/261 
f 260/260/260 259/259/259 262/262/262 
f 263/263/263 264/264/264 265/265/265 
f 264/264/264 263/263/263 266/266/266 
f 267/267/267 268/268/268 269/269/269 
f 268/268/268 267/267/267 270/270/270 
f 271/271/271 272/272/272 273/273/273 
f 272/272/272 271/271/271 274/274/274 
f 273/273/273 275/275/275 271/271/271 
f 271/271/271 276/276/276 274/274/274 
f 276/276/276 271/271/271 277/277/277 
f 278/278/278 273/273/273 272/272/272 
f 273/273/273 278/278/278 279/279/279 
f 275/275/275 273/273/273 280/280/280 
f 281/281/281 279/279/279 278/278/278 
f 279/279/279 282/282/282 283/283/283 
f 282/282/282 279/279/279 281/281/281 
f 277/277/277 284/284/284 285/285/285 
f 285/285/285 276/276/276 277/277/277 
f 284/284/284 277/277/277 286/286/286 
f 287/287/287 288/288/288 289/289/289 
f 288/288/288 287/287/287 290/290/290 
f 289/289/289 291/291/291 287/287/287 
f 292/292/292 288/288/288 290/290/290 
f 288/288/288 292/292/292 293/293/293 
f 294/294/294 289/289/289 288/288/288 
f 289/289/289 294/294/294 295/295/295 
f 291/291/291 289/289/289 296/296/296 
f 297/297/297 291/291/291 296/296/296 
f 296/296/296 298/298/298 297/297/297 
f 298/298/298 296/296/296 299/299/299 
f 293/293/293 300/300/300 301/301/301 
f 302/302/302 293/293/293 292/292/292 
f 300/300/300 293/293/293 302/302/302 
f 303/303/303 304/304/304 305/305/305 
f 304/304/304 303/303/303 306/306/306 
f 307/307/307 308/308/308 309/309/309 
f 308/308/308 307/307/307 310/310/310 
f 311/311/311 312/312/312 313/313/313 
f 312/312/312 311/311/311 314/314/314 
f 315/315/315 316/316/316 317/317/317 
f 315/315/315 317/317/317 318/318/318 
f 319/319/319 320/320/320 321/321/321 
f 320/320/320 319/319/319 322/322/322 
f 323/323/323 324/324/324 325/325/325 
f 324/324/324 323/323/323 326/326/326 
f 327/327/327 328/328/328 329/329/329 
f 330/330/330 329/329/329 328/328/328 
f 331/331/331 332/332/332 333/333/333 
f 332/332/332 331/331/331 334/334/334 
f 335/335/335 336/336/336 337/337/337 
f 336/336/336 335/335/335 338/338/338 
f 339/339/339 340/340/340 341/341/341 
f 340/340/340 339/339/339 342/342/342 
f 343/343/343 344/344/344 345/345/345 
f 346/346/346 345/345/345 344/344/344 
f 347/347/347 348/348/348 349/349/349 
f 348/348/348 347/347/347 350/350/350 
f 351/351/351 352/352/352 353/353/353 
f 352/352/352 351/351/351 354/354/354 
f 355/355/355 356/356/356 357/357/357 
f 356/356/356 355/355/355 358/358/358 
f 359/359/359 360/360/360 361/361/361 
f 362/362/362 360/360/360 359/359/359 
f 360/360/360 363/363/363 364/364/364 
f 360/360/360 365/365/365 363/363/363 
f 365/365/365 360/360/360 362/362/362 
f 365/365/365 362/362/362 366/366/366 
f 367/367/367 365/365/365 366/366/366 
f 368/368/368 365/365/365 367/367/367 
f 369/369/369 365/365/365 368/368/368 
f 363/363/363 370/370/370 371/371/371 
f 363/363/363 371/371/371 372/372/372 
f 363/363/363 372/372/372 364/364/364 
f 373/373/373 374/374/374 375/375/375 
f 373/373/373 376/376/376 374/374/374 
f 377/377/377 376/376/376 373/373/373 
f 374/374/374 378/378/378 379/379/379 
f 374/374/374 379/379/379 375/375/375 
f 376/376/376 380/380/380 374/374/374 
f 376/376/376 377/377/377 381/381/381 
f 380/380/380 376/376/376 382/382/382 
f 383/383/383 380/380/380 384/384/384 
f 380/380/380 382/382/382 384/384/384 
f 385/385/385 386/386/386 387/387/387 
f 385/385/385 387/387/387 388/388/388 
f 389/389/389 390/390/390 391/391/391 
f 390/390/390 389/389/389 392/392/392 
f 393/393/393 394/394/394 395/395/395 
f 394/394/394 393/393/393 396/396/396 
f 397/397/397 398/398/398 399/399/399 
f 398/398/398 397/397/397 400/400/400 
f 401/401/401 402/402/402 403/403/403 
f 403/403/403 402/402/402 404/404/404 
f 405/405/405 406/406/406 407/407/407 
f 405/405/405 407/407/407 408/408/408 
f 409/409/409 410/410/410 411/411/411 
f 412/412/412 411/411/411 410/410/410 
f 413/413/413 414/414/414 415/415/415 
f 414/414/414 413/413/413 416/416/416 
f 417/417/417 418/418/418 419/419/419 
f 418/418/418 417/417/417 420/420/420 
f 421/421/421 422/422/422 423/423/423 
f 424/424/424 423/423/423 422/422/422 
f 425/425/425 426/426/426 427/427/427 
f 426/426/426 425/425/425 428/428/428 
f 429/429/429 430/430/430 431/431/431 
f 431/431/431 430/430/430 432/432/432 
f 433/433/433 434/434/434 435/435/435 
f 435/435/435 434/434/434 436/436/436 
f 437/437/437 438/438/438 439/439/439 
f 438/438/438 437/437/437 440/440/440 
f 441/441/441 442/442/442 443/443/443 
f 442/442/442 441/441/441 444/444/444 
f 445/445/445 446/446/446 447/447/447 
f 448/448/448 447/447/447 446/446/446 
f 449/449/449 450/450/450 451/451/451 
f 450/450/450 449/449/449 452/452/452 
f 453/453/453 454/454/454 455/455/455 
f 454/454/454 453/453/453 456/456/456 
f 457/457/457 458/458/458 459/459/459 
f 458/458/458 457/457/457 460/460/460 
f 461/461/461 462/462/462 463/463/463 
f 462/462/462 461/461/461 464/464/464 
f 465/465/465 466/466/466 467/467/467 
f 466/466/466 465/465/465 468/468/468 
f 469/469/469 470/470/470 471/471/471 
f 470/470/470 469/469/469 472/472/472 
f 473/473/473 474/474/474 475/475/475 
f 474/474/474 473/473/473 476/476/476 
f 477/477/477 478/478/478 479/479/479 
f 480/480/480 479/479/479 478/478/478 
f 481/481/481 482/482/482 483/483/483 
f 481/481/481 483/483/483 484/484/484 
f 485/485/485 486/486/486 487/487/487 
f 486/486/486 485/485/485 488/488/488 
f 489/489/489 490/490/490 491/491/491 
f 492/492/492 491/491/491 490/490/490 
f 493/493/493 494/494/494 495/495/495 
f 493/493/493 495/495/495 496/496/496 
f 497/497/497 498/498/498 499/499/499 
f 498/498/498 497/497/497 500/500/500 
f 501/501/501 502/502/502 503/503/503 
f 504/504/504 503/503/503 502/502/502 
f 505/505/505 506/506/506 507/507/507 
f 508/508/508 507/507/507 506/506/506 
f 509/509/509 510/510/510 511/511/511 
f 510/510/510 509/509/509 512/512/512 
f 513/513/513 514/514/514 515/515/515 
f 515/515/515 514/514/514 516/516/516 
f 517/517/517 518/518/518 519/519/519 
f 518/518/518 517/517/517 520/520/520 
f 521/521/521 522/522/522 523/523/523 
f 523/523/523 522/522/522 524/524/524 
f 525/525/525 526/526/526 527/527/527 
f 527/527/527 526/526/526 528/528/528 
f 529/529/529 530/530/530 531/531/531 
f 530/530/530 529/529/529 532/532/532 
f 533/533/533 534/534/534 535/535/535 
f 534/534/534 533/533/533 536/536/536 
f 537/537/537 538/538/538 539/539/539 
f 538/538/538 537/537/537 540/540/540 
f 541/541/541 542/542/542 543/543/543 
f 542/542/542 541/541/541 544/544/544 
f 545/545/545 546/546/546 547/547/547 
f 545/545/545 547/547/547 548/548/548 
f 549/549/549 550/550/550 551/551/551 
f 550/550/550 549/549/549 552/552/552 
f 553/553/553 554/554/554 555/555/555 
f 556/556/556 555/555/555 554/554/554 
f 557/557/557 558/558/558 559/559/559 
f 557/557/557 559/559/559 560/560/560 
f 561/561/561 562/562/562 563/563/563 
f 562/562/562 561/561/561 564/564/564 
f 565/565/565 566/566/566 567/567/567 
f 568/568/568 567/567/567 566/566/566 
f 569/569/569 570/570/570 571/571/571 
f 570/570/570 569/569/569 572/572/572 
f 573/573/573 574/574/574 575/575/575 
f 574/574/574 573/573/573 576/576/576 
f 577/577/577 578/578/578 579/579/579 
f 577/577/577 579/579/579 580/580/580 
f 581/581/581 582/582/582 583/583/583 
f 583/583/583 582/582/582 584/584/584 
f 585/585/585 586/586/586 587/587/587 
f 586/586/586 585/585/585 588/588/588 
f 589/589/589 590/590/590 591/591/591 
f 590/590/590 589/589/589 592/592/592 
f 593/593/593 594/594/594 595/595/595 
f 594/594/594 593/593/593 596/596/596 
f 597/597/597 598/598/598 599/599/599 
f 598/598/598 600/600/600 599/599/599 
f 601/601/601 602/602/602 603/603/603 
f 602/602/602 601/601/601 604/604/604 
f 605/605/605 606/606/606 607/607/607 
f 606/606/606 605/605/605 608/608/608 
f 609/609/609 610/610/610 611/611/611 
f 609/609/609 612/612/612 610/610/610 
f 613/613/613 614/614/614 615/615/615 
f 613/613/613 616/616/616 614/614/614 
f 617/617/617 618/618/618 619/619/619 
f 618/618/618 617/617/617 620/620/620 
f 621/621/621 622/622/622 623/623/623 
f 624/624/624 623/623/623 622/622/622 
f 625/625/625 626/626/626 627/627/627 
f 626/626/626 625/625/625 628/628/628 
f 629/629/629 630/630/630 631/631/631 
f 630/630/630 629/629/629 632/632/632 
f 633/633/633 634/634/634 635/635/635 
f 634/634/634 633/633/633 636/636/636 
f 637/637/637 638/638/638 639/639/639 
f 638/638/638 637/637/637 640/640/640 
f 641/641/641 642/642/642 643/643/643 
f 642/642/642 641/641/641 644/644/644 
f 645/645/645 646/646/646 647/647/647 
f 646/646/646 645/645/645 648/648/648 
f 649/649/649 650/650/650 651/651/651 
f 649/649/649 651/651/651 652/652/652 
f 653/653/653 654/654/654 655/655/655 
f 653/653/653 655/655/655 656/656/656 
f 657/657/657 658/658/658 659/659/659 
f 658/658/658 660/660/660 659/659/659 
f 661/661/661 662/662/662 663/663/663 
f 662/662/662 661/661/661 664/664/664 
f 665/665/665 666/666/666 667/667/667 
f 666/666/666 665/665/665 668/668/668 
f 669/669/669 670/670/670 671/671/671 
f 670/670/670 669/669/669 672/672/672 
f 673/673/673 674/674/674 675/675/675 
f 674/674/674 673/673/673 676/676/676 
f 677/677/677 678/678/678 679/679/679 
f 677/677/677 679/679/679 680/680/680 
f 681/681/681 682/682/682 683/683/683 
f 682/682/682 681/681/681 684/684/684 
f 685/685/685 686/686/686 687/687/687 
f 686/686/686 685/685/685 688/688/688 
f 689/689/689 690/690/690 691/691/691 
f 690/690/690 689/689/689 692/692/692 
f 693/693/693 694/694/694 695/695/695 
f 693/693/693 695/695/695 696/696/696 
f 697/697/697 698/698/698 699/699/699 
f 698/698/698 697/697/697 700/700/700 
f 701/701/701 702/702/702 703/703/703 
f 702/702/702 701/701/701 704/704/704 
f 705/705/705 706/706/706 707/707/707 
f 707/707/707 706/706/706 708/708/708 
f 709/709/709 710/710/710 711/711/711 
f 710/710/710 709/709/709 712/712/712 
f 713/713/713 714/714/714 715/715/715 
f 716/716/716 717/717/717 713/713/713 
f 713/713/713 715/715/715 716/716/716 
f 713/713/713 717/717/717 718/718/718 
f 717/717/717 716/716/716 719/719/719 
f 720/720/720 717/717/717 719/719/719 
f 721/721/721 722/722/722 723/723/723 
f 721/721/721 724/724/724 725/725/725 
f 726/726/726 721/721/721 723/723/723 
f 724/724/724 721/721/721 726/726/726 
f 727/727/727 724/724/724 726/726/726 
f 728/728/728 724/724/724 727/727/727 
f 729/729/729 730/730/730 731/731/731 
f 732/732/732 733/733/733 729/729/729 
f 734/734/734 729/729/729 733/733/733 
f 730/730/730 729/729/729 734/734/734 
f 735/735/735 736/736/736 730/730/730 
f 731/731/731 730/730/730 736/736/736 
f 737/737/737 736/736/736 735/735/735 
f 737/737/737 738/738/738 736/736/736 
f 739/739/739 737/737/737 740/740/740 
f 737/737/737 739/739/739 738/738/738 
f 733/733/733 741/741/741 742/742/742 
f 741/741/741 733/733/733 732/732/732 
f 743/743/743 744/744/744 745/745/745 
f 746/746/746 743/743/743 747/747/747 
f 744/744/744 743/743/743 746/746/746 
f 743/743/743 748/748/748 747/747/747 
f 749/749/749 744/744/744 746/746/746 
f 750/750/750 744/744/744 749/749/749 
f 751/751/751 752/752/752 753/753/753 
f 754/754/754 751/751/751 755/755/755 
f 752/752/752 751/751/751 754/754/754 
f 756/756/756 751/751/751 753/753/753 
f 754/754/754 757/757/757 752/752/752 
f 754/754/754 758/758/758 757/757/757 
f 759/759/759 760/760/760 761/761/761 
f 760/760/760 759/759/759 762/762/762 
f 763/763/763 759/759/759 764/764/764 
f 759/759/759 763/763/763 762/762/762 
f 761/761/761 760/760/760 765/765/765 
f 766/766/766 765/765/765 760/760/760 
f 767/767/767 765/765/765 766/766/766 
f 765/765/765 767/767/767 768/768/768 
f 769/769/769 767/767/767 770/770/770 
f 767/767/767 769/769/769 768/768/768 
f 769/769/769 771/771/771 772/772/772 
f 771/771/771 769/769/769 770/770/770 

